<svg width="772" height="426" viewBox="0 0 772 426" fill="none" xmlns="http://www.w3.org/2000/svg">
<rect x="0.495667" y="1.25784" width="257.739" height="212.466" fill="#FFF2DE"/>
<line x1="0.370667" y1="213.724" x2="0.370667" y2="1.25784" stroke="#AD8E77" stroke-width="0.25"/>
<line x1="10.1587" y1="213.724" x2="10.1587" y2="1.25784" stroke="#AD8E77" stroke-width="0.5"/>
<line x1="20.0717" y1="213.724" x2="20.0717" y2="1.25784" stroke="#AD8E77" stroke-width="0.5"/>
<line x1="29.9848" y1="213.724" x2="29.9848" y2="1.25784" stroke="#AD8E77" stroke-width="0.5"/>
<line x1="39.8978" y1="213.724" x2="39.8978" y2="1.25784" stroke="#AD8E77" stroke-width="0.5"/>
<line x1="49.8109" y1="213.724" x2="49.8109" y2="1.25784" stroke="#AD8E77" stroke-width="0.5"/>
<line x1="59.7239" y1="213.724" x2="59.7239" y2="1.25784" stroke="#AD8E77" stroke-width="0.5"/>
<line x1="69.637" y1="213.724" x2="69.637" y2="1.25784" stroke="#AD8E77" stroke-width="0.5"/>
<line x1="79.55" y1="213.724" x2="79.55" y2="1.25784" stroke="#AD8E77" stroke-width="0.5"/>
<line x1="89.4631" y1="213.724" x2="89.4631" y2="1.25784" stroke="#AD8E77" stroke-width="0.5"/>
<line x1="99.3761" y1="213.724" x2="99.3761" y2="1.25784" stroke="#AD8E77" stroke-width="0.5"/>
<line x1="109.289" y1="213.724" x2="109.289" y2="1.25784" stroke="#AD8E77" stroke-width="0.5"/>
<line x1="119.202" y1="213.724" x2="119.202" y2="1.25784" stroke="#AD8E77" stroke-width="0.5"/>
<line x1="129.115" y1="213.724" x2="129.115" y2="1.25784" stroke="#AD8E77" stroke-width="0.5"/>
<line x1="139.028" y1="213.724" x2="139.028" y2="1.25784" stroke="#AD8E77" stroke-width="0.5"/>
<line x1="148.941" y1="213.724" x2="148.941" y2="1.25784" stroke="#AD8E77" stroke-width="0.5"/>
<line x1="158.854" y1="213.724" x2="158.854" y2="1.25784" stroke="#AD8E77" stroke-width="0.5"/>
<line x1="168.767" y1="213.724" x2="168.767" y2="1.25784" stroke="#AD8E77" stroke-width="0.5"/>
<line x1="178.68" y1="213.724" x2="178.68" y2="1.25784" stroke="#AD8E77" stroke-width="0.5"/>
<line x1="188.593" y1="213.724" x2="188.593" y2="1.25784" stroke="#AD8E77" stroke-width="0.5"/>
<line x1="198.507" y1="213.724" x2="198.507" y2="1.25784" stroke="#AD8E77" stroke-width="0.5"/>
<line x1="208.42" y1="213.724" x2="208.42" y2="1.25784" stroke="#AD8E77" stroke-width="0.5"/>
<line x1="218.333" y1="213.724" x2="218.333" y2="1.25784" stroke="#AD8E77" stroke-width="0.5"/>
<line x1="228.246" y1="213.724" x2="228.246" y2="1.25784" stroke="#AD8E77" stroke-width="0.5"/>
<line x1="238.159" y1="213.724" x2="238.159" y2="1.25784" stroke="#AD8E77" stroke-width="0.5"/>
<line x1="248.072" y1="213.724" x2="248.072" y2="1.25784" stroke="#AD8E77" stroke-width="0.5"/>
<line x1="257.985" y1="213.724" x2="257.985" y2="1.25784" stroke="#AD8E77" stroke-width="0.5"/>
<path d="M0 1L258.234 1" stroke="#AD8E77" stroke-width="0.25"/>
<line x1="0.495667" y1="10.2904" x2="258.235" y2="10.2904" stroke="#AD8E77" stroke-width="0.5"/>
<line x1="0.495667" y1="19.5729" x2="258.235" y2="19.5729" stroke="#AD8E77" stroke-width="0.5"/>
<line x1="0.495667" y1="28.8554" x2="258.235" y2="28.8554" stroke="#AD8E77" stroke-width="0.5"/>
<line x1="0.495667" y1="38.1379" x2="258.235" y2="38.1379" stroke="#AD8E77" stroke-width="0.5"/>
<line x1="0.495667" y1="47.4204" x2="258.235" y2="47.4204" stroke="#AD8E77" stroke-width="0.5"/>
<line x1="0.495667" y1="56.7029" x2="258.235" y2="56.7029" stroke="#AD8E77" stroke-width="0.5"/>
<line x1="0.495667" y1="65.9854" x2="258.235" y2="65.9854" stroke="#AD8E77" stroke-width="0.5"/>
<line x1="0.495667" y1="75.2679" x2="258.235" y2="75.2679" stroke="#AD8E77" stroke-width="0.5"/>
<line x1="0.495667" y1="84.5504" x2="258.235" y2="84.5504" stroke="#AD8E77" stroke-width="0.5"/>
<line x1="0.495667" y1="93.833" x2="258.235" y2="93.833" stroke="#AD8E77" stroke-width="0.5"/>
<line x1="0.495667" y1="103.115" x2="258.235" y2="103.115" stroke="#AD8E77" stroke-width="0.5"/>
<line x1="0.495667" y1="111.367" x2="258.235" y2="111.367" stroke="#AD8E77" stroke-width="0.5"/>
<line x1="0.495667" y1="120.649" x2="258.235" y2="120.649" stroke="#AD8E77" stroke-width="0.5"/>
<line x1="0.495667" y1="129.932" x2="258.235" y2="129.932" stroke="#AD8E77" stroke-width="0.5"/>
<line x1="0.495667" y1="139.214" x2="258.235" y2="139.214" stroke="#AD8E77" stroke-width="0.5"/>
<line x1="0.495667" y1="148.497" x2="258.235" y2="148.497" stroke="#AD8E77" stroke-width="0.5"/>
<line x1="0.495667" y1="157.779" x2="258.235" y2="157.779" stroke="#AD8E77" stroke-width="0.5"/>
<line x1="0.495667" y1="167.062" x2="258.235" y2="167.062" stroke="#AD8E77" stroke-width="0.5"/>
<line x1="0.495667" y1="176.344" x2="258.235" y2="176.344" stroke="#AD8E77" stroke-width="0.5"/>
<line x1="0.495667" y1="185.627" x2="258.235" y2="185.627" stroke="#AD8E77" stroke-width="0.5"/>
<line x1="0.495667" y1="194.909" x2="258.235" y2="194.909" stroke="#AD8E77" stroke-width="0.5"/>
<line x1="0.495667" y1="204.192" x2="258.235" y2="204.192" stroke="#AD8E77" stroke-width="0.5"/>
<line x1="0.495667" y1="213.474" x2="258.235" y2="213.474" stroke="#AD8E77" stroke-width="0.5"/>
<rect x="257.496" y="1.25784" width="257.739" height="212.466" fill="#FFF2DE"/>
<line x1="257.371" y1="213.724" x2="257.371" y2="1.25784" stroke="#AD8E77" stroke-width="0.25"/>
<line x1="267.159" y1="213.724" x2="267.159" y2="1.25784" stroke="#AD8E77" stroke-width="0.5"/>
<line x1="277.072" y1="213.724" x2="277.072" y2="1.25784" stroke="#AD8E77" stroke-width="0.5"/>
<line x1="286.985" y1="213.724" x2="286.985" y2="1.25784" stroke="#AD8E77" stroke-width="0.5"/>
<line x1="296.898" y1="213.724" x2="296.898" y2="1.25784" stroke="#AD8E77" stroke-width="0.5"/>
<line x1="306.811" y1="213.724" x2="306.811" y2="1.25784" stroke="#AD8E77" stroke-width="0.5"/>
<line x1="316.724" y1="213.724" x2="316.724" y2="1.25784" stroke="#AD8E77" stroke-width="0.5"/>
<line x1="326.637" y1="213.724" x2="326.637" y2="1.25784" stroke="#AD8E77" stroke-width="0.5"/>
<line x1="336.55" y1="213.724" x2="336.55" y2="1.25784" stroke="#AD8E77" stroke-width="0.5"/>
<line x1="346.463" y1="213.724" x2="346.463" y2="1.25784" stroke="#AD8E77" stroke-width="0.5"/>
<line x1="356.376" y1="213.724" x2="356.376" y2="1.25784" stroke="#AD8E77" stroke-width="0.5"/>
<line x1="366.289" y1="213.724" x2="366.289" y2="1.25784" stroke="#AD8E77" stroke-width="0.5"/>
<line x1="376.202" y1="213.724" x2="376.202" y2="1.25784" stroke="#AD8E77" stroke-width="0.5"/>
<line x1="386.115" y1="213.724" x2="386.115" y2="1.25784" stroke="#AD8E77" stroke-width="0.5"/>
<line x1="396.028" y1="213.724" x2="396.028" y2="1.25784" stroke="#AD8E77" stroke-width="0.5"/>
<line x1="405.941" y1="213.724" x2="405.941" y2="1.25784" stroke="#AD8E77" stroke-width="0.5"/>
<line x1="415.854" y1="213.724" x2="415.854" y2="1.25784" stroke="#AD8E77" stroke-width="0.5"/>
<line x1="425.767" y1="213.724" x2="425.767" y2="1.25784" stroke="#AD8E77" stroke-width="0.5"/>
<line x1="435.68" y1="213.724" x2="435.68" y2="1.25784" stroke="#AD8E77" stroke-width="0.5"/>
<line x1="445.594" y1="213.724" x2="445.594" y2="1.25784" stroke="#AD8E77" stroke-width="0.5"/>
<line x1="455.507" y1="213.724" x2="455.507" y2="1.25784" stroke="#AD8E77" stroke-width="0.5"/>
<line x1="465.42" y1="213.724" x2="465.42" y2="1.25784" stroke="#AD8E77" stroke-width="0.5"/>
<line x1="475.333" y1="213.724" x2="475.333" y2="1.25784" stroke="#AD8E77" stroke-width="0.5"/>
<line x1="485.246" y1="213.724" x2="485.246" y2="1.25784" stroke="#AD8E77" stroke-width="0.5"/>
<line x1="495.159" y1="213.724" x2="495.159" y2="1.25784" stroke="#AD8E77" stroke-width="0.5"/>
<line x1="505.072" y1="213.724" x2="505.072" y2="1.25784" stroke="#AD8E77" stroke-width="0.5"/>
<line x1="515.11" y1="213.724" x2="515.11" y2="1.25784" stroke="#AD8E77" stroke-width="0.25"/>
<path d="M257 1L515.234 1" stroke="#AD8E77" stroke-width="0.25"/>
<line x1="257.496" y1="10.2904" x2="515.235" y2="10.2904" stroke="#AD8E77" stroke-width="0.5"/>
<line x1="257.496" y1="19.5729" x2="515.235" y2="19.5729" stroke="#AD8E77" stroke-width="0.5"/>
<line x1="257.496" y1="28.8554" x2="515.235" y2="28.8554" stroke="#AD8E77" stroke-width="0.5"/>
<line x1="257.496" y1="38.1379" x2="515.235" y2="38.1379" stroke="#AD8E77" stroke-width="0.5"/>
<line x1="257.496" y1="47.4204" x2="515.235" y2="47.4204" stroke="#AD8E77" stroke-width="0.5"/>
<line x1="257.496" y1="56.7029" x2="515.235" y2="56.7029" stroke="#AD8E77" stroke-width="0.5"/>
<line x1="257.496" y1="65.9854" x2="515.235" y2="65.9854" stroke="#AD8E77" stroke-width="0.5"/>
<line x1="257.496" y1="75.2679" x2="515.235" y2="75.2679" stroke="#AD8E77" stroke-width="0.5"/>
<line x1="257.496" y1="84.5504" x2="515.235" y2="84.5504" stroke="#AD8E77" stroke-width="0.5"/>
<line x1="257.496" y1="93.833" x2="515.235" y2="93.833" stroke="#AD8E77" stroke-width="0.5"/>
<line x1="257.496" y1="103.115" x2="515.235" y2="103.115" stroke="#AD8E77" stroke-width="0.5"/>
<line x1="257.496" y1="111.367" x2="515.235" y2="111.367" stroke="#AD8E77" stroke-width="0.5"/>
<line x1="257.496" y1="120.649" x2="515.235" y2="120.649" stroke="#AD8E77" stroke-width="0.5"/>
<line x1="257.496" y1="129.932" x2="515.235" y2="129.932" stroke="#AD8E77" stroke-width="0.5"/>
<line x1="257.496" y1="139.214" x2="515.235" y2="139.214" stroke="#AD8E77" stroke-width="0.5"/>
<line x1="257.496" y1="148.497" x2="515.235" y2="148.497" stroke="#AD8E77" stroke-width="0.5"/>
<line x1="257.496" y1="157.779" x2="515.235" y2="157.779" stroke="#AD8E77" stroke-width="0.5"/>
<line x1="257.496" y1="167.062" x2="515.235" y2="167.062" stroke="#AD8E77" stroke-width="0.5"/>
<line x1="257.496" y1="176.344" x2="515.235" y2="176.344" stroke="#AD8E77" stroke-width="0.5"/>
<line x1="257.496" y1="185.627" x2="515.235" y2="185.627" stroke="#AD8E77" stroke-width="0.5"/>
<line x1="257.496" y1="194.909" x2="515.235" y2="194.909" stroke="#AD8E77" stroke-width="0.5"/>
<line x1="257.496" y1="204.192" x2="515.235" y2="204.192" stroke="#AD8E77" stroke-width="0.5"/>
<line x1="257.496" y1="213.599" x2="515.235" y2="213.599" stroke="#AD8E77" stroke-width="0.25"/>
<rect x="513.496" y="1.25784" width="257.739" height="212.466" fill="#FFF2DE"/>
<line x1="513.246" y1="213.724" x2="513.246" y2="1.25784" stroke="#AD8E77" stroke-width="0.5"/>
<line x1="523.159" y1="213.724" x2="523.159" y2="1.25784" stroke="#AD8E77" stroke-width="0.5"/>
<line x1="533.072" y1="213.724" x2="533.072" y2="1.25784" stroke="#AD8E77" stroke-width="0.5"/>
<line x1="542.985" y1="213.724" x2="542.985" y2="1.25784" stroke="#AD8E77" stroke-width="0.5"/>
<line x1="552.898" y1="213.724" x2="552.898" y2="1.25784" stroke="#AD8E77" stroke-width="0.5"/>
<line x1="562.811" y1="213.724" x2="562.811" y2="1.25784" stroke="#AD8E77" stroke-width="0.5"/>
<line x1="572.724" y1="213.724" x2="572.724" y2="1.25784" stroke="#AD8E77" stroke-width="0.5"/>
<line x1="582.637" y1="213.724" x2="582.637" y2="1.25784" stroke="#AD8E77" stroke-width="0.5"/>
<line x1="592.55" y1="213.724" x2="592.55" y2="1.25784" stroke="#AD8E77" stroke-width="0.5"/>
<line x1="602.463" y1="213.724" x2="602.463" y2="1.25784" stroke="#AD8E77" stroke-width="0.5"/>
<line x1="612.376" y1="213.724" x2="612.376" y2="1.25784" stroke="#AD8E77" stroke-width="0.5"/>
<line x1="622.289" y1="213.724" x2="622.289" y2="1.25784" stroke="#AD8E77" stroke-width="0.5"/>
<line x1="632.202" y1="213.724" x2="632.202" y2="1.25784" stroke="#AD8E77" stroke-width="0.5"/>
<line x1="642.115" y1="213.724" x2="642.115" y2="1.25784" stroke="#AD8E77" stroke-width="0.5"/>
<line x1="652.028" y1="213.724" x2="652.028" y2="1.25784" stroke="#AD8E77" stroke-width="0.5"/>
<line x1="661.941" y1="213.724" x2="661.941" y2="1.25784" stroke="#AD8E77" stroke-width="0.5"/>
<line x1="671.854" y1="213.724" x2="671.854" y2="1.25784" stroke="#AD8E77" stroke-width="0.5"/>
<line x1="681.767" y1="213.724" x2="681.767" y2="1.25784" stroke="#AD8E77" stroke-width="0.5"/>
<line x1="691.68" y1="213.724" x2="691.68" y2="1.25784" stroke="#AD8E77" stroke-width="0.5"/>
<line x1="701.594" y1="213.724" x2="701.594" y2="1.25784" stroke="#AD8E77" stroke-width="0.5"/>
<line x1="711.507" y1="213.724" x2="711.507" y2="1.25784" stroke="#AD8E77" stroke-width="0.5"/>
<line x1="721.42" y1="213.724" x2="721.42" y2="1.25784" stroke="#AD8E77" stroke-width="0.5"/>
<line x1="731.333" y1="213.724" x2="731.333" y2="1.25784" stroke="#AD8E77" stroke-width="0.5"/>
<line x1="741.246" y1="213.724" x2="741.246" y2="1.25784" stroke="#AD8E77" stroke-width="0.5"/>
<line x1="751.159" y1="213.724" x2="751.159" y2="1.25784" stroke="#AD8E77" stroke-width="0.5"/>
<line x1="761.072" y1="213.724" x2="761.072" y2="1.25784" stroke="#AD8E77" stroke-width="0.5"/>
<line x1="771.11" y1="213.724" x2="771.11" y2="1.25784" stroke="#AD8E77" stroke-width="0.25"/>
<path d="M513 1L771.234 1" stroke="#AD8E77" stroke-width="0.25"/>
<line x1="513.496" y1="10.2904" x2="771.235" y2="10.2904" stroke="#AD8E77" stroke-width="0.5"/>
<line x1="513.496" y1="19.5729" x2="771.235" y2="19.5729" stroke="#AD8E77" stroke-width="0.5"/>
<line x1="513.496" y1="28.8554" x2="771.235" y2="28.8554" stroke="#AD8E77" stroke-width="0.5"/>
<line x1="513.496" y1="38.1379" x2="771.235" y2="38.1379" stroke="#AD8E77" stroke-width="0.5"/>
<line x1="513.496" y1="47.4204" x2="771.235" y2="47.4204" stroke="#AD8E77" stroke-width="0.5"/>
<line x1="513.496" y1="56.7029" x2="771.235" y2="56.7029" stroke="#AD8E77" stroke-width="0.5"/>
<line x1="513.496" y1="65.9854" x2="771.235" y2="65.9854" stroke="#AD8E77" stroke-width="0.5"/>
<line x1="513.496" y1="75.2679" x2="771.235" y2="75.2679" stroke="#AD8E77" stroke-width="0.5"/>
<line x1="513.496" y1="84.5504" x2="771.235" y2="84.5504" stroke="#AD8E77" stroke-width="0.5"/>
<line x1="513.496" y1="93.833" x2="771.235" y2="93.833" stroke="#AD8E77" stroke-width="0.5"/>
<line x1="513.496" y1="103.115" x2="771.235" y2="103.115" stroke="#AD8E77" stroke-width="0.5"/>
<line x1="513.496" y1="111.367" x2="771.235" y2="111.367" stroke="#AD8E77" stroke-width="0.5"/>
<line x1="513.496" y1="120.649" x2="771.235" y2="120.649" stroke="#AD8E77" stroke-width="0.5"/>
<line x1="513.496" y1="129.932" x2="771.235" y2="129.932" stroke="#AD8E77" stroke-width="0.5"/>
<line x1="513.496" y1="139.214" x2="771.235" y2="139.214" stroke="#AD8E77" stroke-width="0.5"/>
<line x1="513.496" y1="148.497" x2="771.235" y2="148.497" stroke="#AD8E77" stroke-width="0.5"/>
<line x1="513.496" y1="157.779" x2="771.235" y2="157.779" stroke="#AD8E77" stroke-width="0.5"/>
<line x1="513.496" y1="167.062" x2="771.235" y2="167.062" stroke="#AD8E77" stroke-width="0.5"/>
<line x1="513.496" y1="176.344" x2="771.235" y2="176.344" stroke="#AD8E77" stroke-width="0.5"/>
<line x1="513.496" y1="185.627" x2="771.235" y2="185.627" stroke="#AD8E77" stroke-width="0.5"/>
<line x1="513.496" y1="194.909" x2="771.235" y2="194.909" stroke="#AD8E77" stroke-width="0.5"/>
<line x1="513.496" y1="204.192" x2="771.235" y2="204.192" stroke="#AD8E77" stroke-width="0.5"/>
<line x1="513.496" y1="213.474" x2="771.235" y2="213.474" stroke="#AD8E77" stroke-width="0.5"/>
<rect x="0.495667" y="213.258" width="257.739" height="212.466" fill="#FFF2DE"/>
<line x1="0.370667" y1="425.724" x2="0.370667" y2="213.258" stroke="#AD8E77" stroke-width="0.25"/>
<line x1="10.1587" y1="425.724" x2="10.1587" y2="213.258" stroke="#AD8E77" stroke-width="0.5"/>
<line x1="20.0717" y1="425.724" x2="20.0717" y2="213.258" stroke="#AD8E77" stroke-width="0.5"/>
<line x1="29.9848" y1="425.724" x2="29.9848" y2="213.258" stroke="#AD8E77" stroke-width="0.5"/>
<line x1="39.8978" y1="425.724" x2="39.8978" y2="213.258" stroke="#AD8E77" stroke-width="0.5"/>
<line x1="49.8109" y1="425.724" x2="49.8109" y2="213.258" stroke="#AD8E77" stroke-width="0.5"/>
<line x1="59.7239" y1="425.724" x2="59.7239" y2="213.258" stroke="#AD8E77" stroke-width="0.5"/>
<line x1="69.637" y1="425.724" x2="69.637" y2="213.258" stroke="#AD8E77" stroke-width="0.5"/>
<line x1="79.55" y1="425.724" x2="79.55" y2="213.258" stroke="#AD8E77" stroke-width="0.5"/>
<line x1="89.4631" y1="425.724" x2="89.4631" y2="213.258" stroke="#AD8E77" stroke-width="0.5"/>
<line x1="99.3761" y1="425.724" x2="99.3761" y2="213.258" stroke="#AD8E77" stroke-width="0.5"/>
<line x1="109.289" y1="425.724" x2="109.289" y2="213.258" stroke="#AD8E77" stroke-width="0.5"/>
<line x1="119.202" y1="425.724" x2="119.202" y2="213.258" stroke="#AD8E77" stroke-width="0.5"/>
<line x1="129.115" y1="425.724" x2="129.115" y2="213.258" stroke="#AD8E77" stroke-width="0.5"/>
<line x1="139.028" y1="425.724" x2="139.028" y2="213.258" stroke="#AD8E77" stroke-width="0.5"/>
<line x1="148.941" y1="425.724" x2="148.941" y2="213.258" stroke="#AD8E77" stroke-width="0.5"/>
<line x1="158.854" y1="425.724" x2="158.854" y2="213.258" stroke="#AD8E77" stroke-width="0.5"/>
<line x1="168.767" y1="425.724" x2="168.767" y2="213.258" stroke="#AD8E77" stroke-width="0.5"/>
<line x1="178.68" y1="425.724" x2="178.68" y2="213.258" stroke="#AD8E77" stroke-width="0.5"/>
<line x1="188.593" y1="425.724" x2="188.593" y2="213.258" stroke="#AD8E77" stroke-width="0.5"/>
<line x1="198.507" y1="425.724" x2="198.507" y2="213.258" stroke="#AD8E77" stroke-width="0.5"/>
<line x1="208.42" y1="425.724" x2="208.42" y2="213.258" stroke="#AD8E77" stroke-width="0.5"/>
<line x1="218.333" y1="425.724" x2="218.333" y2="213.258" stroke="#AD8E77" stroke-width="0.5"/>
<line x1="228.246" y1="425.724" x2="228.246" y2="213.258" stroke="#AD8E77" stroke-width="0.5"/>
<line x1="238.159" y1="425.724" x2="238.159" y2="213.258" stroke="#AD8E77" stroke-width="0.5"/>
<line x1="248.072" y1="425.724" x2="248.072" y2="213.258" stroke="#AD8E77" stroke-width="0.5"/>
<line x1="257.985" y1="425.724" x2="257.985" y2="213.258" stroke="#AD8E77" stroke-width="0.5"/>
<path d="M0 213L258.234 213" stroke="#AD8E77" stroke-width="0.5"/>
<line x1="0.495667" y1="222.29" x2="258.235" y2="222.29" stroke="#AD8E77" stroke-width="0.5"/>
<line x1="0.495667" y1="231.573" x2="258.235" y2="231.573" stroke="#AD8E77" stroke-width="0.5"/>
<line x1="0.495667" y1="240.855" x2="258.235" y2="240.855" stroke="#AD8E77" stroke-width="0.5"/>
<line x1="0.495667" y1="250.138" x2="258.235" y2="250.138" stroke="#AD8E77" stroke-width="0.5"/>
<line x1="0.495667" y1="259.42" x2="258.235" y2="259.42" stroke="#AD8E77" stroke-width="0.5"/>
<line x1="0.495667" y1="268.703" x2="258.235" y2="268.703" stroke="#AD8E77" stroke-width="0.5"/>
<line x1="0.495667" y1="277.985" x2="258.235" y2="277.985" stroke="#AD8E77" stroke-width="0.5"/>
<line x1="0.495667" y1="287.268" x2="258.235" y2="287.268" stroke="#AD8E77" stroke-width="0.5"/>
<line x1="0.495667" y1="296.55" x2="258.235" y2="296.55" stroke="#AD8E77" stroke-width="0.5"/>
<line x1="0.495667" y1="305.833" x2="258.235" y2="305.833" stroke="#AD8E77" stroke-width="0.5"/>
<line x1="0.495667" y1="315.115" x2="258.235" y2="315.115" stroke="#AD8E77" stroke-width="0.5"/>
<line x1="0.495667" y1="323.367" x2="258.235" y2="323.367" stroke="#AD8E77" stroke-width="0.5"/>
<line x1="0.495667" y1="332.649" x2="258.235" y2="332.649" stroke="#AD8E77" stroke-width="0.5"/>
<line x1="0.495667" y1="341.932" x2="258.235" y2="341.932" stroke="#AD8E77" stroke-width="0.5"/>
<line x1="0.495667" y1="351.214" x2="258.235" y2="351.214" stroke="#AD8E77" stroke-width="0.5"/>
<line x1="0.495667" y1="360.497" x2="258.235" y2="360.497" stroke="#AD8E77" stroke-width="0.5"/>
<line x1="0.495667" y1="369.779" x2="258.235" y2="369.779" stroke="#AD8E77" stroke-width="0.5"/>
<line x1="0.495667" y1="379.062" x2="258.235" y2="379.062" stroke="#AD8E77" stroke-width="0.5"/>
<line x1="0.495667" y1="388.344" x2="258.235" y2="388.344" stroke="#AD8E77" stroke-width="0.5"/>
<line x1="0.495667" y1="397.627" x2="258.235" y2="397.627" stroke="#AD8E77" stroke-width="0.5"/>
<line x1="0.495667" y1="406.909" x2="258.235" y2="406.909" stroke="#AD8E77" stroke-width="0.5"/>
<line x1="0.495667" y1="416.192" x2="258.235" y2="416.192" stroke="#AD8E77" stroke-width="0.5"/>
<line x1="0.495667" y1="425.474" x2="258.235" y2="425.474" stroke="#AD8E77" stroke-width="0.5"/>
<rect x="257.496" y="213.258" width="257.739" height="212.466" fill="#FFF2DE"/>
<line x1="257.246" y1="425.724" x2="257.246" y2="213.258" stroke="#AD8E77" stroke-width="0.5"/>
<line x1="267.159" y1="425.724" x2="267.159" y2="213.258" stroke="#AD8E77" stroke-width="0.5"/>
<line x1="277.072" y1="425.724" x2="277.072" y2="213.258" stroke="#AD8E77" stroke-width="0.5"/>
<line x1="286.985" y1="425.724" x2="286.985" y2="213.258" stroke="#AD8E77" stroke-width="0.5"/>
<line x1="296.898" y1="425.724" x2="296.898" y2="213.258" stroke="#AD8E77" stroke-width="0.5"/>
<line x1="306.811" y1="425.724" x2="306.811" y2="213.258" stroke="#AD8E77" stroke-width="0.5"/>
<line x1="316.724" y1="425.724" x2="316.724" y2="213.258" stroke="#AD8E77" stroke-width="0.5"/>
<line x1="326.637" y1="425.724" x2="326.637" y2="213.258" stroke="#AD8E77" stroke-width="0.5"/>
<line x1="336.55" y1="425.724" x2="336.55" y2="213.258" stroke="#AD8E77" stroke-width="0.5"/>
<line x1="346.463" y1="425.724" x2="346.463" y2="213.258" stroke="#AD8E77" stroke-width="0.5"/>
<line x1="356.376" y1="425.724" x2="356.376" y2="213.258" stroke="#AD8E77" stroke-width="0.5"/>
<line x1="366.289" y1="425.724" x2="366.289" y2="213.258" stroke="#AD8E77" stroke-width="0.5"/>
<line x1="376.202" y1="425.724" x2="376.202" y2="213.258" stroke="#AD8E77" stroke-width="0.5"/>
<line x1="386.115" y1="425.724" x2="386.115" y2="213.258" stroke="#AD8E77" stroke-width="0.5"/>
<line x1="396.028" y1="425.724" x2="396.028" y2="213.258" stroke="#AD8E77" stroke-width="0.5"/>
<line x1="405.941" y1="425.724" x2="405.941" y2="213.258" stroke="#AD8E77" stroke-width="0.5"/>
<line x1="415.854" y1="425.724" x2="415.854" y2="213.258" stroke="#AD8E77" stroke-width="0.5"/>
<line x1="425.767" y1="425.724" x2="425.767" y2="213.258" stroke="#AD8E77" stroke-width="0.5"/>
<line x1="435.68" y1="425.724" x2="435.68" y2="213.258" stroke="#AD8E77" stroke-width="0.5"/>
<line x1="445.594" y1="425.724" x2="445.594" y2="213.258" stroke="#AD8E77" stroke-width="0.5"/>
<line x1="455.507" y1="425.724" x2="455.507" y2="213.258" stroke="#AD8E77" stroke-width="0.5"/>
<line x1="465.42" y1="425.724" x2="465.42" y2="213.258" stroke="#AD8E77" stroke-width="0.5"/>
<line x1="475.333" y1="425.724" x2="475.333" y2="213.258" stroke="#AD8E77" stroke-width="0.5"/>
<line x1="485.246" y1="425.724" x2="485.246" y2="213.258" stroke="#AD8E77" stroke-width="0.5"/>
<line x1="495.159" y1="425.724" x2="495.159" y2="213.258" stroke="#AD8E77" stroke-width="0.5"/>
<line x1="505.072" y1="425.724" x2="505.072" y2="213.258" stroke="#AD8E77" stroke-width="0.5"/>
<line x1="514.985" y1="425.724" x2="514.985" y2="213.258" stroke="#AD8E77" stroke-width="0.5"/>
<path d="M257 213L515.234 213" stroke="#AD8E77" stroke-width="0.5"/>
<line x1="257.496" y1="222.29" x2="515.235" y2="222.29" stroke="#AD8E77" stroke-width="0.5"/>
<line x1="257.496" y1="231.573" x2="515.235" y2="231.573" stroke="#AD8E77" stroke-width="0.5"/>
<line x1="257.496" y1="240.855" x2="515.235" y2="240.855" stroke="#AD8E77" stroke-width="0.5"/>
<line x1="257.496" y1="250.138" x2="515.235" y2="250.138" stroke="#AD8E77" stroke-width="0.5"/>
<line x1="257.496" y1="259.42" x2="515.235" y2="259.42" stroke="#AD8E77" stroke-width="0.5"/>
<line x1="257.496" y1="268.703" x2="515.235" y2="268.703" stroke="#AD8E77" stroke-width="0.5"/>
<line x1="257.496" y1="277.985" x2="515.235" y2="277.985" stroke="#AD8E77" stroke-width="0.5"/>
<line x1="257.496" y1="287.268" x2="515.235" y2="287.268" stroke="#AD8E77" stroke-width="0.5"/>
<line x1="257.496" y1="296.55" x2="515.235" y2="296.55" stroke="#AD8E77" stroke-width="0.5"/>
<line x1="257.496" y1="305.833" x2="515.235" y2="305.833" stroke="#AD8E77" stroke-width="0.5"/>
<line x1="257.496" y1="315.115" x2="515.235" y2="315.115" stroke="#AD8E77" stroke-width="0.5"/>
<line x1="257.496" y1="323.367" x2="515.235" y2="323.367" stroke="#AD8E77" stroke-width="0.5"/>
<line x1="257.496" y1="332.649" x2="515.235" y2="332.649" stroke="#AD8E77" stroke-width="0.5"/>
<line x1="257.496" y1="341.932" x2="515.235" y2="341.932" stroke="#AD8E77" stroke-width="0.5"/>
<line x1="257.496" y1="351.214" x2="515.235" y2="351.214" stroke="#AD8E77" stroke-width="0.5"/>
<line x1="257.496" y1="360.497" x2="515.235" y2="360.497" stroke="#AD8E77" stroke-width="0.5"/>
<line x1="257.496" y1="369.779" x2="515.235" y2="369.779" stroke="#AD8E77" stroke-width="0.5"/>
<line x1="257.496" y1="379.062" x2="515.235" y2="379.062" stroke="#AD8E77" stroke-width="0.5"/>
<line x1="257.496" y1="388.344" x2="515.235" y2="388.344" stroke="#AD8E77" stroke-width="0.5"/>
<line x1="257.496" y1="397.627" x2="515.235" y2="397.627" stroke="#AD8E77" stroke-width="0.5"/>
<line x1="257.496" y1="406.909" x2="515.235" y2="406.909" stroke="#AD8E77" stroke-width="0.5"/>
<line x1="257.496" y1="416.192" x2="515.235" y2="416.192" stroke="#AD8E77" stroke-width="0.5"/>
<line x1="257.496" y1="425.599" x2="515.235" y2="425.599" stroke="#AD8E77" stroke-width="0.25"/>
<rect x="513.496" y="213.258" width="257.739" height="212.466" fill="#FFF2DE"/>
<line x1="513.246" y1="425.724" x2="513.246" y2="213.258" stroke="#AD8E77" stroke-width="0.5"/>
<line x1="523.159" y1="425.724" x2="523.159" y2="213.258" stroke="#AD8E77" stroke-width="0.5"/>
<line x1="533.072" y1="425.724" x2="533.072" y2="213.258" stroke="#AD8E77" stroke-width="0.5"/>
<line x1="542.985" y1="425.724" x2="542.985" y2="213.258" stroke="#AD8E77" stroke-width="0.5"/>
<line x1="552.898" y1="425.724" x2="552.898" y2="213.258" stroke="#AD8E77" stroke-width="0.5"/>
<line x1="562.811" y1="425.724" x2="562.811" y2="213.258" stroke="#AD8E77" stroke-width="0.5"/>
<line x1="572.724" y1="425.724" x2="572.724" y2="213.258" stroke="#AD8E77" stroke-width="0.5"/>
<line x1="582.637" y1="425.724" x2="582.637" y2="213.258" stroke="#AD8E77" stroke-width="0.5"/>
<line x1="592.55" y1="425.724" x2="592.55" y2="213.258" stroke="#AD8E77" stroke-width="0.5"/>
<line x1="602.463" y1="425.724" x2="602.463" y2="213.258" stroke="#AD8E77" stroke-width="0.5"/>
<line x1="612.376" y1="425.724" x2="612.376" y2="213.258" stroke="#AD8E77" stroke-width="0.5"/>
<line x1="622.289" y1="425.724" x2="622.289" y2="213.258" stroke="#AD8E77" stroke-width="0.5"/>
<line x1="632.202" y1="425.724" x2="632.202" y2="213.258" stroke="#AD8E77" stroke-width="0.5"/>
<line x1="642.115" y1="425.724" x2="642.115" y2="213.258" stroke="#AD8E77" stroke-width="0.5"/>
<line x1="652.028" y1="425.724" x2="652.028" y2="213.258" stroke="#AD8E77" stroke-width="0.5"/>
<line x1="661.941" y1="425.724" x2="661.941" y2="213.258" stroke="#AD8E77" stroke-width="0.5"/>
<line x1="671.854" y1="425.724" x2="671.854" y2="213.258" stroke="#AD8E77" stroke-width="0.5"/>
<line x1="681.767" y1="425.724" x2="681.767" y2="213.258" stroke="#AD8E77" stroke-width="0.5"/>
<line x1="691.68" y1="425.724" x2="691.68" y2="213.258" stroke="#AD8E77" stroke-width="0.5"/>
<line x1="701.594" y1="425.724" x2="701.594" y2="213.258" stroke="#AD8E77" stroke-width="0.5"/>
<line x1="711.507" y1="425.724" x2="711.507" y2="213.258" stroke="#AD8E77" stroke-width="0.5"/>
<line x1="721.42" y1="425.724" x2="721.42" y2="213.258" stroke="#AD8E77" stroke-width="0.5"/>
<line x1="731.333" y1="425.724" x2="731.333" y2="213.258" stroke="#AD8E77" stroke-width="0.5"/>
<line x1="741.246" y1="425.724" x2="741.246" y2="213.258" stroke="#AD8E77" stroke-width="0.5"/>
<line x1="751.159" y1="425.724" x2="751.159" y2="213.258" stroke="#AD8E77" stroke-width="0.5"/>
<line x1="761.072" y1="425.724" x2="761.072" y2="213.258" stroke="#AD8E77" stroke-width="0.5"/>
<line x1="771.11" y1="425.724" x2="771.11" y2="213.258" stroke="#AD8E77" stroke-width="0.25"/>
<path d="M513 213L771.234 213" stroke="#AD8E77" stroke-width="0.5"/>
<line x1="513.496" y1="222.29" x2="771.235" y2="222.29" stroke="#AD8E77" stroke-width="0.5"/>
<line x1="513.496" y1="231.573" x2="771.235" y2="231.573" stroke="#AD8E77" stroke-width="0.5"/>
<line x1="513.496" y1="240.855" x2="771.235" y2="240.855" stroke="#AD8E77" stroke-width="0.5"/>
<line x1="513.496" y1="250.138" x2="771.235" y2="250.138" stroke="#AD8E77" stroke-width="0.5"/>
<line x1="513.496" y1="259.42" x2="771.235" y2="259.42" stroke="#AD8E77" stroke-width="0.5"/>
<line x1="513.496" y1="268.703" x2="771.235" y2="268.703" stroke="#AD8E77" stroke-width="0.5"/>
<line x1="513.496" y1="277.985" x2="771.235" y2="277.985" stroke="#AD8E77" stroke-width="0.5"/>
<line x1="513.496" y1="287.268" x2="771.235" y2="287.268" stroke="#AD8E77" stroke-width="0.5"/>
<line x1="513.496" y1="296.55" x2="771.235" y2="296.55" stroke="#AD8E77" stroke-width="0.5"/>
<line x1="513.496" y1="305.833" x2="771.235" y2="305.833" stroke="#AD8E77" stroke-width="0.5"/>
<line x1="513.496" y1="315.115" x2="771.235" y2="315.115" stroke="#AD8E77" stroke-width="0.5"/>
<line x1="513.496" y1="323.367" x2="771.235" y2="323.367" stroke="#AD8E77" stroke-width="0.5"/>
<line x1="513.496" y1="332.649" x2="771.235" y2="332.649" stroke="#AD8E77" stroke-width="0.5"/>
<line x1="513.496" y1="341.932" x2="771.235" y2="341.932" stroke="#AD8E77" stroke-width="0.5"/>
<line x1="513.496" y1="351.214" x2="771.235" y2="351.214" stroke="#AD8E77" stroke-width="0.5"/>
<line x1="513.496" y1="360.497" x2="771.235" y2="360.497" stroke="#AD8E77" stroke-width="0.5"/>
<line x1="513.496" y1="369.779" x2="771.235" y2="369.779" stroke="#AD8E77" stroke-width="0.5"/>
<line x1="513.496" y1="379.062" x2="771.235" y2="379.062" stroke="#AD8E77" stroke-width="0.5"/>
<line x1="513.496" y1="388.344" x2="771.235" y2="388.344" stroke="#AD8E77" stroke-width="0.5"/>
<line x1="513.496" y1="397.627" x2="771.235" y2="397.627" stroke="#AD8E77" stroke-width="0.5"/>
<line x1="513.496" y1="406.909" x2="771.235" y2="406.909" stroke="#AD8E77" stroke-width="0.5"/>
<line x1="513.496" y1="416.192" x2="771.235" y2="416.192" stroke="#AD8E77" stroke-width="0.5"/>
<line x1="513.496" y1="425.599" x2="771.235" y2="425.599" stroke="#AD8E77" stroke-width="0.25"/>
</svg>
