<svg width="223" height="185" viewBox="0 0 223 185" fill="none" xmlns="http://www.w3.org/2000/svg">
<path d="M77.8511 19.9727L9.00014 114.884C9.00014 114.884 1.87261 120.448 17.3761 132.351C32.8795 144.243 81.5818 180.189 81.5818 180.189C81.5818 180.189 100.192 184.494 115.695 171.838C131.199 159.181 191.688 84.0076 191.688 84.0076C191.688 84.0076 197.582 77.4324 189.206 72.6215L127.482 9.49239C127.482 9.49239 124.071 2.50548 117.873 7.31633L177.738 69.328C177.738 69.328 196.348 88.9008 161.306 87.9715C161.306 87.9715 82.5254 20.7255 81.9012 18.4554C81.277 16.1735 77.8656 19.9727 77.8656 19.9727H77.8511Z" fill="#AAC6AF"/>
<path d="M163.831 83.6782C163.439 83.9722 162.815 83.9605 162.452 83.6311L87.7223 17.8907C87.3594 17.5731 87.3884 17.0673 87.7803 16.7733C88.1723 16.4792 88.7965 16.491 89.1594 16.8203L163.889 82.5725C164.252 82.8901 164.223 83.3959 163.831 83.6899V83.6782Z" fill="#AAC6AF"/>
<path d="M169.812 80.8434C169.406 81.1257 168.781 81.0904 168.433 80.7611L98.4934 14.362C98.145 14.0326 98.1885 13.5268 98.595 13.2445C99.0014 12.9622 99.6256 12.9975 99.974 13.3269L169.928 79.726C170.277 80.0553 170.233 80.5611 169.827 80.8434H169.812Z" fill="#AAC6AF"/>
<path d="M174.733 74.0919L174.356 74.3507C173.949 74.633 173.325 74.5741 172.991 74.2448L109.613 11.4332C109.279 11.0921 109.337 10.5981 109.744 10.3158L110.121 10.057C110.527 9.77474 111.152 9.83355 111.485 10.1629L174.849 72.9627C175.183 73.3038 175.125 73.7978 174.719 74.0801L174.733 74.0919Z" fill="#AAC6AF"/>
<path d="M134.595 92.2648C133.536 93.0647 131.881 93.0059 130.908 92.1472L74.9478 42.9213C73.9752 42.0626 74.0333 40.7099 75.093 39.9101C76.1527 39.1103 77.8076 39.1691 78.7802 40.0277L134.741 89.2536C135.713 90.1123 135.655 91.465 134.595 92.2648Z" fill="#EEEBE7"/>
<path d="M121.995 97.2872C120.921 98.0752 119.266 97.9929 118.308 97.1225L68.7494 52.084C67.7913 51.2136 67.8784 49.8609 68.9526 49.0728C70.0268 48.2847 71.6817 48.3671 72.6398 49.2375L122.199 94.276C123.157 95.1464 123.07 96.4991 121.995 97.2872Z" fill="#EEEBE7"/>
</svg>
