<svg width="219" height="217" viewBox="0 0 219 217" fill="none" xmlns="http://www.w3.org/2000/svg">
<path d="M76.4547 23.4275L8.83872 134.756C8.83872 134.756 1.83905 141.282 17.0644 155.245C32.2898 169.193 80.1185 211.357 80.1185 211.357C80.1185 211.357 98.3946 216.407 113.62 201.561C128.845 186.716 188.25 98.5386 188.25 98.5386C188.25 98.5386 194.038 90.8261 185.812 85.1831L125.196 11.1343C125.196 11.1343 121.846 2.93887 115.758 8.58186L174.55 81.3199C174.55 81.3199 192.826 104.278 158.412 103.188C158.412 103.188 81.0451 24.3105 80.4321 21.6477C79.8191 18.971 76.469 23.4275 76.469 23.4275H76.4547Z" fill="#AAC6AF"/>
<path d="M160.893 98.1521C160.508 98.497 159.895 98.4832 159.538 98.0969L86.1487 20.9852C85.7923 20.6127 85.8208 20.0194 86.2057 19.6745C86.5907 19.3296 87.2037 19.3433 87.5601 19.7297L160.95 96.8552C161.306 97.2277 161.278 97.821 160.893 98.1659V98.1521Z" fill="#AAC6AF"/>
<path d="M166.766 94.8269C166.367 95.158 165.754 95.1166 165.412 94.7303L96.7266 16.846C96.3845 16.4597 96.4273 15.8664 96.8264 15.5352C97.2256 15.2041 97.8386 15.2455 98.1807 15.6318L166.88 93.5162C167.222 93.9025 167.18 94.4958 166.78 94.8269H166.766Z" fill="#AAC6AF"/>
<path d="M171.599 86.9074L171.228 87.211C170.829 87.5421 170.216 87.4731 169.888 87.0868L107.647 13.4105C107.319 13.0104 107.376 12.4309 107.775 12.0998L108.146 11.7963C108.545 11.4651 109.158 11.5341 109.486 11.9205L171.713 85.5829C172.041 85.983 171.984 86.5625 171.585 86.8936L171.599 86.9074Z" fill="#AAC6AF"/>
<path d="M132.181 108.224C131.141 109.162 129.515 109.093 128.56 108.086L73.6035 50.3455C72.6483 49.3383 72.7053 47.7517 73.746 46.8135C74.7867 45.8753 76.4119 45.9443 77.367 46.9514L132.324 104.692C133.279 105.699 133.222 107.286 132.181 108.224Z" fill="#EEEBE7"/>
<path d="M119.807 114.115C118.752 115.04 117.127 114.943 116.186 113.922L67.5162 61.0933C66.5753 60.0724 66.6609 58.4857 67.7158 57.5613C68.7708 56.6369 70.3959 56.7335 71.3368 57.7545L120.007 110.583C120.948 111.604 120.862 113.191 119.807 114.115Z" fill="#EEEBE7"/>
</svg>
