<svg width="265" height="157" viewBox="0 0 265 157" fill="none" xmlns="http://www.w3.org/2000/svg">
<path d="M46.3828 10.5099C45.64 11.1834 23.4291 18.5079 13.3414 111.341C13.3414 111.341 9.52321 147.515 35.9534 155.19C62.3836 162.865 80.1225 100.453 80.1225 100.453C80.1225 100.453 101.68 115.495 115.6 99.1758H161.166C161.166 99.1758 177.167 114.218 195.946 99.8213C195.946 99.8213 206.034 146.547 236.282 154.559C266.545 162.557 263.054 105.588 263.054 105.588C263.054 105.588 259.577 30.6874 231.409 10.5239C231.409 10.5239 220.623 -2.27294 198.724 10.5239L82.2173 11.8008C82.2173 11.8008 61.3436 -2.91839 46.3977 10.5239L46.3828 10.5099Z" fill="#AAC6AF" stroke="#AAC6AF" stroke-miterlimit="10"/>
<path d="M97.6831 96.5937C106.233 96.5937 113.164 90.8644 113.164 83.7969C113.164 76.7294 106.233 71 97.6831 71C89.1334 71 82.2024 76.7294 82.2024 83.7969C82.2024 90.8644 89.1334 96.5937 97.6831 96.5937Z" fill="#EEEBE7" stroke="#EEEBE7" stroke-miterlimit="10"/>
<path d="M178.029 96.5937C186.578 96.5937 193.509 90.8644 193.509 83.7969C193.509 76.7294 186.578 71 178.029 71C169.479 71 162.548 76.7294 162.548 83.7969C162.548 90.8644 169.479 96.5937 178.029 96.5937Z" fill="#EEEBE7" stroke="#EEEBE7" stroke-miterlimit="10"/>
<path d="M199.378 54.7657C203.973 54.7657 207.697 51.3419 207.697 47.1184C207.697 42.895 203.973 39.4712 199.378 39.4712C194.783 39.4712 191.058 42.895 191.058 47.1184C191.058 51.3419 194.783 54.7657 199.378 54.7657Z" fill="#EEEBE7"/>
<path d="M217.221 37.9835C221.816 37.9835 225.54 34.5597 225.54 30.3362C225.54 26.1128 221.816 22.689 217.221 22.689C212.626 22.689 208.901 26.1128 208.901 30.3362C208.901 34.5597 212.626 37.9835 217.221 37.9835Z" fill="#EEEBE7"/>
<path d="M217.221 71C221.816 71 225.54 67.5763 225.54 63.3528C225.54 59.1294 221.816 55.7056 217.221 55.7056C212.626 55.7056 208.901 59.1294 208.901 63.3528C208.901 67.5763 212.626 71 217.221 71Z" fill="#EEEBE7"/>
<path d="M233.845 54.8218C238.44 54.8218 242.165 51.398 242.165 47.1746C242.165 42.9511 238.44 39.5273 233.845 39.5273C229.251 39.5273 225.526 42.9511 225.526 47.1746C225.526 51.398 229.251 54.8218 233.845 54.8218Z" fill="#EEEBE7"/>
<path d="M54.7471 37.0715C54.7471 37.0715 53.0683 26.5758 57.5551 27.4458L65.964 27.3896C65.964 27.3896 68.9502 28.4701 67.4645 35.1772C65.964 41.8843 61.1653 43.4278 61.1653 43.4278C61.1653 43.4278 55.0443 40.1304 54.762 37.0715H54.7471Z" fill="#EEEBE7"/>
<path d="M71.6988 40.7901C71.6988 40.7901 83.0939 39.2466 82.1579 43.3719L82.2174 51.1174C82.2174 51.1174 81.0437 53.8676 73.749 52.4925C66.4543 51.1174 64.7755 46.6974 64.7755 46.6974C64.7755 46.6974 68.356 41.0567 71.6839 40.8041L71.6988 40.7901Z" fill="#EEEBE7"/>
<path d="M67.5537 56.6596C67.5537 56.6596 69.2325 67.1552 64.7458 66.2853L56.3369 66.3414C56.3369 66.3414 53.3506 65.261 54.8363 58.5538C56.3369 51.8467 61.1356 50.3032 61.1356 50.3032C61.1356 50.3032 67.2566 53.6007 67.5389 56.6596H67.5537Z" fill="#EEEBE7"/>
<path d="M50.3199 52.5903C50.3199 52.5903 38.9247 54.1338 39.8607 50.0085L39.8013 42.2631C39.8013 42.2631 40.975 39.5129 48.2696 40.888C55.5643 42.2631 57.2431 46.683 57.2431 46.683C57.2431 46.683 53.6626 52.3237 50.3347 52.5763L50.3199 52.5903Z" fill="#EEEBE7"/>
<path d="M97.6832 12.9935V49.4477C97.6832 49.4477 97.7129 55.2147 105.008 55.6778H175.072C175.072 55.6778 180.673 54.7376 180.302 46.6695C179.93 38.6013 180.317 12.9795 180.317 12.9795" stroke="#EEEBE7" stroke-miterlimit="10"/>
</svg>
