<svg width="225" height="181" viewBox="0 0 225 181" fill="none" xmlns="http://www.w3.org/2000/svg">
<path d="M37.2498 44.6856C36.6191 45.3046 17.7608 52.0365 9.19573 137.359C9.19573 137.359 5.95388 170.605 28.3946 177.66C50.8353 184.714 65.8967 127.351 65.8967 127.351C65.8967 127.351 84.1999 141.176 96.0195 126.178H134.707C134.707 126.178 148.293 140.002 164.237 126.771C164.237 126.771 172.802 169.716 198.485 177.079C224.18 184.43 221.216 132.071 221.216 132.071C221.216 132.071 218.264 63.2305 194.347 44.6985C194.347 44.6985 185.189 32.9371 166.596 44.6985L67.6753 45.8721C67.6753 45.8721 49.9523 32.3438 37.2624 44.6985L37.2498 44.6856Z" fill="#AAC6AF" stroke="#AAC6AF" stroke-miterlimit="10"/>
<path d="M80.8067 123.818C88.066 123.818 93.9508 118.552 93.9508 112.056C93.9508 105.561 88.066 100.295 80.8067 100.295C73.5475 100.295 67.6627 105.561 67.6627 112.056C67.6627 118.552 73.5475 123.818 80.8067 123.818Z" fill="#EEEBE7" stroke="#EEEBE7" stroke-miterlimit="10"/>
<path d="M149.012 123.818C156.271 123.818 162.156 118.552 162.156 112.056C162.156 105.561 156.271 100.295 149.012 100.295C141.753 100.295 135.868 105.561 135.868 112.056C135.868 118.552 141.753 123.818 149.012 123.818Z" fill="#EEEBE7" stroke="#EEEBE7" stroke-miterlimit="10"/>
<path d="M167.151 85.3607C171.052 85.3607 174.215 82.2139 174.215 78.3322C174.215 74.4505 171.052 71.3037 167.151 71.3037C163.25 71.3037 160.087 74.4505 160.087 78.3322C160.087 82.2139 163.25 85.3607 167.151 85.3607Z" fill="#EEEBE7"/>
<path d="M182.301 69.9496C186.202 69.9496 189.365 66.8028 189.365 62.9211C189.365 59.0393 186.202 55.8926 182.301 55.8926C178.399 55.8926 175.237 59.0393 175.237 62.9211C175.237 66.8028 178.399 69.9496 182.301 69.9496Z" fill="#EEEBE7"/>
<path d="M182.301 100.282C186.202 100.282 189.365 97.1353 189.365 93.2536C189.365 89.3719 186.202 86.2251 182.301 86.2251C178.399 86.2251 175.237 89.3719 175.237 93.2536C175.237 97.1353 178.399 100.282 182.301 100.282Z" fill="#EEEBE7"/>
<path d="M196.416 85.4125C200.317 85.4125 203.48 82.2657 203.48 78.384C203.48 74.5022 200.317 71.3555 196.416 71.3555C192.515 71.3555 189.352 74.5022 189.352 78.384C189.352 82.2657 192.515 85.4125 196.416 85.4125Z" fill="#EEEBE7"/>
<path d="M44.3516 69.1114C44.3516 69.1114 42.9262 59.4649 46.7357 60.2645L53.8753 60.2129C53.8753 60.2129 56.4108 61.2059 55.1494 67.3704C53.8753 73.5348 49.801 74.9534 49.801 74.9534C49.801 74.9534 44.6039 71.9228 44.3642 69.1114H44.3516Z" fill="#EEEBE7"/>
<path d="M58.7319 72.5162C58.7319 72.5162 68.407 71.0976 67.6123 74.8892L67.6627 82.0079C67.6627 82.0079 66.6662 84.5356 60.4726 83.2718C54.279 82.0079 52.8536 77.9456 52.8536 77.9456C52.8536 77.9456 55.8937 72.7613 58.7193 72.5291L58.7319 72.5162Z" fill="#EEEBE7"/>
<path d="M55.2251 87.1018C55.2251 87.1018 56.6505 96.7483 52.841 95.9487L45.7014 96.0003C45.7014 96.0003 43.1659 95.0073 44.4273 88.8428C45.7014 82.6784 49.7758 81.2598 49.7758 81.2598C49.7758 81.2598 54.9728 84.2904 55.2125 87.1018H55.2251Z" fill="#EEEBE7"/>
<path d="M40.5926 83.3619C40.5926 83.3619 30.9175 84.7805 31.7122 80.9889L31.6617 73.8702C31.6617 73.8702 32.6583 71.3425 38.8519 72.6063C45.0454 73.8702 46.4708 77.9325 46.4708 77.9325C46.4708 77.9325 43.4308 83.1168 40.6052 83.349L40.5926 83.3619Z" fill="#EEEBE7"/>
<path d="M80.8068 46.9812V80.4858C80.8068 80.4858 80.832 85.7862 87.0256 86.2118H146.514C146.514 86.2118 151.27 85.3477 150.954 77.9324C150.639 70.517 150.967 46.9683 150.967 46.9683" stroke="#EEEBE7" stroke-miterlimit="10"/>
</svg>
