<svg width="157" height="160" viewBox="0 0 157 160" fill="none" xmlns="http://www.w3.org/2000/svg">
<path d="M38.3359 11.8995C70.5077 16.7074 85.657 48.8697 69.5474 64.698C60.0911 73.9893 28.5933 76.6412 33.2615 56.806C38.211 35.7758 74.0526 29.2879 93.5466 30.7674C117.81 32.6089 141.455 45.5633 145.698 68.1395C155.924 122.542 63.8667 142.645 21.7754 154.809" stroke="#66645F" stroke-width="3" stroke-linecap="round"/>
<path d="M21.3386 141.103C21.6298 144.935 20.3215 148.978 19.7326 152.768C19.5826 153.733 19.141 155.025 19.2898 155.968C19.4479 156.972 20.4557 156.932 21.4125 156.963C23.4904 157.03 25.5889 157.174 27.6458 157.451C29.6583 157.722 31.5448 157.538 33.5673 157.509C35.0305 157.487 36.4659 157.751 37.916 157.785" stroke="#66645F" stroke-width="3" stroke-linecap="round"/>
</svg>
