<svg width="229" height="184" viewBox="0 0 229 184" fill="none" xmlns="http://www.w3.org/2000/svg">
<path d="M34.2329 149.434C33.884 149.434 33.5101 149.467 33.1736 149.367C33.6721 149.5 33.0116 149.301 32.9244 149.284C32.7499 149.235 32.5755 149.168 32.4135 149.102C32.2514 149.036 32.077 148.953 31.915 148.87C32.3262 149.086 31.8153 148.804 31.728 148.738C31.3791 148.506 31.0551 148.224 30.7436 147.926V152.217C31.0676 151.985 31.404 151.753 31.7405 151.538C31.8402 151.472 31.9399 151.422 32.0271 151.356C31.8277 151.472 31.8277 151.472 32.0271 151.356C32.1767 151.273 32.3262 151.207 32.4758 151.124C33.1985 150.776 33.9338 150.494 34.694 150.279C34.8809 150.229 35.0554 150.179 35.2423 150.146C35.342 150.13 35.4542 150.096 35.5539 150.08C35.342 150.113 35.3046 150.13 35.4542 150.096C35.828 150.047 36.1894 149.997 36.5633 149.98C37.3234 149.931 38.0961 149.98 38.8563 150.063C39.8283 150.196 40.7629 148.82 40.7255 147.578C40.6757 146.119 39.9031 145.241 38.8563 145.092C35.4043 144.628 31.9025 145.689 28.8743 147.909C28.301 148.323 27.9521 149.202 27.9521 150.063C27.9521 151.008 28.3259 151.687 28.8743 152.217C30.4195 153.692 32.3636 154.471 34.2578 154.405C35.2298 154.372 36.1769 153.278 36.1271 151.919C36.0773 150.56 35.3046 149.4 34.2578 149.434H34.2329Z" fill="#AAC6AF"/>
<path d="M22.4813 149.765C22.1448 150.03 21.8083 150.262 21.4469 150.461L23.6776 149.202C23.0794 149.517 22.4813 149.732 21.8582 149.881L24.3381 149.434C23.5779 149.566 22.8427 149.583 22.07 149.483L24.55 149.931C23.6527 149.765 22.8177 149.467 21.9703 149.019L24.201 150.279C23.7275 149.997 23.2913 149.649 22.8302 149.318C21.5591 148.39 24.7618 151.687 23.2041 149.649C21.6463 147.611 24.1262 151.836 23.4284 150.146C23.1667 149.517 22.905 148.92 22.6931 148.241L23.6402 151.207C23.4035 150.345 23.229 149.5 23.1293 148.589L23.4658 151.886C23.4284 151.439 23.4408 150.991 23.4782 150.544C23.3661 151.638 23.2539 152.748 23.1418 153.842C23.2415 153.129 23.391 152.499 23.5779 151.82L22.6308 154.786C23.2913 152.831 24.0016 150.859 24.8864 149.053C25.0609 148.705 25.2603 148.373 25.4098 148.025C24.1761 150.743 24.4129 149.682 24.9737 148.92C26.2074 147.263 24.2758 149.417 24.2633 149.533C24.2633 149.285 25.3101 148.787 25.4347 148.705L23.2041 149.964C23.7025 149.732 24.1761 149.566 24.6995 149.45L22.2196 149.898C23.0794 149.782 23.9144 149.815 24.7743 149.947L22.2943 149.5C25.3849 150.097 28.4381 151.323 31.6034 151.223C36.2766 151.058 40.1647 146.617 40.7878 140.452C41.4109 134.288 38.6319 128.306 34.0958 126.815C33.1985 126.517 32.3137 126.235 31.4165 125.937C30.594 134.073 29.759 142.209 28.9365 150.345C30.4694 150.262 31.9897 150.362 33.5101 150.627L31.0301 150.179C34.5569 150.875 37.9216 152.4 41.1991 154.223L38.9684 152.963C44.2522 155.946 49.3367 159.459 54.6704 162.309C56.9883 163.535 59.3561 164.612 61.7986 165.292C65.1508 166.236 68.5031 166.269 71.8803 166.767L69.4004 166.319C70.0733 166.468 70.7089 166.651 71.3444 166.965L69.1137 165.706C69.5125 165.938 71.0453 167.297 69.6496 165.872C68.9517 165.11 68.852 165.027 69.3505 165.656C68.3909 163.85 68.1417 163.502 68.6028 164.596L67.6557 161.63C67.7554 161.911 67.8177 162.21 67.8551 162.525C67.7429 161.431 67.6308 160.321 67.5186 159.227C67.556 159.542 67.556 159.857 67.5311 160.155L67.8675 156.857L67.7928 157.288L68.7399 154.322C69.6621 153.146 70.5842 151.952 71.5064 150.776L73.7371 149.517L73.3632 149.633L75.8432 149.185C69.2259 149.318 62.5712 148.821 55.9664 148.638C56.7889 156.775 57.6239 164.911 58.4463 173.047C60.7269 172.616 63.0074 172.202 65.2879 171.771C67.4314 171.373 69.8365 168.424 70.8709 166.054C72.0423 163.386 72.5408 159.459 71.818 156.476C71.0827 153.477 69.687 150.561 67.5186 149.053C65.1384 147.379 62.9576 147.313 60.3156 147.793C58.0351 148.224 55.7546 148.638 53.474 149.069C51.4178 149.45 48.8257 152.416 47.8911 154.786C46.8941 157.288 46.4954 159.89 46.782 162.707C47.4051 168.854 51.2683 173.345 55.9664 173.478C59.8296 173.594 63.6803 173.693 67.5435 173.809C72.6903 173.958 79.3076 175.499 83.1832 169.898C88.6415 161.994 86.0495 150.677 79.8559 145.175C75.8182 141.579 71.1201 142.11 66.5466 141.364L69.0265 141.811C65.3004 141.115 61.7612 139.508 58.3093 137.586L60.5399 138.845C50.3461 133.045 40.4264 124.843 28.9116 125.456C24.2384 125.705 20.3627 129.996 19.7272 136.227C19.0916 142.458 21.8831 148.373 26.4192 149.865C27.3165 150.163 28.2013 150.445 29.0985 150.743C29.921 142.607 30.756 134.47 31.5785 126.334C30.8681 126.351 30.1827 126.301 29.4724 126.202L31.9523 126.649C29.0487 126.086 26.1575 124.876 23.2041 124.926C19.0667 124.992 15.5026 126.981 12.3871 130.527C10.4555 132.731 8.94764 135.713 7.7513 138.696C6.10633 142.822 4.63582 147.114 4.72306 151.886C4.86014 159.973 8.99749 167.927 14.381 171.506C19.939 175.201 26.4068 175.416 31.8651 171.208C36.0897 167.943 37.9465 159.84 35.2173 154.206C32.4633 148.539 26.9551 146.252 22.4314 149.749L22.4813 149.765Z" fill="#AAC6AF"/>
<path d="M68.2539 125.721C71.793 126.003 75.3322 126.218 78.8839 126.4C79.8559 126.45 80.803 125.224 80.7532 123.915C80.7033 122.523 79.9307 121.479 78.8839 121.429C75.3447 121.247 71.793 121.032 68.2539 120.75C67.2818 120.667 66.3472 121.943 66.3846 123.236C66.4344 124.644 67.2071 125.638 68.2539 125.721Z" fill="#AAC6AF"/>
<path d="M67.3068 121.098C66.908 120.385 66.5092 119.656 66.1104 118.944C65.9983 118.662 65.8363 118.414 65.6244 118.248C65.4499 118.032 65.2381 117.883 64.9889 117.8C64.7396 117.701 64.4904 117.684 64.2411 117.751C63.9919 117.751 63.7551 117.867 63.5433 118.049L63.1694 118.43C62.9326 118.745 62.7831 119.109 62.6834 119.524L62.6211 120.187C62.6211 120.634 62.7083 121.048 62.8703 121.446C63.2691 122.158 63.6679 122.888 64.0667 123.6C64.1788 123.882 64.3408 124.13 64.5527 124.296C64.7272 124.512 64.939 124.661 65.1882 124.744C65.4375 124.843 65.6867 124.859 65.936 124.793C66.1852 124.793 66.422 124.677 66.6338 124.495L67.0077 124.114C67.2445 123.799 67.394 123.434 67.4937 123.02L67.556 122.357C67.556 121.91 67.4688 121.496 67.3068 121.098Z" fill="#AAC6AF"/>
<path d="M48.2899 116.922L47.9783 111.653L47.8288 109.068L47.754 107.825C47.754 107.643 47.754 107.46 47.7291 107.278C47.7291 107.013 47.7291 107.096 47.6917 107.543C47.5297 107.924 47.5048 108.024 47.6169 107.825L46.944 108.72C45.9595 109.681 44.651 107.825 45.3738 108.654C45.461 108.77 45.5607 108.869 45.6479 108.985C45.8224 109.217 45.9969 109.449 46.1589 109.697C46.2461 109.813 46.3209 109.946 46.3957 110.079C46.4455 110.145 46.6324 110.543 46.4829 110.211C46.3333 109.88 46.5577 110.36 46.595 110.427C46.6698 110.559 46.7321 110.708 46.8069 110.841C47.0686 111.388 47.3054 111.951 47.5048 112.531C47.5297 112.614 47.5546 112.68 47.5795 112.763C47.6418 112.929 47.6169 112.862 47.5172 112.564C47.592 112.647 47.6294 112.929 47.6543 113.045C47.7415 113.36 47.8163 113.691 47.8911 114.006C48.1652 115.249 49.2245 116.16 50.1965 115.746C51.1686 115.331 51.7917 114.022 51.505 112.68C51.1312 110.924 50.5455 109.2 49.7354 107.726C48.8257 106.069 47.3552 103.417 45.5856 104.13C43.4422 104.991 44.0777 108.521 44.2148 110.725L44.5887 116.922C44.6634 118.215 45.3987 119.474 46.458 119.408C47.4051 119.358 48.4145 118.314 48.3272 116.922H48.2899Z" fill="#AAC6AF"/>
<path d="M48.0032 120.303H49.4613C49.723 120.303 49.9598 120.236 50.1841 120.087C50.4209 119.988 50.6202 119.822 50.7822 119.574C50.9692 119.342 51.0938 119.077 51.1686 118.778C51.2807 118.48 51.343 118.165 51.3306 117.817L51.2683 117.154C51.181 116.74 51.019 116.376 50.7822 116.061L50.4084 115.68C50.1218 115.448 49.7978 115.348 49.4613 115.348H48.0032C47.7415 115.348 47.5048 115.414 47.2805 115.564C47.0437 115.663 46.8443 115.829 46.6823 116.077C46.4954 116.309 46.3707 116.574 46.296 116.873C46.1838 117.171 46.1215 117.486 46.134 117.834L46.1963 118.497C46.2835 118.911 46.4455 119.275 46.6823 119.59L47.0561 119.971C47.3428 120.203 47.6668 120.303 48.0032 120.303Z" fill="#AAC6AF"/>
<path d="M38.6195 87.6753C41.0246 87.6753 41.0246 82.7041 38.6195 82.7041C36.2143 82.7041 36.2143 87.6753 38.6195 87.6753Z" fill="#AAC6AF"/>
<path d="M57.088 83.0351L55.443 82.0574C55.2312 81.8751 54.9944 81.7757 54.7452 81.7591C54.4959 81.6929 54.2467 81.6929 53.9975 81.8089C53.7482 81.8917 53.5364 82.0408 53.3619 82.2563C53.1625 82.4385 53.0005 82.6705 52.8759 82.9522L52.689 83.5488C52.6017 83.9962 52.6017 84.427 52.689 84.8744L52.8759 85.471C53.0379 85.8521 53.2622 86.1338 53.5488 86.3658L55.1938 87.3434C55.4057 87.5257 55.6424 87.6251 55.8917 87.6417C56.1409 87.708 56.3901 87.708 56.6394 87.592C56.8886 87.5091 57.1005 87.36 57.2749 87.1446C57.4743 86.9623 57.6363 86.7303 57.761 86.4486L57.9479 85.8521C58.0351 85.4047 58.0351 84.9738 57.9479 84.5264L57.761 83.9299C57.599 83.5488 57.3746 83.2671 57.088 83.0351Z" fill="#AAC6AF"/>
<path d="M47.3677 131.024L47.3926 130.742L47.1434 132.001L47.2555 131.769L46.5826 132.664C46.8194 132.432 48.2525 132.548 48.8133 132.548C49.8351 132.548 50.8695 132.565 51.8914 132.73C53.8479 133.045 55.7421 133.89 57.6114 134.702C60.9886 136.16 62.8578 139.872 64.7147 143.667C66.0107 146.351 69.2508 143.849 67.9423 141.165C66.7086 138.646 65.4499 136.044 63.8174 133.957C62.0104 131.637 59.9168 130.46 57.5615 129.483C55.0068 128.422 52.4646 127.693 49.7978 127.61C47.4798 127.544 43.9905 126.98 43.654 131.057C43.5419 132.399 44.5887 133.542 45.5233 133.542C46.6324 133.542 47.2805 132.399 47.3926 131.057L47.3677 131.024Z" fill="#AAC6AF"/>
<path d="M21.7959 136.144C21.7959 134.106 25.2229 132.913 26.3694 132.615C28.625 132.018 30.9803 132.515 33.2235 132.929C37.8219 133.758 42.4328 134.603 47.0312 135.432C51.6048 136.26 56.1658 137.089 60.7393 137.917C64.9515 138.679 69.4627 139.044 73.4006 141.331C75.2201 142.391 77.3012 139.558 75.6687 137.42C72.4162 133.161 68.3037 128.621 63.4311 130.394C61.5244 131.09 61.7986 134.355 63.4311 135.183C69.8116 138.431 75.4818 143.667 80.2048 150.213C81.8747 152.533 84.5167 149.003 82.8468 146.7C77.6626 139.508 71.4192 133.957 64.4281 130.394V135.183C67.8177 133.957 70.8459 138.066 73.0268 140.933C73.787 139.624 74.5347 138.332 75.2948 137.022C70.6341 134.321 65.5372 133.808 60.5524 132.896C55.1813 131.919 49.7978 130.958 44.4267 129.98C41.8222 129.516 39.2176 129.035 36.6256 128.571C34.0335 128.107 31.1548 127.345 28.4132 127.395C24.6247 127.461 18.0698 129.831 18.0573 136.161C18.0573 139.359 21.7834 139.359 21.7959 136.161V136.144Z" fill="#AAC6AF"/>
<path d="M52.3898 81.5771H50.72C50.4707 81.5771 50.2464 81.8589 50.2464 82.2068C50.2464 82.5548 50.4458 82.8365 50.72 82.8365H52.3898C52.6391 82.8365 52.8634 82.5548 52.8634 82.2068C52.8634 81.8589 52.664 81.5771 52.3898 81.5771Z" fill="#AAC6AF"/>
<path d="M56.1409 81.6266C56.7391 81.6266 56.7391 80.3838 56.1409 80.3838C55.5427 80.3838 55.5427 81.6266 56.1409 81.6266Z" fill="#AAC6AF"/>
<path d="M53.4242 118.994C53.3619 118.844 53.2996 118.679 53.2372 118.513L53.2871 118.662C53.1749 118.298 53.1002 117.916 53.0503 117.535V117.701C53.0503 117.535 53.0503 117.386 53.0503 117.22C53.0503 116.889 52.8385 116.591 52.5768 116.591C52.3151 116.591 52.1032 116.856 52.1032 117.22C52.1157 118.066 52.2901 118.894 52.6141 119.623C52.7388 119.905 53.0379 120.021 53.2497 119.839C53.4616 119.656 53.5488 119.292 53.4117 118.994H53.4242Z" fill="#AAC6AF"/>
<path d="M55.5178 119.341C56.116 119.341 56.116 118.099 55.5178 118.099C54.9196 118.099 54.9196 119.341 55.5178 119.341Z" fill="#AAC6AF"/>
<path d="M55.5178 119.043C56.116 119.043 56.116 117.8 55.5178 117.8C54.9196 117.8 54.9196 119.043 55.5178 119.043Z" fill="#AAC6AF"/>
<path d="M59.057 119.938C59.6551 119.938 59.6551 118.695 59.057 118.695C58.4588 118.695 58.4588 119.938 59.057 119.938Z" fill="#AAC6AF"/>
<path d="M61.5618 119.64C62.16 119.64 62.16 118.397 61.5618 118.397C60.9637 118.397 60.9637 119.64 61.5618 119.64Z" fill="#AAC6AF"/>
<path d="M52.8011 119.341C53.3993 119.341 53.3993 118.099 52.8011 118.099C52.2029 118.099 52.2029 119.341 52.8011 119.341Z" fill="#AAC6AF"/>
<path d="M35.1177 110.94C35.1675 110.145 35.1052 109.333 34.9058 108.57L34.4572 109.349C34.5694 109.349 34.3575 109.299 34.4323 109.349C34.4323 109.349 34.4572 109.349 34.4697 109.349C34.507 109.366 34.4946 109.349 34.4073 109.316C34.4073 109.316 34.4572 109.366 34.4697 109.366C34.3949 109.283 34.3824 109.266 34.4198 109.316C34.4198 109.316 34.4323 109.333 34.4447 109.349C34.5195 109.449 34.3949 109.233 34.4323 109.316C34.4323 109.349 34.4572 109.382 34.4697 109.399C34.4946 109.449 34.4946 109.531 34.4572 109.349C34.4572 109.382 34.4697 109.415 34.4821 109.449C34.4946 109.482 34.4821 109.515 34.4946 109.548C34.507 109.647 34.4946 109.366 34.4946 109.515C34.4946 109.598 34.4946 109.664 34.4946 109.73C34.4946 109.531 34.4946 109.614 34.4946 109.681C34.4946 109.714 34.4946 109.747 34.4697 109.78C34.4572 109.846 34.4073 109.913 34.4697 109.763C34.4572 109.797 34.4447 109.83 34.4323 109.863C34.37 109.995 34.4946 109.78 34.4447 109.846C34.4447 109.846 34.3949 109.896 34.3824 109.929C34.4572 109.863 34.4697 109.846 34.4198 109.879C34.4198 109.879 34.3949 109.896 34.3824 109.913C34.3575 109.929 34.3201 109.946 34.2952 109.979C34.37 109.946 34.3824 109.929 34.3326 109.962C34.3201 109.962 34.2952 109.962 34.2827 109.979C34.2703 109.979 34.2453 109.979 34.2329 109.979C34.183 109.979 34.1955 109.979 34.2827 109.979C34.2578 109.979 34.208 109.979 34.183 109.979C34.1706 109.979 34.1456 109.979 34.1332 109.979C34.0833 109.979 34.0958 109.979 34.183 109.979C34.1332 109.946 34.0584 109.946 33.9961 109.913C33.9836 109.913 33.9587 109.896 33.9463 109.879C34.0086 109.913 34.021 109.929 33.9836 109.896C33.9463 109.879 33.9213 109.846 33.8839 109.83C33.8466 109.813 33.8216 109.78 33.7843 109.747C33.7469 109.714 33.7469 109.714 33.8092 109.78C33.7967 109.78 33.7843 109.747 33.7593 109.73C33.697 109.664 33.6472 109.598 33.5973 109.515L33.1487 110.559C33.3232 110.609 33.4976 110.675 33.6721 110.741C33.7593 110.774 33.8466 110.824 33.9338 110.874C33.9836 110.907 33.9712 110.89 33.9213 110.874C33.9463 110.874 33.9587 110.89 33.9836 110.907C34.021 110.923 34.0584 110.957 34.0958 110.973C34.2578 111.073 34.4073 111.189 34.5694 111.321C34.6441 111.387 34.7189 111.454 34.8061 111.52C34.8435 111.553 34.8809 111.586 34.9183 111.636C34.9557 111.669 34.9557 111.669 34.9183 111.636C34.9307 111.653 34.9557 111.669 34.9681 111.686C35.0678 111.785 35.1675 111.868 35.3046 111.868C35.4168 111.868 35.5538 111.802 35.6411 111.686C35.7906 111.454 35.8405 111.023 35.6411 110.807C34.9931 110.111 34.2453 109.614 33.4353 109.382C33.2359 109.333 33.0116 109.415 32.9119 109.664C32.8122 109.913 32.8496 110.194 32.9867 110.41C33.4353 111.122 34.2703 111.503 34.9058 111.006C35.4666 110.559 35.5912 109.581 35.3295 108.819C35.18 108.388 34.8684 108.106 34.507 108.09C34.208 108.09 33.9587 108.504 34.0584 108.869C34.0958 109.034 34.1332 109.217 34.1706 109.399C34.183 109.482 34.1955 109.581 34.208 109.664C34.208 109.697 34.2204 109.747 34.2204 109.78C34.2204 109.631 34.2204 109.78 34.2204 109.813C34.2453 110.178 34.2453 110.542 34.2204 110.907C34.1955 111.238 34.4572 111.537 34.694 111.537C34.9681 111.537 35.1426 111.255 35.1675 110.907L35.1177 110.94Z" fill="#AAC6AF"/>
<path d="M35.9027 111.553C36.5009 111.553 36.5009 110.311 35.9027 110.311C35.3046 110.311 35.3046 111.553 35.9027 111.553Z" fill="#AAC6AF"/>
<path d="M31.4538 89.1165C39.1304 87.8075 46.9814 86.9789 54.5831 85.007C57.9479 84.1288 61.1007 82.4054 64.3408 80.9472C65.1259 80.5992 65.9235 80.2678 66.7335 79.9696C67.0824 79.837 67.4438 79.721 67.7928 79.6216C67.7554 79.6216 69.2882 79.2239 68.6402 79.373C68.0669 79.5056 69.1137 79.3233 69.2259 79.3067C69.6745 79.2736 70.1107 79.257 70.5593 79.2736C70.9082 79.2736 71.2821 79.2902 71.6186 79.373C71.1076 79.2902 71.0578 79.3067 71.4566 79.4062C72.3414 79.7044 71.8678 79.3067 70.0608 78.2131L68.6152 74.9155L68.69 75.3961V71.4357C68.8271 70.8889 70.2602 68.8507 69.0763 69.9775C68.852 70.1929 68.6526 70.4912 68.4408 70.7397C67.9423 71.3197 67.4438 71.8997 66.9454 72.4797C65.8736 73.7059 64.777 74.9155 63.6554 76.0755C63.5682 76.1583 62.646 77.1194 63.1071 76.6554C63.5059 76.2412 62.7581 77.0034 62.7706 76.9869C62.2472 77.5171 61.7238 78.0308 61.1879 78.5445C60.1038 79.5884 59.0071 80.5993 57.8357 81.4444C57.5241 81.6763 57.2126 81.8918 56.8886 82.0906C57.1254 81.9415 57.8108 81.6929 56.7266 82.1569C56.2032 82.3889 55.6798 82.6043 55.1315 82.77C54.7701 82.886 54.4087 82.9688 54.0473 83.0517C54.2841 82.9854 55.0442 82.9357 53.8853 83.0683C53.15 83.1511 52.4023 83.2174 51.6546 83.234C48.9005 83.3334 46.134 83.2008 43.3799 83.002C42.7069 82.9523 42.0215 82.9026 41.3486 82.8197C41.062 82.7866 40.7753 82.7534 40.4763 82.7037C40.3516 82.6871 39.1678 82.4717 39.7784 82.6043C40.3267 82.7203 39.3921 82.5049 39.3796 82.5049C39.0058 82.4054 38.6194 82.3226 38.2456 82.2066C37.6349 82.0409 37.0617 81.7758 36.4635 81.5769C36.1769 81.4775 35.5538 80.9969 36.6006 81.7095C36.4137 81.5769 36.2143 81.4609 36.0274 81.3284C35.7781 81.1461 35.5413 80.9307 35.2921 80.765C34.7687 80.417 35.5413 81.0135 35.6036 81.1129C35.504 80.9472 35.0304 80.533 35.0304 80.3673C35.0304 80.3507 35.6784 81.5272 35.3419 80.8147C34.9806 80.0524 35.504 81.7261 35.5538 81.8752C35.5787 82.4386 35.5912 82.5049 35.5787 82.0243C35.5787 81.5769 35.5787 81.6101 35.5413 82.0906C35.479 82.2232 34.993 83.5654 35.4043 82.8031C35.8155 82.0409 35.2049 83.002 35.2173 83.0186C35.1675 82.9688 35.8778 82.2563 35.155 82.9191C35.3669 82.7203 35.6161 82.5877 35.828 82.3889C36.4386 81.8089 35.1799 82.5049 35.9277 82.3392C36.1769 82.2895 36.4386 82.1403 36.6878 82.0575C37.0243 81.9415 37.3732 81.8586 37.7222 81.7923C37.0492 81.9415 37.4355 81.842 37.8842 81.8089C40.9747 81.5935 44.0653 81.7095 47.1558 81.7426C50.4582 81.7758 53.7607 81.8089 57.0631 81.8255C58.8202 81.8255 60.5773 81.8586 62.322 81.8752C63.1445 81.8752 63.9794 81.8752 64.8019 81.8918C64.8268 81.8918 65.425 81.958 65.4624 81.9083C65.1259 82.2895 63.5059 81.0798 63.3189 80.7815L61.8734 77.484C63.4685 72.8111 63.7053 71.2866 62.5588 72.9271C62.3843 73.1425 62.2098 73.3579 62.0229 73.5567C61.8484 73.7722 61.6615 73.971 61.4746 74.1699C61.998 73.6562 61.9855 73.6562 61.4746 74.1699C60.7019 74.899 59.9044 75.5784 59.0819 76.208C58.5336 76.6223 57.9603 76.9703 57.3995 77.3514C56.3403 78.0639 58.222 77.0034 56.9883 77.5834C56.0163 78.0474 55.0442 78.4782 54.0473 78.8096C53.5114 78.9919 52.9631 79.141 52.4272 79.2736C52.1281 79.3399 50.7199 79.5222 52.0409 79.373C51.019 79.489 49.9972 79.5884 48.9628 79.5719C48.4145 79.5719 47.8537 79.5387 47.3054 79.4724C47.0063 79.4393 45.5981 79.1576 46.9066 79.4559C45.81 79.2239 44.7382 78.8925 43.6665 78.4948C40.8501 77.4177 37.4355 79.8039 36.7626 83.698C36.0772 87.6749 37.6599 91.7181 40.6756 92.8781C46.4829 95.1151 52.8634 95.0157 58.6208 92.5798C61.3998 91.4033 64.1414 89.7628 66.5466 87.5755C69.8365 84.6093 73.4754 80.8312 72.8772 74.9155C72.5407 71.6346 70.8958 69.1655 68.6526 67.9062C66.908 66.9285 65.0636 66.9782 63.2068 66.9616C59.6925 66.9285 56.1907 66.8954 52.6765 66.8622C49.1622 66.8291 45.6604 66.7959 42.1462 66.7628C38.2954 66.7297 34.3699 66.8622 30.8183 69.0495C27.2666 71.2369 24.525 75.9926 24.3256 81.3781C24.1387 86.4321 26.3445 90.7405 29.3976 93.458C32.2514 95.9933 35.6535 96.7722 38.9808 97.3687C42.3082 97.9652 45.5109 98.0481 48.7884 98.131C52.0658 98.2138 55.7919 98.0812 59.0943 96.739C62.3968 95.3968 65.0138 93.1266 67.6557 90.525C70.4721 87.7578 73.2262 84.8413 75.8556 81.7592C77.351 80.0193 78.7966 78.2628 79.3574 75.6115C80.155 71.85 78.834 67.8233 76.2793 65.9674C72.6404 63.3161 67.4812 64.2275 63.6679 65.5863C60.2408 66.8125 57.0132 68.801 53.5862 69.9941C52.7139 70.2923 51.8291 70.5409 50.9443 70.7563C50.5455 70.8557 50.1592 70.9386 49.7604 71.0214C49.5111 71.0712 48.4145 71.2866 49.1622 71.154C47.1309 71.5351 45.0872 71.85 43.0559 72.198C39.1678 72.8608 35.2796 73.5236 31.3915 74.1864C28.4879 74.6835 25.6341 77.2686 25.7837 81.6432C25.9083 85.2556 28.276 89.6302 31.3915 89.1L31.4538 89.1165Z" fill="#AAC6AF"/>
<path d="M45.5109 90.6413C41.8346 91.9503 38.1708 93.3091 34.507 94.7176C30.1703 96.3747 24.9986 97.5512 22.4314 103.069C20.5995 107.013 20.6494 111.736 22.2196 115.812C23.3661 118.811 25.3475 120.949 27.4287 122.755C30.5317 125.456 34.2204 127.163 37.8219 128.29C44.8504 130.494 52.1033 131.72 59.2065 133.344C62.9451 134.189 66.6712 135.05 70.4098 135.896C73.9116 136.691 77.5131 137.553 81.0647 137.022C86.1243 136.277 90.6604 133.543 93.6014 127.809C96.3181 122.523 96.6795 115.133 93.9753 109.714C91.7072 105.174 88.0683 102.423 84.4668 100.103C81.0398 97.8826 77.4508 95.9936 73.787 94.6513C67.07 92.1823 59.867 91.1881 52.9257 92.0332C49.3616 92.464 45.6106 93.0606 42.1836 94.5519C37.9465 96.4244 32.887 100.252 31.6657 106.466C30.4694 112.531 33.1113 118.579 37.6225 120.303C39.5416 121.032 41.6228 121.313 43.6042 121.744C47.779 122.656 51.9662 123.501 56.1534 124.362C64.9764 126.169 73.8742 128.389 82.8343 128.24C89.302 128.141 92.7166 117.419 88.1182 111.272C83.6817 105.323 77.6875 103.533 71.7308 102.025C65.3004 100.385 58.7455 98.91 52.1905 99.1751C48.2899 99.3408 44.5264 103.633 44.7133 109.117C44.8878 114.37 48.0033 119.242 52.1905 119.06C54.9944 118.944 57.761 119.209 60.5524 119.574C62.3345 119.806 59.3312 119.308 60.9387 119.64C61.7363 119.806 62.5214 119.955 63.319 120.137C64.6025 120.419 65.8861 120.733 67.1697 121.065C69.5001 121.645 71.8678 122.175 74.1484 123.053C74.6219 123.236 75.083 123.468 75.5566 123.65C76.3167 124.031 76.1672 123.932 75.1204 123.352C75.4195 123.517 75.7061 123.7 75.9927 123.898C76.4164 124.197 76.8152 124.528 77.2265 124.86C77.8745 125.473 77.7499 125.34 76.8526 124.462C77.0894 124.744 77.3262 125.042 77.5505 125.357C79.3076 119.706 81.0772 114.039 82.8343 108.388C79.1581 108.455 75.4943 108.107 71.8429 107.527C71.4317 107.46 71.0329 107.394 70.6216 107.328C69.1511 107.096 71.4192 107.494 70.4846 107.311C69.5499 107.129 68.6651 106.963 67.7554 106.781C65.9734 106.433 64.2038 106.052 62.4217 105.687C58.9822 104.975 55.5552 104.279 52.1157 103.566C50.2963 103.185 48.4768 102.804 46.6574 102.39C45.7477 102.191 44.838 101.976 43.9282 101.777C43.5295 101.677 43.1182 101.594 42.7194 101.495C40.6757 100.998 42.6571 100.981 44.1775 103.102C44.813 104.561 45.4611 106.035 46.0966 107.494L45.9845 107.079V112.365C45.9471 112.614 44.327 115.663 45.2617 114.288C46.2711 112.813 43.8285 115.265 45.1869 114.387C45.3614 114.271 46.3334 113.741 46.4082 113.542L45.486 114.072C45.7726 113.923 46.0717 113.79 46.3708 113.674C47.106 113.36 47.8662 113.111 48.6264 112.896C49.723 112.581 51.1437 111.918 52.2653 112.017L51.3306 112.183C51.6795 112.133 52.0285 112.067 52.3774 112.034C52.9008 111.968 53.4367 111.901 53.9601 111.852C54.8449 111.769 55.7172 111.719 56.602 111.686C58.9075 111.62 61.1755 111.835 63.4685 112.1C65.3004 112.316 61.7612 111.702 63.5807 112.1C63.9296 112.183 64.2785 112.249 64.6275 112.332C65.6743 112.564 66.7086 112.846 67.7429 113.177C69.7992 113.824 71.8429 114.619 73.8244 115.58C74.3228 115.829 74.8088 116.077 75.3073 116.326C77.0146 117.187 73.8244 115.381 75.4693 116.425C76.4289 117.022 77.3885 117.618 78.3231 118.264C79.1082 118.811 79.8808 119.375 80.6286 119.971C80.7158 120.038 81.8623 120.965 81.8374 120.999C80.9775 120.071 80.8404 119.938 81.4386 120.634C81.9869 121.413 81.8997 121.214 81.1769 120.038L81.4137 120.568C81.0273 119.739 80.8404 118.828 80.8778 117.834C80.9152 119.855 81.5009 115.597 80.9401 117.502C81.6754 114.983 81.2517 116.409 81.0523 117.038C80.7033 118.165 82.3358 115.381 81.2392 116.723C80.0802 118.148 82.7845 115.746 81.3015 116.707L80.8903 117.022C80.1675 117.502 80.3295 117.419 81.3763 116.79C81.3763 116.79 80.0927 117.27 80.0055 117.303C79.1954 117.502 79.3824 117.486 80.5662 117.237C80.2422 117.287 79.9182 117.303 79.5942 117.32C78.7717 117.37 77.9368 117.32 77.1143 117.254C77.0146 117.254 75.6189 117.071 75.6189 117.055L76.6158 117.237C76.2918 117.171 75.9553 117.105 75.6313 117.038C73.2885 116.541 70.9457 115.978 68.6028 115.447C63.7551 114.337 58.9199 113.244 54.0722 112.133C49.6358 111.123 45.1121 110.327 40.7505 108.819C39.741 108.471 38.7441 108.074 37.7721 107.61L37.286 107.378C36.5259 106.98 36.6505 107.046 37.6474 107.593C37.2487 107.676 36.1769 106.615 35.8155 106.35C35.6535 106.218 34.532 105.489 34.507 105.257C35.2797 106.102 35.4666 106.284 35.0554 105.803C34.8684 105.588 34.7064 105.373 34.5444 105.124C37.1988 107.278 35.8405 114.089 33.4104 115.829C31.4289 117.237 33.1985 115.994 33.8341 115.746C39.0182 113.691 44.2273 111.752 49.4489 109.88C53.2248 108.521 55.9041 102.738 54.6704 97.6506C53.4367 92.5634 49.5236 89.2493 45.4735 90.7075L45.5109 90.6413Z" fill="#AAC6AF"/>
<path d="M49.9099 102.473C53.6734 102.291 57.4245 101.711 61.2004 101.744C64.9764 101.777 68.5031 102.804 72.0174 104.793C73.6 105.688 75.1702 106.599 76.8027 107.345C78.4352 108.09 80.0179 108.67 81.4759 109.814C84.392 112.1 86.4981 115.878 88.4795 119.441C89.9002 121.976 93.1403 119.507 91.7072 116.939C89.5637 113.095 87.3704 109.25 84.4045 106.45C81.4386 103.649 77.3635 102.489 73.9116 100.518C70.2478 98.4296 66.6587 97.0377 62.6335 96.8223C58.384 96.5903 54.147 97.3028 49.9099 97.5017C47.5048 97.6177 47.5048 102.589 49.9099 102.473Z" fill="#AAC6AF"/>
<path d="M29.5472 114.089C32.239 119.06 35.9028 122.424 40.3267 124.147C45.2367 126.052 50.4333 127.096 55.4929 128.091C60.5524 129.085 65.7366 129.93 70.8833 130.328C76.0301 130.725 80.5538 129.963 84.8282 126.55C86.8844 124.909 85.0151 120.601 82.9465 122.258C79.0334 125.373 74.759 125.705 70.2976 125.307C65.8363 124.909 61.0758 124.213 56.5023 123.302C51.9288 122.39 47.4549 121.363 43.006 119.938C38.9061 118.629 35.3046 116.21 32.7873 111.57C31.3915 109.001 28.1515 111.47 29.5596 114.072L29.5472 114.089Z" fill="#AAC6AF"/>
<path d="M50.2838 122.954C41.9592 121.148 33.5225 120.419 25.1107 121.546C22.3691 121.91 20.0263 122.391 17.5214 123.915C15.5525 125.108 13.9698 127.047 12.5117 129.151C9.91967 132.913 6.74188 135.631 4.7729 140.138C0.137072 150.776 3.0407 164.646 10.0443 172.069C17.1974 179.642 25.9581 181.266 34.8559 181.846C42.9063 182.376 50.9941 181.896 59.057 181.647C63.4186 181.515 67.718 181.349 72.0298 180.355C75.8182 179.476 79.5443 178.051 83.2705 176.792C85.4264 176.063 87.5823 175.433 89.5762 174.041C92.2929 172.136 94.1123 168.987 95.1466 165.226C96.8415 159.078 95.2962 152.019 91.5701 147.843C85.1896 140.701 77.3261 135.614 69.6122 131.554C65.9733 129.632 62.2472 127.793 58.4713 126.417C53.636 124.644 49.0625 124.711 44.165 125.904C40.1398 126.881 36.1395 128.025 32.1392 129.102C28.6001 130.046 24.849 130.626 21.4469 132.267C16.7114 134.537 12.7361 138.547 11.1534 145.142C9.83244 150.61 10.6923 156.858 12.8607 161.746C17.5837 172.417 26.7806 174.356 35.2173 175.533C43.33 176.659 51.4677 177.289 59.6178 177.389C63.7925 177.438 67.9797 177.355 72.1544 177.14C73.9863 177.041 75.8182 176.925 77.6501 176.775C80.479 176.543 83.42 176.494 85.9871 174.671C88.5543 172.848 90.1993 169.915 90.8722 166.236C91.7944 161.182 90.112 156.443 87.6197 152.748C85.1273 149.053 81.5632 145.954 78.0988 143.667C71.0079 138.978 63.3937 135.117 55.5801 133.211C47.268 131.19 38.7939 130.991 30.5441 133.659C28.8368 134.206 27.1545 134.901 25.522 135.73C23.4658 136.774 21.2725 137.818 19.478 139.574C16.5993 142.408 14.5555 146.285 14.543 151.257C14.543 155.598 16.1132 159.376 18.1445 162.608C23.3411 170.876 31.8526 172.533 39.3921 173.809C47.4425 175.168 55.5801 175.4 63.6679 174.489C68.2912 173.975 72.8274 173.412 76.9772 170.462C79.0334 169.004 80.2422 166.17 80.5413 163.204C80.8778 159.873 80.0428 157.388 78.4851 154.852C76.7529 152.035 74.3353 150.478 71.8803 149.086C69.687 147.86 67.4688 146.849 65.1508 146.103C60.515 144.628 55.7047 143.982 50.9567 143.485C41.6477 142.524 32.3137 142.143 22.9797 141.745C19.8393 141.613 16.4746 144.91 15.7643 149.036C15.0914 152.98 16.1257 158.481 19.2038 160.271C31.2545 167.231 43.8161 171.373 56.9509 172.384C59.8919 172.616 62.6958 169.7 63.78 166.27C65.0262 162.342 64.1913 158.597 62.2348 155.416C59.4807 150.925 55.2685 148.937 51.3804 146.799C47.5671 144.695 43.7537 142.607 39.9404 140.502L37.9465 160.039C40.8626 159.658 43.8036 159.525 46.7321 159.708C48.103 159.791 49.4613 159.973 50.8196 160.155C51.6795 160.304 51.5923 160.288 50.5704 160.105C50.9567 160.188 51.343 160.271 51.7294 160.354C52.502 160.52 53.2622 160.735 54.0348 160.934C57.8606 161.978 62.2971 159.459 63.2317 153.991C64.104 148.871 62.0727 143.071 58.0102 141.762C55.0692 140.801 52.1281 139.856 49.1871 138.895L47.1932 158.432C46.2835 158.316 46.1464 158.15 47.1185 158.498C47.5422 158.647 48.726 159.36 47.1558 158.399C49.0376 159.542 50.857 160.155 52.9132 159.393C54.6455 158.763 56.5272 156.974 57.3871 154.819C59.1193 150.445 58.5086 143.518 54.7078 141.215C52.1655 139.674 49.9847 138.878 47.1932 138.53C43.5045 138.066 40.3018 142.673 39.8532 147.147C39.3796 151.87 41.5729 156.874 45.2118 158.051C48.1528 159.012 51.0938 159.956 54.0348 160.917C55.3558 154.521 56.6892 148.141 58.0102 141.745C51.4054 139.939 44.651 139.243 37.934 140.138C34.1955 140.635 31.1174 143.551 30.594 148.755C30.0706 153.958 32.4508 157.736 35.9526 159.658C39.4544 161.58 42.8191 163.436 46.2461 165.325C47.0063 165.739 47.7665 166.17 48.5391 166.584C50.0595 167.413 47.4425 165.889 48.3148 166.468C48.6014 166.667 48.9005 166.833 49.1996 167.015C49.6108 167.28 50.6327 168.407 51.0814 168.44C50.6327 168.407 49.885 167.015 50.857 168.275C51.1437 168.639 51.4054 169.037 51.6546 169.451C53.4117 163.801 55.1813 158.133 56.9384 152.483C55.4056 152.367 53.8728 152.218 52.3525 152.002C51.7792 151.92 51.206 151.837 50.6327 151.754C49.7853 151.605 49.8725 151.638 50.9069 151.82C50.5206 151.754 50.1467 151.671 49.7728 151.605C47.0188 151.058 44.2896 150.345 41.5854 149.5C38.8811 148.655 36.2018 147.628 33.5599 146.468C32.2888 145.904 31.0177 145.308 29.759 144.678C29.0362 144.314 28.3259 143.949 27.6156 143.568C27.2542 143.369 26.9052 143.187 26.5563 142.988C27.4536 143.502 27.5283 143.535 26.7557 143.087C25.4971 149.268 24.2384 155.432 22.9797 161.613C31.7155 161.978 40.4638 162.342 49.1747 163.171C51.1686 163.353 53.1625 163.569 55.1439 163.85C55.605 163.917 56.0786 163.999 56.5397 164.066C58.4588 164.364 54.8822 163.685 56.7764 164.115C57.6986 164.331 58.6208 164.513 59.5305 164.762C61.5369 165.309 63.5183 166.005 65.4375 166.916C65.6493 167.015 67.1572 167.728 66.1104 167.214C65.0636 166.7 66.4469 167.43 66.6587 167.562C66.8457 167.695 67.7803 168.59 67.9797 168.59L67.2444 167.877C67.4937 168.175 67.718 168.507 67.9174 168.871C68.4159 163.668 68.9268 158.465 69.4253 153.262C68.204 154.123 69.6496 153.096 69.7991 153.129C69.6496 153.096 69.014 153.477 68.8146 153.56C68.1417 153.825 67.4563 153.974 66.7709 154.157C65.0511 154.621 68.0669 153.991 66.9454 154.123C66.559 154.173 66.1727 154.239 65.7739 154.289C64.8642 154.422 63.9545 154.521 63.0448 154.621C59.6053 154.985 56.1658 155.151 52.7139 155.101C49.2744 155.051 45.8224 154.803 42.3954 154.339C41.5854 154.223 40.7878 154.107 39.9778 153.974C38.5447 153.759 39.903 153.974 40.1523 154.024C39.7535 153.974 39.3422 153.875 38.9434 153.792C37.5228 153.51 36.1146 153.195 34.7189 152.748C34.1207 152.549 33.5225 152.35 32.9243 152.102C32.5006 151.936 31.5909 151.224 31.1797 151.306C31.8651 151.174 32.5505 152.151 31.7155 151.588C31.4538 151.406 31.1797 151.24 30.918 151.041C30.594 150.809 30.27 150.544 29.9584 150.279C28.9116 149.368 29.946 150.03 30.2326 150.61C30.1204 150.378 29.111 148.97 28.9739 148.97L29.5846 150.047L29.3229 149.55L29.0362 148.937L29.3478 149.981C29.7341 151.969 28.9365 155.565 27.329 156.36C28.0268 156.012 28.6624 154.968 29.435 154.869C28.301 155.018 28.5627 155.333 29.1858 155.018C29.5347 154.853 29.8712 154.67 30.2201 154.505C30.918 154.173 31.6158 153.858 32.3262 153.577C33.9213 152.947 35.5413 152.433 37.1739 152.052C37.4356 151.986 37.9839 151.77 38.2705 151.82C36.8748 151.654 37.3359 151.969 37.934 151.886C38.6693 151.787 39.4045 151.688 40.1523 151.621C41.8222 151.472 43.492 151.439 45.1619 151.505C46.6574 151.572 48.1279 151.737 49.6108 151.936C51.1686 152.151 49.3491 151.969 49.3118 151.87C49.3367 151.936 50.2713 152.069 50.4333 152.102C51.368 152.301 52.2902 152.533 53.2248 152.798C56.3777 153.676 59.4682 154.886 62.5089 156.311C63.9171 156.974 65.4125 157.603 66.7584 158.481C65.101 157.404 67.1323 158.713 67.5809 158.979C68.4034 159.476 69.2259 159.973 70.0234 160.486C71.2696 161.298 72.5158 162.16 73.6997 163.138C74.111 163.469 75.2076 164.115 75.4195 164.679C75.1079 163.834 74.4723 163.618 75.1328 164.397C75.5191 164.861 75.9055 165.292 76.2793 165.789C76.4164 165.971 76.8775 166.75 76.9897 166.783C76.7404 166.717 76.1298 164.778 76.6532 166.303C75.3696 162.624 76.7903 157.968 79.7687 156.659C78.6346 157.156 80.2796 156.592 80.4665 156.609C80.1425 156.576 79.7562 156.675 79.4322 156.708C78.4103 156.808 77.4009 156.891 76.379 156.957C72.9146 157.206 69.4627 157.371 65.9982 157.454C59.0694 157.587 52.1406 157.355 45.2243 156.758C41.7723 156.46 38.3204 156.062 34.8684 155.582C34.1332 155.482 33.3854 155.366 32.6502 155.25C31.5411 155.084 32.8994 155.565 33.1237 155.35C33.049 155.416 32.1143 155.134 32.1143 155.134C30.6064 154.803 29.1609 154.306 27.7153 153.676C26.6062 153.195 28.1141 153.925 28.1141 153.925C28.0767 153.974 27.1794 153.295 27.2293 153.328C26.9426 153.113 26.656 152.881 26.3694 152.649C25.5095 151.986 26.5563 152.234 26.7308 153.096C26.6685 152.814 25.7463 151.704 25.5344 151.505C25.6715 151.638 26.5314 153.51 25.9457 152.151C25.7837 151.77 25.5344 150.992 25.3226 150.677C25.4472 150.859 25.8709 152.997 25.5967 151.489C25.5344 151.141 25.4472 150.776 25.3724 150.412C25.1357 149.285 25.7588 150.113 25.4472 151.439C25.4971 151.24 25.4472 150.511 25.4223 150.362C25.3724 149.202 25.9457 150.262 25.2977 151.422C25.3475 151.34 25.5095 150.378 25.5095 150.395C25.5095 150.445 24.7244 152.798 25.2727 151.306C25.846 149.732 24.2135 152.947 25.198 151.505C25.8834 150.494 25.2354 152.168 24.7244 151.969C24.7618 151.986 25.522 151.34 25.4846 151.356C26.2572 150.743 25.7338 151.754 24.9363 151.605C25.0733 151.638 25.7214 151.224 25.7961 151.19C27.1669 150.594 28.5876 150.229 29.9958 149.848C33.3356 148.953 36.6629 148.075 40.0027 147.18C41.7225 146.716 43.4422 146.269 45.1619 145.805C45.947 145.59 46.7321 145.374 47.5172 145.175C47.9036 145.076 48.2774 144.993 48.6637 144.894C50.1093 144.529 47.754 144.943 48.6887 144.877C49.561 144.811 50.4209 144.695 51.3057 144.744C51.4552 144.744 52.4522 144.811 52.4646 144.86C52.4646 144.943 50.5829 144.363 52.1905 144.86C53.798 145.358 55.3932 145.904 56.9634 146.6C60.1412 147.992 63.2691 149.533 66.3846 151.141C67.3815 151.654 65.1882 150.428 66.1727 151.008C66.5216 151.207 66.8706 151.406 67.2071 151.621C67.9797 152.085 68.7523 152.566 69.525 153.063C70.9706 153.991 72.4037 154.985 73.7994 156.029C76.6033 158.117 79.2453 160.47 81.8872 162.889C82.6847 163.618 80.8778 161.547 81.4884 162.525C81.7501 162.939 82.1364 163.9 81.6504 162.657C81.5507 162.409 80.7158 159.84 80.9276 160.934C81.1644 162.16 80.9276 158.2 80.8404 160.072C80.8404 159.989 81.2516 157.421 80.9401 158.962C80.803 159.675 80.4042 160.321 81.2641 158.017C80.9899 158.73 80.5039 158.863 81.7501 157.239L82.6723 156.344C82.0866 156.775 82.0741 156.824 82.6349 156.476C83.3951 155.714 82.6723 156.41 82.286 156.559C81.937 156.692 81.5881 156.808 81.2392 156.924C80.479 157.172 79.7313 157.438 78.9711 157.686C77.2763 158.249 75.5815 158.829 73.8866 159.393C72.4037 159.89 70.9207 160.387 69.4253 160.801C68.6028 161.033 67.7305 161.332 66.883 161.398C67.1074 161.381 68.5654 161.182 67.1697 161.315C66.6961 161.365 66.2226 161.414 65.749 161.464C58.9822 162.044 52.1531 162.028 45.3738 162.144C41.9592 162.21 38.5322 162.193 35.1176 161.978C33.5225 161.878 31.9274 161.746 30.3323 161.547C29.9584 161.497 29.5846 161.448 29.2232 161.398C28.949 161.365 27.7402 161.182 28.8244 161.348C29.9086 161.514 28.6998 161.315 28.4381 161.265C27.8897 161.149 27.3414 161.017 26.7931 160.868C25.3226 160.47 23.9393 159.84 22.5062 159.244C21.4843 158.829 23.715 160.039 22.8427 159.443C22.556 159.244 22.257 159.078 21.9703 158.879C21.3099 158.432 20.7117 157.885 20.0761 157.404C18.6804 156.344 20.9983 158.515 20.2257 157.603C19.9889 157.322 19.7272 157.056 19.4904 156.758C19.0169 156.178 18.5932 155.532 18.157 154.902C17.4965 153.958 18.9296 156.51 18.4561 155.383C18.3065 155.002 18.1071 154.67 17.9451 154.289L17.8205 154.007C17.5339 153.229 17.5214 153.245 17.7831 154.024C18.0199 154.819 18.0199 154.819 17.7956 154.024L17.6461 153.411C17.5588 152.997 17.4965 152.566 17.4093 152.151C16.9606 150.097 17.4093 153.908 17.4467 152.549C17.4467 152.185 17.3594 149.235 17.4093 150.992C17.4467 152.417 17.4093 151.273 17.509 150.743L17.5713 150.428C17.7831 149.616 17.7707 149.616 17.5214 150.428L17.322 151.025C17.4217 150.726 17.5339 150.445 17.6585 150.18C18.3065 148.705 17.995 150.014 17.484 150.312C17.9825 150.014 18.643 148.672 19.0418 148.175C19.5403 147.561 20.0387 146.981 20.5497 146.401C21.6089 145.175 22.581 143.883 23.5281 142.507C23.7399 142.209 23.9767 141.911 24.1761 141.596C25.0858 140.188 23.8521 142.143 23.7399 141.944L24.1512 141.613C24.7244 141.231 24.7244 141.215 24.1387 141.596L23.6901 141.861C23.9269 141.762 24.1512 141.679 24.3879 141.596C24.6995 141.497 25.0235 141.43 25.3475 141.347C26.3445 141.066 23.8022 141.53 24.8241 141.447C25.6964 141.381 26.5688 141.231 27.4411 141.149C30.8183 140.834 34.1955 140.784 37.5726 140.983C39.255 141.082 40.9498 141.248 42.6322 141.48C43.031 141.53 43.4173 141.596 43.8161 141.646C44.0653 141.679 45.3489 141.878 44.3021 141.712C43.2553 141.546 44.5264 141.762 44.7881 141.811C45.2741 141.911 45.7726 142.01 46.2586 142.126C48.3023 142.574 50.1716 142.574 52.016 141.132C53.5613 139.922 55.0442 137.553 55.4555 135.183C56.278 130.394 54.3588 123.849 50.2339 122.954H50.2838Z" fill="#AAC6AF"/>
<path d="M37.2486 90.7073C35.1675 91.7181 33.5848 89.1828 32.9119 86.8794C32.6876 86.1172 32.5629 85.3881 32.8745 84.6258C33.0863 84.0956 33.4104 83.6316 33.7593 83.2339C34.4073 82.4717 35.1924 81.9248 35.9526 81.4111C37.2362 80.5495 38.6817 79.6215 39.4295 77.8982C40.0152 76.5228 40.065 74.7166 39.2425 73.507C39.1678 73.391 39.0307 73.5567 39.1055 73.6892C39.8407 74.7663 39.8158 76.324 39.3547 77.5668C38.9185 78.7267 38.1085 79.5552 37.286 80.2015C35.8529 81.3283 34.1581 82.0574 33.0739 83.8305C32.6502 84.5264 32.3885 85.2887 32.538 86.1835C32.7125 87.2274 33.1362 88.3211 33.6097 89.1828C34.4572 90.7073 35.8903 91.6684 37.2985 90.989C37.4106 90.9392 37.3608 90.6907 37.2486 90.757V90.7073Z" fill="#EEEBE7"/>
<path d="M35.4541 81.5934C37.6474 80.6158 40.0526 80.5826 42.2209 81.6763C43.841 82.4882 45.3863 84.543 47.2431 84.2116C47.9285 84.0956 48.4145 83.6482 48.8382 82.9357C49.4364 81.8917 49.9348 80.8146 50.6826 79.9364C52.3774 77.9313 54.5831 76.8708 56.8512 77.0034C56.9758 77.0034 56.9758 76.7548 56.8512 76.7548C55.0941 76.6554 53.3619 77.2519 51.8664 78.4782C51.1312 79.0747 50.4458 79.8204 49.8725 80.682C49.1373 81.7757 48.6513 83.5488 47.4923 83.9299C46.2087 84.3607 44.9999 83.3168 43.9407 82.5048C43.0933 81.8586 42.2209 81.3449 41.2738 81.03C39.3298 80.3838 37.3234 80.5163 35.4292 81.3614C35.317 81.4112 35.3669 81.6597 35.479 81.5934H35.4541Z" fill="#EEEBE7"/>
<path d="M46.1464 84.1123C45.6854 84.858 45.137 85.7859 45.3115 86.8133C45.4486 87.6584 46.0343 88.139 46.62 88.3544C47.4425 88.6527 48.2899 88.3875 49.1248 88.5532C49.5735 88.6361 50.047 88.8681 50.3087 89.3983C50.533 89.8623 50.4956 90.5251 50.1093 90.8068C50.0096 90.8897 50.1093 91.1051 50.209 91.0223C50.7823 90.608 50.7324 89.5806 50.3212 89.0172C49.7479 88.2384 48.8258 88.2384 48.0656 88.255C47.3054 88.2715 46.4206 88.2715 45.8349 87.5259C45.0498 86.5151 45.7477 85.1563 46.296 84.278C46.3708 84.162 46.2461 83.9797 46.1589 84.0957L46.1464 84.1123Z" fill="#EEEBE7"/>
<path d="M53.661 77.5502C55.443 78.8593 57.0755 80.3838 58.6208 82.1403C59.705 83.3665 60.8266 83.8637 62.1974 83.1014C63.7053 82.2729 64.6025 80.4501 65.4998 78.7268C66.6588 76.5063 68.4782 73.7556 70.7463 74.9818C70.8584 75.0481 70.9083 74.7995 70.7961 74.7498C67.3691 72.927 65.612 78.8096 63.7801 81.3283C63.132 82.2066 62.3095 82.9357 61.3874 83.1677C60.0913 83.4991 59.2315 82.4883 58.3093 81.4443C56.9011 79.8701 55.3683 78.4948 53.7607 77.3183C53.661 77.2354 53.5613 77.4508 53.661 77.5337V77.5502Z" fill="#EEEBE7"/>
<path d="M71.2946 110.261C71.0952 109.466 70.9955 108.538 71.1575 107.726C71.4317 106.35 72.5034 107.328 72.8399 108.04C73.1389 108.67 73.2137 109.366 73.4006 110.062C73.5003 110.427 73.6748 110.675 73.9864 110.609C74.4101 110.526 74.7964 109.946 75.1328 109.615C75.5815 109.167 76.08 108.687 76.6283 108.504C77.5006 108.223 78.0365 109.217 77.7997 110.294C77.6252 111.106 77.0644 111.703 76.4413 111.802C76.3417 111.802 76.3167 111.951 76.3915 112.034C77.3386 112.962 78.535 115.166 77.8495 116.79C77.4009 117.85 76.5161 117.585 75.9803 116.823C75.5939 116.259 75.3447 115.564 74.9459 115C74.9085 114.934 74.8338 114.967 74.7964 115.033C74.1982 116.226 74.1733 118.033 73.1639 118.795C72.4785 119.308 71.7432 118.679 71.5563 117.734C71.3818 116.873 71.6684 115.994 71.98 115.265C72.0174 115.166 71.9551 115.05 71.8803 115.083C71.0703 115.348 69.4004 115.663 69.3007 114.006C69.2259 112.747 70.3226 111.636 71.0329 111.04C71.1326 110.957 71.0329 110.741 70.9332 110.824C70.1356 111.487 68.8147 112.846 69.1387 114.304C69.4876 115.895 71.008 115.613 71.9177 115.315L71.818 115.133C71.4815 115.928 71.1824 116.873 71.3694 117.801C71.5064 118.496 71.9301 119.143 72.4785 119.226C74.0985 119.491 74.3228 116.392 74.9459 115.149L74.7964 115.182C75.3322 115.961 75.6438 117.071 76.379 117.569C76.9398 117.95 77.5629 117.767 77.9243 117.071C78.8216 115.332 77.5006 112.862 76.4663 111.835L76.4164 112.067C77.4632 111.918 78.4103 110.36 77.8869 108.968C77.214 107.212 75.4942 108.935 74.7715 109.664C74.6219 109.814 74.4599 110.012 74.2979 110.145C74.111 110.36 73.8742 110.377 73.6125 110.195C73.5626 110.062 73.5253 109.93 73.5128 109.797C73.4131 109.35 73.3259 108.886 73.1888 108.455C72.9645 107.775 72.6031 107.096 72.0548 106.881C70.5718 106.284 70.8584 109.35 71.1077 110.36C71.145 110.509 71.3195 110.443 71.2821 110.294L71.2946 110.261Z" fill="#EEEBE7"/>
<path d="M71.2319 110.857C71.356 110.857 71.356 110.609 71.2319 110.609C71.1078 110.609 71.1078 110.857 71.2319 110.857Z" fill="#EEEBE7"/>
<path d="M55.0193 99.8874C54.8199 99.092 54.7202 98.164 54.8822 97.3521C55.1564 95.9767 56.2281 96.9544 56.5646 97.6669C56.8637 98.2966 56.9384 98.9926 57.1254 99.6885C57.2251 100.053 57.3995 100.302 57.7111 100.235C58.1348 100.153 58.5211 99.5725 58.8576 99.2411C59.3062 98.7937 59.8047 98.3132 60.353 98.1309C61.2253 97.8492 61.7612 98.8434 61.5244 99.9205C61.35 100.732 60.7892 101.329 60.1661 101.428C60.0664 101.428 60.0415 101.578 60.1162 101.66C61.0633 102.588 62.2597 104.792 61.5743 106.416C61.1256 107.477 60.2409 107.212 59.705 106.449C59.3187 105.886 59.0694 105.19 58.6707 104.627C58.6333 104.56 58.5585 104.593 58.5211 104.66C57.9229 105.853 57.898 107.659 56.8886 108.421C56.2032 108.935 55.4679 108.305 55.281 107.361C55.1065 106.499 55.3932 105.621 55.7047 104.892C55.7421 104.792 55.6798 104.676 55.605 104.709C54.795 104.975 53.1251 105.289 53.0254 103.632C52.9506 102.373 54.0473 101.263 54.7576 100.666C54.8573 100.583 54.7576 100.368 54.6579 100.451C53.8604 101.114 52.5394 102.472 52.8634 103.931C53.2123 105.521 54.7327 105.24 55.6424 104.941L55.5427 104.759C55.2062 105.555 54.9072 106.499 55.0941 107.427C55.2312 108.123 55.6549 108.769 56.2032 108.852C57.8232 109.117 58.0476 106.018 58.6707 104.776L58.5211 104.809C59.057 105.588 59.3685 106.698 60.1038 107.195C60.6646 107.576 61.2877 107.394 61.6491 106.698C62.5463 104.958 61.2253 102.489 60.191 101.462L60.1412 101.694C61.188 101.544 62.1351 99.9868 61.6117 98.5949C60.9387 96.8384 59.219 98.5617 58.4962 99.2908C58.3466 99.44 58.1846 99.6388 58.0226 99.7714C57.8357 99.9868 57.5989 100.003 57.3372 99.8211C57.2874 99.6885 57.25 99.556 57.2375 99.4234C57.1378 98.976 57.0506 98.512 56.9135 98.0812C56.6892 97.4018 56.3278 96.7224 55.7795 96.507C54.2965 95.9104 54.5831 98.976 54.8324 99.9868C54.8698 100.136 55.0442 100.07 55.0069 99.9205L55.0193 99.8874Z" fill="#EEEBE7"/>
<path d="M54.471 119.391C54.2716 118.596 54.1719 117.668 54.3339 116.856C54.6081 115.481 55.6798 116.458 56.0162 117.171C56.3153 117.8 56.3901 118.496 56.577 119.192C56.6767 119.557 56.8512 119.806 57.1627 119.739C57.5864 119.656 57.9728 119.076 58.3092 118.745C58.7579 118.298 59.2563 117.817 59.8047 117.635C60.677 117.353 61.2129 118.347 60.9761 119.424C60.8016 120.236 60.2408 120.833 59.6177 120.932C59.518 120.932 59.4931 121.081 59.5679 121.164C60.515 122.092 61.7113 124.296 61.0259 125.92C60.5773 126.981 59.6925 126.715 59.1567 125.953C58.7703 125.39 58.5211 124.694 58.1223 124.13C58.0849 124.064 58.0102 124.097 57.9728 124.164C57.3746 125.357 57.3497 127.163 56.3403 127.925C55.6549 128.439 54.9196 127.809 54.7327 126.865C54.5582 126.003 54.8448 125.125 55.1564 124.396C55.1938 124.296 55.1315 124.18 55.0567 124.213C54.2467 124.478 52.5768 124.793 52.4771 123.136C52.4023 121.877 53.4989 120.767 54.2093 120.17C54.309 120.087 54.2093 119.872 54.1096 119.955C53.312 120.618 51.9911 121.976 52.3151 123.435C52.664 125.025 54.1843 124.744 55.0941 124.445L54.9944 124.263C54.6579 125.058 54.3588 126.003 54.5457 126.931C54.6828 127.627 55.1065 128.273 55.6549 128.356C57.2749 128.621 57.4992 125.522 58.1223 124.28L57.9728 124.313C58.5086 125.092 58.8202 126.202 59.5554 126.699C60.1162 127.08 60.7393 126.898 61.1007 126.202C61.998 124.462 60.677 121.993 59.6427 120.965L59.5928 121.197C60.6396 121.048 61.5867 119.491 61.0633 118.099C60.3904 116.342 58.6706 118.066 57.9478 118.795C57.7983 118.944 57.6363 119.143 57.4743 119.275C57.2874 119.491 57.0506 119.507 56.7889 119.325C56.739 119.192 56.7017 119.06 56.6892 118.927C56.5895 118.48 56.5023 118.016 56.3652 117.585C56.1409 116.906 55.7795 116.226 55.2311 116.011C53.7482 115.414 54.0348 118.48 54.284 119.491C54.3214 119.64 54.4959 119.574 54.4585 119.424L54.471 119.391Z" fill="#EEEBE7"/>
<path d="M33.3481 106.814C33.5599 106.068 33.8964 105.306 34.3699 104.809C35.2173 103.931 35.666 105.356 35.6037 106.284C35.5663 106.731 35.4666 107.179 35.342 107.593C35.2423 107.908 35.0803 108.239 35.0304 108.587C34.9806 108.952 35.0803 109.233 35.3295 109.383C35.7158 109.615 36.2517 109.515 36.6629 109.532C37.2611 109.565 37.959 109.598 38.4824 110.045C39.2425 110.692 38.9061 111.934 38.2207 112.415C37.6973 112.78 37.0742 112.73 36.5881 112.316C36.5134 112.249 36.4261 112.349 36.4511 112.448C36.7377 113.939 36.6505 116.425 35.479 117.27C34.7313 117.817 34.0335 117.171 33.8964 116.16C33.7718 115.298 33.9711 114.42 33.9338 113.558C33.9338 113.475 33.8715 113.409 33.8216 113.442C32.7997 113.873 31.9399 115.215 30.8058 115.017C30.0083 114.867 29.7092 113.807 30.0083 112.879C30.2824 112.05 30.9055 111.603 31.5037 111.288C31.566 111.255 31.6034 111.106 31.5286 111.056C30.7684 110.576 29.3229 109.465 30.0207 108.057C30.5566 106.98 31.9772 107.063 32.7997 107.195C32.9243 107.212 32.9119 106.963 32.7997 106.947C31.89 106.798 30.2575 106.748 29.7839 108.107C29.2481 109.648 30.5815 110.725 31.4289 111.272L31.4538 111.04C30.8432 111.354 30.2201 111.802 29.8961 112.581C29.6344 113.227 29.6095 114.105 29.9709 114.685C31.0551 116.392 32.7997 114.105 33.8715 113.658L33.7593 113.542C33.8091 114.602 33.5101 115.729 33.859 116.756C34.1207 117.519 34.6939 117.883 35.3046 117.651C36.8125 117.038 36.962 114.039 36.6505 112.382L36.5134 112.514C37.3857 113.26 38.7814 112.862 39.093 111.437C39.5167 109.515 37.4106 109.316 36.4885 109.267C35.9401 109.25 35.0055 109.399 35.3918 108.107C35.5413 107.593 35.7158 107.096 35.7781 106.532C35.8529 105.886 35.8155 105.174 35.4915 104.66C34.5818 103.235 33.4477 105.803 33.1736 106.731C33.1362 106.88 33.3107 106.947 33.3481 106.798V106.814Z" fill="#EEEBE7"/>
<path d="M115.746 99.5896L118.525 104.229L132.782 128.124L221.037 31.2027L220.077 29.0154L224.763 23.5305L209.771 1.95557L205.696 5.96565L202.818 3.41378L115.746 99.5896Z" fill="#AAC6AF"/>
<path d="M88.7911 146.202L96.1187 157.122L100.194 151.654L115.746 146.202L131.673 126.268L117.404 102.356L99.7077 121.86L91.0716 142.474L88.7911 146.202Z" fill="#AAC6AF"/>
<path d="M94.3864 154.537C94.3864 154.537 88.9655 161.414 84.9154 158.183C80.8653 154.951 89.8503 147.793 89.8503 147.793L94.374 154.554L94.3864 154.537Z" fill="#EEEBE7"/>
<path d="M131.473 95.0653L136.657 105.77L200.076 40.9457L193.209 29.4126L131.473 95.0653Z" fill="#EEEBE7"/>
<path d="M36.4383 107.245C36.5376 107.245 36.5376 107.046 36.4383 107.046C36.339 107.046 36.339 107.245 36.4383 107.245Z" fill="white"/>
<path d="M43.6665 81.7262C43.4297 81.2954 43.4671 80.7154 43.492 80.2017C43.517 79.688 43.6042 79.2075 43.7163 78.7269C43.8285 78.2464 43.9656 77.7658 44.14 77.3184C44.2148 77.103 44.3021 76.8876 44.4018 76.6887C44.4765 76.523 44.6385 75.9928 44.7756 76.3242C44.9625 76.7882 45.0248 77.3847 45.0747 77.915C45.1245 78.4452 45.1121 78.9258 45.0747 79.4229C45.0373 79.8869 44.9501 80.3508 44.7881 80.7651C44.6261 81.1794 44.3145 81.7925 43.9033 81.809C43.8036 81.809 43.8036 82.0079 43.9033 82.0079C44.5014 81.9913 44.9002 81.0468 45.0622 80.384C45.2865 79.4892 45.299 78.4949 45.1993 77.567C45.1619 77.2687 44.8878 75.3299 44.489 76.1585C44.0902 76.987 43.7662 77.8984 43.5668 78.8429C43.4546 79.3566 43.3799 79.8869 43.3674 80.4337C43.3425 80.9142 43.3425 81.4445 43.5668 81.8422C43.6166 81.9416 43.7537 81.8422 43.6914 81.7428L43.6665 81.7262Z" fill="#EEEBE7"/>
<path d="M50.9194 79.4728C50.5704 79.4728 50.3835 79.0752 50.2464 78.694C50.1093 78.2963 49.9847 77.8986 49.8726 77.4844C49.6607 76.689 49.5236 75.8605 49.4489 75.0154L49.3741 75.1148C49.5486 75.0816 49.7355 75.3799 49.8601 75.529C49.9723 75.6616 50.072 75.7942 50.1592 75.9433C50.3835 76.3079 50.5206 76.7221 50.6078 77.1861C50.7823 78.1306 50.8446 79.1083 50.8072 80.0694C50.8072 80.202 50.9567 80.202 50.9567 80.0694C50.9941 78.9923 50.9318 77.8158 50.6701 76.7718C50.558 76.341 50.371 75.9433 50.1343 75.6119C50.0096 75.4462 49.885 75.2805 49.7479 75.1313C49.6358 75.0154 49.5236 74.8828 49.3741 74.8994C49.3367 74.8994 49.2993 74.9491 49.2993 74.9988C49.3865 75.9764 49.561 76.9375 49.8227 77.8655C50.0096 78.5283 50.2589 79.6386 50.9194 79.6551C51.0191 79.6551 51.0191 79.4563 50.9194 79.4563V79.4728Z" fill="#EEEBE7"/>
<path d="M58.4962 80.9973C58.2968 80.119 58.4089 79.1911 58.6831 78.346C58.8077 77.9649 58.9697 77.6003 59.1442 77.2523C59.2314 77.07 59.3311 76.9043 59.4433 76.7552C59.4931 76.6889 59.5804 76.5564 59.6427 76.5398C59.7798 76.5066 59.7673 76.6392 59.7673 76.7718C59.7922 77.6334 59.7673 78.5117 59.6053 79.3568C59.4682 80.1025 59.219 81.0801 58.6333 81.395C58.546 81.4447 58.5834 81.627 58.6706 81.5938C59.1567 81.3287 59.4308 80.699 59.6053 80.0528C59.8296 79.2739 59.8919 78.4288 59.9168 77.5837C59.9168 77.3683 59.9168 77.1529 59.9168 76.954C59.9168 76.8049 59.9293 76.6226 59.8794 76.4735C59.7922 76.1918 59.6177 76.2912 59.4807 76.4404C59.032 76.8878 58.733 77.6832 58.5211 78.346C58.2469 79.2077 58.1472 80.1522 58.3466 81.047C58.3716 81.163 58.5211 81.1133 58.4962 80.9973Z" fill="#EEEBE7"/>
<path d="M65.8986 78.1469C64.9141 78.2298 64.5277 76.4899 64.3782 75.4791C64.2037 74.3025 64.104 73.126 63.8797 71.9661L63.7676 72.0821C65.3627 73.5237 65.425 76.3242 65.5995 78.6275C65.5995 78.76 65.7615 78.76 65.749 78.6275C65.5745 76.2413 65.4998 73.3912 63.8423 71.9164C63.78 71.8667 63.7177 71.9495 63.7302 72.0324C63.8673 72.7283 63.967 73.4243 64.0542 74.1368C64.129 74.7831 64.1913 75.4459 64.3284 76.0922C64.5277 77.0698 64.9888 78.4452 65.8986 78.3623C65.9982 78.3623 65.9982 78.1469 65.8986 78.1635V78.1469Z" fill="#EEEBE7"/>
<path d="M69.8988 74.9155C69.6621 76.2743 70.0733 77.716 70.9456 78.4948C71.145 78.6771 71.3693 78.8096 71.5937 78.909C71.7307 78.9753 71.9675 79.1079 72.0049 78.8428C72.0298 78.6605 72.0049 78.4616 71.9924 78.2794C71.98 78.0805 71.9551 77.8817 71.9177 77.6828C71.8554 77.2851 71.7806 76.8874 71.6934 76.4897C71.5313 75.7606 71.2447 75.015 70.7089 74.7001C70.6216 74.6504 70.5469 74.8161 70.6341 74.8658C71.0703 75.1309 71.332 75.6778 71.4815 76.2577C71.656 76.8874 71.7806 77.5668 71.8429 78.2296C71.8554 78.3954 71.8429 78.5611 71.8678 78.7268C71.8678 78.7268 71.8678 78.8262 71.8678 78.793C71.8678 78.7765 71.8554 78.7931 71.8304 78.7765C71.7806 78.7599 71.7183 78.7433 71.6684 78.7268C71.4566 78.6439 71.2572 78.5114 71.0703 78.3622C70.7089 78.0474 70.3973 77.6165 70.2104 77.1028C69.9611 76.44 69.9113 75.6778 70.0359 74.9652C70.0608 74.8327 69.9113 74.783 69.8864 74.9155H69.8988Z" fill="#EEEBE7"/>
<path d="M49.8352 88.3547C49.7355 87.5759 49.7604 86.7639 49.9099 86.0017C49.9847 85.6205 50.0844 85.2394 50.209 84.8749C50.2713 84.7092 50.3336 84.5434 50.3959 84.3943C50.4333 84.3115 50.4707 84.1789 50.5455 84.1457C50.5953 84.096 50.6203 84.1126 50.6078 84.212C50.6078 84.2783 50.6327 84.328 50.6452 84.3943C50.7823 85.256 50.8196 86.1674 50.72 87.0456C50.6327 87.8079 50.371 88.653 49.7479 88.8352C49.6482 88.8684 49.6981 89.0506 49.7853 89.0341C50.9567 88.6861 50.9817 86.5485 50.8944 85.3057C50.8695 84.908 50.8196 84.4937 50.7449 84.1126C50.695 83.8806 50.5704 83.7481 50.4333 83.9635C50.2589 84.212 50.1467 84.5932 50.0345 84.8914C49.9224 85.2228 49.8227 85.5874 49.7604 85.9519C49.6108 86.7639 49.5859 87.5924 49.6856 88.421C49.6981 88.5535 49.8476 88.4873 49.8352 88.3713V88.3547Z" fill="#EEEBE7"/>
<path d="M34.1955 82.3063C33.1113 81.4115 31.7903 81.0966 30.5441 81.4612C30.2575 81.544 29.921 81.6435 29.6593 81.8423C29.4849 81.9749 29.5223 82.1737 29.6843 82.3063C30.2451 82.7206 30.9678 82.9028 31.6034 82.9857C32.3885 83.0851 33.1861 82.9525 33.9338 82.6377C34.021 82.6046 33.9836 82.4057 33.8964 82.4389C33.1861 82.7537 32.4259 82.8697 31.6782 82.8034C31.2919 82.7703 30.918 82.6708 30.5441 82.5383C30.3697 82.472 30.1952 82.3891 30.0207 82.3063C29.9709 82.2731 29.6718 82.1903 29.7341 82.0412C29.759 81.9914 29.9709 81.9086 30.0207 81.892C31.3666 81.2623 32.9119 81.4943 34.1207 82.5051C34.2079 82.5714 34.2827 82.4057 34.1955 82.3394V82.3063Z" fill="#EEEBE7"/>
<path d="M33.9961 89.7628C33.2858 90.7901 33.1362 92.3643 33.5973 93.6071C33.6222 93.6568 33.6845 93.6734 33.7095 93.6237C34.3201 92.7123 34.7064 91.5689 34.7937 90.3593C34.7937 90.2267 34.6566 90.2267 34.6441 90.3593C34.5569 91.5192 34.1955 92.6129 33.6098 93.4911H33.7219C33.2858 92.3478 33.4353 90.873 34.0958 89.8953C34.1581 89.7959 34.0584 89.6633 33.9961 89.7628Z" fill="#EEEBE7"/>
</svg>
