<svg width="249" height="167" viewBox="0 0 249 167" fill="none" xmlns="http://www.w3.org/2000/svg">
<path d="M37.2227 135.628C36.8432 135.628 36.4367 135.658 36.0709 135.567C36.6129 135.688 35.8947 135.507 35.7999 135.492C35.6102 135.447 35.4205 135.387 35.2443 135.327C35.0682 135.267 34.8785 135.191 34.7023 135.116C35.1495 135.312 34.5939 135.056 34.499 134.996C34.1196 134.785 33.7673 134.53 33.4286 134.259V138.154C33.7809 137.944 34.1467 137.733 34.5126 137.538C34.621 137.477 34.7294 137.432 34.8243 137.372C34.6074 137.477 34.6074 137.477 34.8243 137.372C34.9869 137.297 35.1495 137.237 35.3121 137.162C36.098 136.846 36.8974 136.59 37.724 136.395C37.9273 136.349 38.117 136.304 38.3202 136.274C38.4286 136.259 38.5506 136.229 38.659 136.214C38.4286 136.244 38.388 136.259 38.5506 136.229C38.9571 136.184 39.35 136.139 39.7566 136.124C40.5831 136.079 41.4232 136.124 42.2498 136.199C43.3067 136.319 44.323 135.071 44.2824 133.943C44.2282 132.62 43.388 131.823 42.2498 131.687C38.4964 131.266 34.6888 132.229 31.396 134.244C30.7727 134.62 30.3933 135.417 30.3933 136.199C30.3933 137.056 30.7998 137.673 31.396 138.154C33.0763 139.493 35.1901 140.2 37.2498 140.139C38.3067 140.109 39.3365 139.117 39.2823 137.883C39.2281 136.65 38.388 135.597 37.2498 135.628H37.2227Z" fill="#AAC6AF"/>
<path d="M24.4447 135.928C24.0788 136.169 23.713 136.379 23.32 136.56L25.7455 135.417C25.0951 135.702 24.4447 135.898 23.7672 136.033L26.4637 135.627C25.6371 135.748 24.8377 135.763 23.9975 135.672L26.6941 136.078C25.7184 135.928 24.8106 135.657 23.8891 135.251L26.3146 136.394C25.7997 136.139 25.3255 135.823 24.8241 135.522C23.442 134.68 26.9244 137.673 25.2306 135.823C23.5368 133.973 26.2333 137.808 25.4745 136.274C25.19 135.702 24.9054 135.161 24.6751 134.544L25.7049 137.237C25.4474 136.454 25.2577 135.687 25.1493 134.86L25.5152 137.853C25.4745 137.447 25.4881 137.041 25.5287 136.635C25.4068 137.628 25.2848 138.635 25.1629 139.628C25.2713 138.981 25.4339 138.41 25.6371 137.793L24.6073 140.485C25.3255 138.71 26.0978 136.921 27.0599 135.281C27.2496 134.966 27.4664 134.665 27.629 134.349C26.2875 136.815 26.545 135.853 27.1548 135.161C28.4962 133.657 26.3959 135.612 26.3824 135.718C26.3824 135.492 27.5206 135.041 27.6561 134.966L25.2306 136.109C25.7726 135.898 26.2875 135.748 26.8567 135.642L24.1601 136.048C25.0951 135.943 26.003 135.973 26.938 136.094L24.2414 135.687C27.6019 136.229 30.9217 137.342 34.3635 137.252C39.4449 137.101 43.6726 133.071 44.3501 127.476C45.0276 121.881 42.0059 116.452 37.0736 115.098C36.0979 114.827 35.1359 114.572 34.1603 114.301C33.2659 121.686 32.3581 129.07 31.4637 136.454C33.1304 136.379 34.7836 136.47 36.4367 136.71L33.7402 136.304C37.5749 136.936 41.2335 138.319 44.7972 139.974L42.3717 138.831C48.117 141.538 53.6456 144.726 59.4451 147.313C61.9654 148.426 64.54 149.404 67.1958 150.02C70.8409 150.877 74.4859 150.908 78.158 151.359L75.4615 150.953C76.1932 151.088 76.8843 151.253 77.5754 151.539L75.1499 150.396C75.5835 150.607 77.2502 151.84 75.7325 150.547C74.9737 149.855 74.8653 149.78 75.4073 150.351C74.3639 148.712 74.0929 148.396 74.5943 149.389L73.5645 146.696C73.6729 146.952 73.7406 147.223 73.7813 147.509C73.6593 146.516 73.5374 145.508 73.4154 144.516C73.4561 144.801 73.4561 145.087 73.429 145.358L73.7948 142.365L73.7135 142.756L74.7434 140.064C75.7461 138.996 76.7488 137.913 77.7515 136.845L80.177 135.702L79.7705 135.808L82.467 135.402C75.2718 135.522 68.036 135.071 60.8543 134.905C61.7486 142.29 62.6565 149.674 63.5508 157.059C66.0305 156.668 68.5102 156.292 70.9899 155.901C73.3206 155.54 75.9358 152.863 77.0605 150.712C78.3342 148.291 78.8762 144.726 78.0903 142.019C77.2908 139.297 75.7732 136.65 73.4154 135.281C70.8273 133.762 68.456 133.702 65.5834 134.138C63.1037 134.529 60.624 134.905 58.1443 135.296C55.9085 135.642 53.09 138.334 52.0737 140.485C50.9897 142.756 50.5561 145.117 50.8678 147.674C51.5453 153.254 55.7459 157.329 60.8543 157.45C65.0549 157.555 69.2419 157.645 73.4425 157.751C79.0388 157.886 86.234 159.285 90.4481 154.201C96.3832 147.027 93.5647 136.755 86.8302 131.762C82.4399 128.498 77.3315 128.98 72.3585 128.303L75.055 128.709C71.0035 128.077 67.1552 126.619 63.4018 124.874L65.8273 126.017C54.7431 120.753 43.9571 113.308 31.4367 113.865C26.3553 114.091 22.1412 117.986 21.4501 123.641C20.759 129.296 23.7943 134.665 28.7266 136.018C29.7022 136.289 30.6643 136.545 31.6399 136.815C32.5342 129.431 33.4421 122.046 34.3364 114.662C33.564 114.677 32.8188 114.632 32.0464 114.542L34.7429 114.948C31.5857 114.436 28.442 113.339 25.2306 113.384C20.7319 113.444 16.8565 115.249 13.469 118.467C11.3687 120.467 9.72909 123.174 8.42827 125.882C6.63963 129.626 5.0407 133.522 5.13555 137.853C5.2846 145.192 9.7833 152.412 15.637 155.66C21.6804 159.014 28.713 159.209 34.6481 155.389C39.2416 152.427 41.2606 145.072 38.2931 139.959C35.2985 134.815 29.3093 132.74 24.3905 135.913L24.4447 135.928Z" fill="#AAC6AF"/>
<path d="M74.2149 114.106C78.0632 114.361 81.9114 114.557 85.7733 114.722C86.8302 114.767 87.86 113.654 87.8058 112.466C87.7516 111.203 86.9115 110.256 85.7733 110.21C81.925 110.045 78.0632 109.849 74.2149 109.594C73.158 109.519 72.1417 110.677 72.1823 111.85C72.2365 113.128 73.0767 114.03 74.2149 114.106Z" fill="#AAC6AF"/>
<path d="M73.1851 109.91C72.7514 109.263 72.3178 108.601 71.8842 107.954C71.7623 107.699 71.5861 107.473 71.3558 107.323C71.1661 107.127 70.9357 106.992 70.6647 106.917C70.3937 106.826 70.1227 106.811 69.8517 106.872C69.5807 106.872 69.3232 106.977 69.0929 107.142L68.6864 107.488C68.4289 107.774 68.2663 108.105 68.1579 108.481L68.0901 109.082C68.0901 109.488 68.185 109.864 68.3612 110.225C68.7948 110.872 69.2284 111.534 69.662 112.181C69.7839 112.436 69.9601 112.662 70.1904 112.812C70.3801 113.008 70.6105 113.143 70.8815 113.218C71.1525 113.309 71.4235 113.324 71.6945 113.263C71.9655 113.263 72.223 113.158 72.4533 112.993L72.8598 112.647C73.1173 112.361 73.2799 112.03 73.3883 111.654L73.4561 111.053C73.4561 110.646 73.3612 110.271 73.1851 109.91Z" fill="#AAC6AF"/>
<path d="M52.5073 106.119L52.1686 101.337L52.006 98.9907L51.9247 97.8627C51.9247 97.6973 51.9247 97.5318 51.8976 97.3664C51.8976 97.1258 51.8976 97.201 51.8569 97.607C51.6808 97.953 51.6537 98.0432 51.7756 97.8627L51.0439 98.6749C49.9734 99.5472 48.5506 97.8627 49.3366 98.6147C49.4314 98.72 49.5398 98.8102 49.6347 98.9155C49.8244 99.126 50.0141 99.3366 50.1902 99.5622C50.2851 99.6675 50.3664 99.7878 50.4477 99.9081C50.5019 99.9683 50.7051 100.329 50.5425 100.028C50.3799 99.7276 50.6238 100.164 50.6645 100.224C50.7458 100.344 50.8135 100.48 50.8948 100.6C51.1794 101.096 51.4368 101.608 51.6537 102.134C51.6808 102.209 51.7079 102.269 51.735 102.345C51.8027 102.495 51.7756 102.435 51.6672 102.164C51.7485 102.239 51.7892 102.495 51.8163 102.6C51.9111 102.886 51.9924 103.187 52.0737 103.473C52.3718 104.6 53.5236 105.428 54.5805 105.052C55.6374 104.676 56.315 103.488 56.0033 102.269C55.5968 100.675 54.9599 99.111 54.0792 97.7725C53.09 96.2685 51.4911 93.8622 49.5669 94.5089C47.2363 95.2909 47.9273 98.4944 48.0764 100.495L48.4829 106.119C48.5642 107.293 49.3637 108.436 50.5154 108.375C51.5452 108.33 52.6428 107.383 52.548 106.119H52.5073Z" fill="#AAC6AF"/>
<path d="M52.1957 109.188H53.7811C54.0656 109.188 54.3231 109.128 54.567 108.992C54.8244 108.902 55.0412 108.752 55.2174 108.526C55.4207 108.315 55.5562 108.075 55.6375 107.804C55.7594 107.533 55.8272 107.248 55.8136 106.932L55.7459 106.33C55.651 105.954 55.4749 105.623 55.2174 105.338L54.8109 104.992C54.4992 104.781 54.1469 104.691 53.7811 104.691H52.1957C51.9111 104.691 51.6537 104.751 51.4098 104.886C51.1523 104.977 50.9355 105.127 50.7594 105.353C50.5561 105.563 50.4206 105.804 50.3393 106.075C50.2174 106.345 50.1496 106.631 50.1631 106.947L50.2309 107.548C50.3258 107.924 50.5019 108.255 50.7594 108.541L51.1659 108.887C51.4775 109.098 51.8298 109.188 52.1957 109.188Z" fill="#AAC6AF"/>
<path d="M41.9923 79.5749C44.6076 79.5749 44.6076 75.063 41.9923 75.063C39.3771 75.063 39.3771 79.5749 41.9923 79.5749Z" fill="#AAC6AF"/>
<path d="M62.0739 75.3637L60.2852 74.4764C60.0549 74.311 59.7974 74.2207 59.5264 74.2057C59.2554 74.1455 58.9844 74.1455 58.7134 74.2508C58.4424 74.326 58.212 74.4614 58.0223 74.6569C57.8055 74.8223 57.6294 75.0329 57.4939 75.2885L57.2906 75.83C57.1958 76.236 57.1958 76.6271 57.2906 77.0331L57.4939 77.5746C57.67 77.9205 57.9139 78.1761 58.2256 78.3867L60.0142 79.274C60.2446 79.4395 60.502 79.5297 60.773 79.5448C61.044 79.6049 61.3151 79.6049 61.5861 79.4996C61.8571 79.4244 62.0874 79.2891 62.2771 79.0936C62.4939 78.9281 62.6701 78.7176 62.8056 78.4619L63.0088 77.9205C63.1037 77.5144 63.1037 77.1234 63.0088 76.7173L62.8056 76.1759C62.6294 75.83 62.3855 75.5743 62.0739 75.3637Z" fill="#AAC6AF"/>
<path d="M51.5046 118.918L51.5317 118.663L51.2607 119.806L51.3827 119.595L50.651 120.407C50.9084 120.197 52.4667 120.302 53.0765 120.302C54.1876 120.302 55.3123 120.317 56.4234 120.467C58.5508 120.753 60.6104 121.52 62.643 122.257C66.3151 123.581 68.3476 126.949 70.3666 130.393C71.7759 132.83 75.2989 130.559 73.8762 128.123C72.5347 125.836 71.1661 123.475 69.391 121.58C67.4262 119.475 65.1498 118.407 62.5888 117.52C59.811 116.557 57.0467 115.895 54.1469 115.82C51.6266 115.76 47.8325 115.249 47.4667 118.948C47.3447 120.167 48.4829 121.204 49.4992 121.204C50.7052 121.204 51.4098 120.167 51.5317 118.948L51.5046 118.918Z" fill="#AAC6AF"/>
<path d="M23.6994 123.566C23.6994 121.716 27.4258 120.633 28.6724 120.362C31.125 119.821 33.686 120.272 36.125 120.648C41.1251 121.4 46.1387 122.167 51.1388 122.919C56.1117 123.671 61.0711 124.423 66.0441 125.175C70.6241 125.867 75.5293 126.198 79.8112 128.273C81.7895 129.236 84.0524 126.664 82.2773 124.724C78.7407 120.858 74.2691 116.738 68.9709 118.347C66.8977 118.979 67.1958 121.941 68.9709 122.693C75.9087 125.641 82.0741 130.394 87.2096 136.334C89.0253 138.44 91.898 135.236 90.0823 133.146C84.4454 126.619 77.6567 121.58 70.0549 118.347V122.693C73.7406 121.58 77.0333 125.31 79.4046 127.912C80.2312 126.724 81.0442 125.551 81.8708 124.363C76.803 121.911 71.2609 121.445 65.8408 120.618C60.0006 119.73 54.1469 118.858 48.3067 117.971C45.4747 117.55 42.6427 117.114 39.8243 116.692C37.0058 116.271 33.8757 115.58 30.8946 115.625C26.7753 115.685 19.6479 117.835 19.6343 123.581C19.6343 126.483 23.6859 126.483 23.6994 123.581V123.566Z" fill="#AAC6AF"/>
<path d="M56.9654 74.04H55.1497C54.8787 74.04 54.6348 74.2957 54.6348 74.6115C54.6348 74.9274 54.8516 75.1831 55.1497 75.1831H56.9654C57.2364 75.1831 57.4803 74.9274 57.4803 74.6115C57.4803 74.2957 57.2635 74.04 56.9654 74.04Z" fill="#AAC6AF"/>
<path d="M61.044 74.085C61.6944 74.085 61.6944 72.957 61.044 72.957C60.3936 72.957 60.3936 74.085 61.044 74.085Z" fill="#AAC6AF"/>
<path d="M58.0901 108C58.0223 107.864 57.9546 107.714 57.8868 107.563L57.941 107.699C57.8191 107.368 57.7378 107.022 57.6836 106.676V106.826C57.6836 106.676 57.6836 106.541 57.6836 106.39C57.6836 106.09 57.4532 105.819 57.1687 105.819C56.8841 105.819 56.6537 106.059 56.6537 106.39C56.6673 107.157 56.857 107.909 57.2093 108.571C57.3448 108.827 57.67 108.932 57.9004 108.767C58.1307 108.601 58.2256 108.27 58.0765 108H58.0901Z" fill="#AAC6AF"/>
<path d="M60.3665 108.315C61.0169 108.315 61.0169 107.188 60.3665 107.188C59.7161 107.188 59.7161 108.315 60.3665 108.315Z" fill="#AAC6AF"/>
<path d="M60.3665 108.044C61.0169 108.044 61.0169 106.917 60.3665 106.917C59.7161 106.917 59.7161 108.044 60.3665 108.044Z" fill="#AAC6AF"/>
<path d="M64.2148 108.857C64.8652 108.857 64.8652 107.729 64.2148 107.729C63.5644 107.729 63.5644 108.857 64.2148 108.857Z" fill="#AAC6AF"/>
<path d="M66.9384 108.586C67.5888 108.586 67.5888 107.458 66.9384 107.458C66.288 107.458 66.288 108.586 66.9384 108.586Z" fill="#AAC6AF"/>
<path d="M57.4126 108.315C58.063 108.315 58.063 107.188 57.4126 107.188C56.7621 107.188 56.7621 108.315 57.4126 108.315Z" fill="#AAC6AF"/>
<path d="M38.1847 100.69C38.2389 99.9684 38.1711 99.2315 37.9543 98.5397L37.4665 99.2465C37.5885 99.2465 37.3581 99.2014 37.4394 99.2465C37.4394 99.2465 37.4665 99.2465 37.4801 99.2465C37.5207 99.2616 37.5072 99.2465 37.4123 99.2164C37.4123 99.2164 37.4665 99.2616 37.4801 99.2616C37.3988 99.1864 37.3852 99.1713 37.4259 99.2164C37.4259 99.2164 37.4394 99.2315 37.453 99.2465C37.5343 99.3368 37.3988 99.1412 37.4394 99.2164C37.4394 99.2465 37.4665 99.2766 37.4801 99.2916C37.5072 99.3368 37.5072 99.412 37.4665 99.2465C37.4665 99.2766 37.4801 99.3067 37.4936 99.3368C37.5072 99.3668 37.4936 99.3969 37.5072 99.427C37.5207 99.5172 37.5072 99.2616 37.5072 99.3969C37.5072 99.4721 37.5072 99.5323 37.5072 99.5924C37.5072 99.412 37.5072 99.4872 37.5072 99.5473C37.5072 99.5774 37.5072 99.6075 37.4801 99.6376C37.4665 99.6977 37.4123 99.7579 37.4801 99.6225C37.4665 99.6526 37.453 99.6827 37.4394 99.7128C37.3717 99.8331 37.5072 99.6376 37.453 99.6977C37.453 99.6977 37.3988 99.7428 37.3852 99.7729C37.4665 99.7127 37.4801 99.6977 37.4259 99.7278C37.4259 99.7278 37.3988 99.7428 37.3852 99.7579C37.3581 99.7729 37.3175 99.788 37.2904 99.818C37.3717 99.788 37.3852 99.7729 37.331 99.803C37.3175 99.803 37.2904 99.803 37.2768 99.818C37.2633 99.818 37.2362 99.818 37.2226 99.818C37.1684 99.818 37.182 99.818 37.2768 99.818C37.2497 99.818 37.1955 99.818 37.1684 99.818C37.1549 99.818 37.1278 99.818 37.1142 99.818C37.06 99.818 37.0736 99.818 37.1684 99.818C37.1142 99.788 37.0329 99.788 36.9652 99.7579C36.9516 99.7579 36.9245 99.7428 36.911 99.7278C36.9787 99.7579 36.9923 99.7729 36.9516 99.7428C36.911 99.7278 36.8839 99.6977 36.8432 99.6827C36.8026 99.6676 36.7755 99.6376 36.7348 99.6075C36.6942 99.5774 36.6941 99.5774 36.7619 99.6376C36.7484 99.6376 36.7348 99.6075 36.7077 99.5924C36.64 99.5323 36.5857 99.4721 36.5315 99.3969L36.0437 100.344C36.2334 100.39 36.4231 100.45 36.6128 100.51C36.7077 100.54 36.8026 100.585 36.8974 100.63C36.9516 100.66 36.9381 100.645 36.8839 100.63C36.911 100.63 36.9245 100.645 36.9516 100.66C36.9923 100.675 37.0329 100.705 37.0736 100.72C37.2497 100.811 37.4123 100.916 37.5885 101.036C37.6698 101.096 37.7511 101.157 37.8459 101.217C37.8866 101.247 37.9272 101.277 37.9679 101.322C38.0085 101.352 38.0085 101.352 37.9679 101.322C37.9814 101.337 38.0085 101.352 38.0221 101.367C38.1305 101.457 38.2389 101.533 38.3879 101.533C38.5099 101.533 38.6589 101.472 38.7538 101.367C38.9164 101.157 38.9706 100.766 38.7538 100.57C38.0492 99.9383 37.2362 99.4872 36.3554 99.2766C36.1386 99.2315 35.8947 99.3067 35.7863 99.5323C35.6779 99.7579 35.7185 100.014 35.8676 100.209C36.3554 100.856 37.2633 101.202 37.9543 100.75C38.5641 100.344 38.6996 99.4571 38.415 98.7653C38.2524 98.3742 37.9137 98.1186 37.5207 98.1035C37.1955 98.1035 36.9245 98.4795 37.0329 98.8104C37.0736 98.9608 37.1142 99.1262 37.1549 99.2916C37.1684 99.3668 37.182 99.4571 37.1955 99.5323C37.1955 99.5624 37.2091 99.6075 37.2091 99.6376C37.2091 99.5022 37.2091 99.6375 37.2091 99.6676C37.2362 99.9985 37.2362 100.329 37.2091 100.66C37.182 100.961 37.4665 101.232 37.724 101.232C38.0221 101.232 38.2118 100.976 38.2389 100.66L38.1847 100.69Z" fill="#AAC6AF"/>
<path d="M39.0383 101.247C39.6888 101.247 39.6888 100.119 39.0383 100.119C38.3879 100.119 38.3879 101.247 39.0383 101.247Z" fill="#AAC6AF"/>
<path d="M34.2009 80.8831C42.5479 79.695 51.0845 78.943 59.3502 77.1533C63.0088 76.3562 66.437 74.7921 69.9601 73.4686C70.8138 73.1528 71.681 72.852 72.5617 72.5812C72.9411 72.4609 73.3341 72.3557 73.7135 72.2654C73.6729 72.2654 75.3395 71.9045 74.6349 72.0398C74.0116 72.1601 75.1498 71.9947 75.2718 71.9797C75.7596 71.9496 76.2339 71.9345 76.7217 71.9496C77.1011 71.9496 77.5076 71.9646 77.8735 72.0398C77.3179 71.9646 77.2637 71.9797 77.6973 72.0699C78.6594 72.3406 78.1445 71.9797 76.1797 70.9871L74.6078 67.9942L74.6891 68.4303V64.8358C74.8382 64.3395 76.3965 62.4897 75.1092 63.5124C74.8653 63.7079 74.6485 63.9786 74.4181 64.2042C73.8761 64.7306 73.3341 65.257 72.7921 65.7833C71.6268 66.8963 70.4343 67.9942 69.2148 69.0469C69.12 69.1221 68.1172 69.9944 68.6186 69.5733C69.0522 69.1973 68.2392 69.8892 68.2527 69.8741C67.6836 70.3554 67.1145 70.8216 66.5319 71.2878C65.353 72.2353 64.1606 73.1528 62.8868 73.9198C62.5481 74.1303 62.2093 74.3259 61.857 74.5063C62.1145 74.371 62.8597 74.1454 61.6809 74.5665C61.1117 74.777 60.5426 74.9726 59.9464 75.1229C59.5535 75.2282 59.1605 75.3034 58.7675 75.3786C59.025 75.3185 59.8516 75.2733 58.5914 75.3937C57.7919 75.4689 56.9789 75.529 56.1659 75.5441C53.1713 75.6343 50.1631 75.514 47.1685 75.3335C46.4368 75.2884 45.6915 75.2433 44.9598 75.1681C44.6482 75.138 44.3365 75.1079 44.0113 75.0628C43.8758 75.0478 42.5885 74.8522 43.2525 74.9726C43.8487 75.0778 42.8324 74.8823 42.8189 74.8823C42.4124 74.7921 41.9923 74.7169 41.5858 74.6116C40.9218 74.4612 40.2985 74.2206 39.6481 74.0401C39.3364 73.9499 38.6589 73.5137 39.7972 74.1604C39.5939 74.0401 39.3771 73.9348 39.1738 73.8145C38.9028 73.6491 38.6454 73.4536 38.3744 73.3032C37.8053 72.9873 38.6454 73.5287 38.7131 73.619C38.6047 73.4686 38.0898 73.0926 38.0898 72.9422C38.0898 72.9272 38.7944 73.995 38.4286 73.3483C38.0356 72.6565 38.6047 74.1755 38.6589 74.3108C38.686 74.8222 38.6996 74.8823 38.686 74.4462C38.686 74.0401 38.686 74.0702 38.6454 74.5063C38.5776 74.6266 38.0492 75.8449 38.4963 75.153C38.9435 74.4612 38.2795 75.3335 38.2931 75.3485C38.2389 75.3034 39.0112 74.6567 38.2253 75.2583C38.4557 75.0778 38.7267 74.9575 38.957 74.777C39.621 74.2507 38.2524 74.8823 39.0654 74.7319C39.3364 74.6868 39.621 74.5514 39.892 74.4762C40.2579 74.371 40.6373 74.2958 41.0167 74.2356C40.285 74.371 40.705 74.2807 41.1928 74.2506C44.5533 74.0551 47.9138 74.1604 51.2742 74.1905C54.8651 74.2206 58.4559 74.2507 62.0467 74.2657C63.9573 74.2657 65.8679 74.2958 67.7649 74.3108C68.6593 74.3108 69.5671 74.3108 70.4614 74.3258C70.4885 74.3258 71.139 74.386 71.1796 74.3409C70.8138 74.6868 69.0522 73.5889 68.849 73.3182L67.2771 70.3253C69.0116 66.0841 69.269 64.7005 68.0224 66.1894C67.8327 66.3849 67.643 66.5804 67.4397 66.7609C67.25 66.9564 67.0468 67.1369 66.8435 67.3174C67.4126 66.8512 67.3991 66.8512 66.8435 67.3174C66.0034 67.9791 65.1362 68.5958 64.2419 69.1673C63.6457 69.5433 63.0223 69.8591 62.4126 70.205C61.2608 70.8517 63.3069 69.8892 61.9654 70.4155C60.9085 70.8367 59.8516 71.2277 58.7675 71.5285C58.1849 71.6939 57.5887 71.8293 57.006 71.9496C56.6808 72.0097 55.1496 72.1752 56.586 72.0398C55.4748 72.1451 54.3637 72.2353 53.239 72.2203C52.6428 72.2203 52.0331 72.1902 51.4368 72.1301C51.1116 72.1 49.5805 71.8443 51.0032 72.115C49.8108 71.9045 48.6455 71.6037 47.4802 71.2427C44.4178 70.2651 40.705 72.4309 39.9733 75.9652C39.228 79.5747 40.9489 83.2443 44.2281 84.2971C50.5425 86.3275 57.4803 86.2372 63.7405 84.0264C66.7622 82.9586 69.7433 81.4697 72.3585 79.4844C75.9358 76.7923 79.8924 73.3633 79.242 67.9942C78.8762 65.0163 77.0875 62.7754 74.6485 61.6324C72.7514 60.7451 70.746 60.7902 68.727 60.7751C64.9058 60.7451 61.0982 60.715 57.277 60.6849C53.4558 60.6548 49.6482 60.6248 45.827 60.5947C41.64 60.5646 37.3716 60.6849 33.5098 62.6701C29.648 64.6554 26.6669 68.9717 26.4501 73.8596C26.2469 78.4467 28.6453 82.357 31.9651 84.8235C35.0681 87.1246 38.7673 87.8314 42.3853 88.3729C46.0032 88.9143 49.4856 88.9895 53.0493 89.0647C56.6131 89.1399 60.6646 89.0196 64.2554 87.8014C67.8462 86.5831 70.6918 84.5227 73.5645 82.1615C76.6268 79.6499 79.6214 77.0029 82.4805 74.2055C84.1066 72.6264 85.6784 71.0322 86.2882 68.6258C87.1554 65.2118 85.7191 61.5572 82.9413 59.8728C78.9846 57.4664 73.3748 58.2936 69.2284 59.5269C65.502 60.6398 61.9925 62.4445 58.2662 63.5274C57.3177 63.7981 56.3556 64.0237 55.3935 64.2192C54.9599 64.3095 54.5399 64.3847 54.1063 64.4599C53.8352 64.505 52.6428 64.7005 53.4558 64.5802C51.2471 64.9261 49.0249 65.2118 46.8162 65.5277C42.5885 66.1293 38.3608 66.7308 34.1331 67.3324C30.9759 67.7836 27.8729 70.1298 28.0355 74.1003C28.171 77.3789 30.7456 81.3494 34.1331 80.8681L34.2009 80.8831Z" fill="#AAC6AF"/>
<path d="M49.4856 82.2668C45.4883 83.4549 41.5045 84.6882 37.5207 85.9666C32.8052 87.4705 27.1819 88.5383 24.3905 93.5465C22.3986 97.126 22.4528 101.412 24.1601 105.112C25.4068 107.834 27.5613 109.774 29.8242 111.414C33.1982 113.865 37.2091 115.414 41.1251 116.437C48.7675 118.437 56.6537 119.55 64.3774 121.024C68.4425 121.791 72.494 122.573 76.5591 123.34C80.3667 124.062 84.2828 124.844 88.1446 124.363C93.646 123.686 98.5783 121.204 101.776 116.001C104.73 111.203 105.123 104.495 102.183 99.5774C99.7165 95.4566 95.7598 92.96 91.8438 90.8544C88.1175 88.8391 84.215 87.1246 80.2312 85.9064C72.9276 83.6655 65.0956 82.7631 57.5481 83.5301C53.6727 83.9212 49.594 84.4626 45.8677 85.8162C41.2606 87.5156 35.7592 90.9898 34.4313 96.6296C33.1304 102.134 36.0031 107.624 40.9083 109.188C42.995 109.849 45.2579 110.105 47.4124 110.496C51.9518 111.323 56.5047 112.09 61.0576 112.872C70.6512 114.512 80.3261 116.527 90.0687 116.392C97.1013 116.301 100.814 106.571 95.814 100.991C90.9901 95.5919 84.4725 93.9676 77.9954 92.599C71.0035 91.1101 63.876 89.7716 56.7486 90.0122C52.5073 90.1626 48.4152 94.0579 48.6184 99.036C48.8081 103.804 52.1957 108.225 56.7486 108.06C59.7974 107.954 62.8056 108.195 65.8408 108.526C67.7785 108.737 64.5129 108.285 66.2609 108.586C67.1281 108.737 67.9818 108.872 68.849 109.037C70.2447 109.293 71.6403 109.579 73.036 109.88C75.5699 110.406 78.1445 110.887 80.6242 111.684C81.1391 111.85 81.6405 112.06 82.1554 112.226C82.9819 112.572 82.8193 112.481 81.6811 111.955C82.0063 112.105 82.318 112.271 82.6296 112.451C83.0903 112.722 83.5239 113.023 83.9711 113.324C84.6757 113.88 84.5402 113.76 83.5646 112.963C83.822 113.218 84.0795 113.489 84.3234 113.775C86.234 108.646 88.1581 103.503 90.0687 98.3742C86.0714 98.4344 82.0876 98.1186 78.1174 97.5922C77.6702 97.532 77.2366 97.4719 76.7894 97.4117C75.1905 97.2011 77.6567 97.5621 76.6404 97.3967C75.6241 97.2312 74.6621 97.0808 73.6729 96.9154C71.7352 96.5996 69.8111 96.2537 67.8734 95.9228C64.1335 95.2761 60.4072 94.6444 56.6673 93.9977C54.6889 93.6518 52.7106 93.3059 50.7323 92.9299C49.7431 92.7494 48.7539 92.5539 47.7647 92.3734C47.3311 92.2832 46.884 92.208 46.4504 92.1178C44.2281 91.6666 46.3826 91.6515 48.0358 93.5766C48.7268 94.9001 49.4314 96.2386 50.1225 97.5621L50.0005 97.1861V101.984C49.9599 102.209 48.1984 104.977 49.2146 103.728C50.3122 102.39 47.6563 104.616 49.1333 103.819C49.323 103.713 50.38 103.232 50.4613 103.052L49.4585 103.533C49.7702 103.397 50.0954 103.277 50.4206 103.172C51.2201 102.886 52.0466 102.661 52.8732 102.465C54.0656 102.179 55.6104 101.578 56.8299 101.668L55.8136 101.818C56.193 101.773 56.5724 101.713 56.9518 101.683C57.5209 101.623 58.1036 101.563 58.6727 101.518C59.6348 101.442 60.5833 101.397 61.5454 101.367C64.0522 101.307 66.5183 101.502 69.0116 101.743C71.0035 101.939 67.1552 101.382 69.1335 101.743C69.5129 101.818 69.8924 101.878 70.2718 101.954C71.41 102.164 72.5347 102.42 73.6593 102.721C75.8951 103.307 78.1174 104.029 80.2719 104.901C80.8139 105.127 81.3423 105.353 81.8844 105.578C83.7407 106.36 80.2719 104.721 82.0605 105.668C83.1039 106.21 84.1473 106.751 85.1635 107.338C86.0172 107.834 86.8573 108.346 87.6703 108.887C87.7652 108.947 89.0118 109.789 88.9847 109.819C88.0497 108.977 87.9007 108.857 88.5511 109.489C89.1473 110.195 89.0525 110.015 88.2665 108.947L88.524 109.428C88.1039 108.676 87.9007 107.849 87.9413 106.947C87.982 108.782 88.6188 104.916 88.0091 106.646C88.8085 104.36 88.3478 105.653 88.131 106.225C87.7516 107.248 89.5267 104.721 88.3343 105.939C87.0741 107.233 90.0145 105.052 88.402 105.924L87.9549 106.21C87.169 106.646 87.3451 106.571 88.4833 105.999C88.4833 105.999 87.0877 106.435 86.9928 106.466C86.112 106.646 86.3153 106.631 87.6026 106.405C87.2503 106.451 86.898 106.466 86.5457 106.481C85.6513 106.526 84.7435 106.481 83.8491 106.42C83.7407 106.42 82.2231 106.255 82.2231 106.24L83.3071 106.405C82.9548 106.345 82.589 106.285 82.2367 106.225C79.6892 105.774 77.1418 105.262 74.5943 104.781C69.3232 103.773 64.0657 102.781 58.7947 101.773C53.9708 100.856 49.052 100.134 44.3094 98.7653C43.2118 98.4494 42.1278 98.0885 41.0709 97.6674L40.5424 97.4568C39.7159 97.0959 39.8514 97.156 40.9354 97.6523C40.5018 97.7275 39.3365 96.765 38.9435 96.5244C38.7674 96.4041 37.5478 95.7423 37.5207 95.5318C38.3608 96.2988 38.5641 96.4642 38.1169 96.0281C37.9137 95.8325 37.7375 95.637 37.5614 95.4114C40.4476 97.3666 38.9706 103.548 36.3283 105.127C34.1738 106.405 36.0979 105.277 36.789 105.052C42.4259 103.187 48.09 101.427 53.7675 99.7278C57.8733 98.4946 60.7866 93.2457 59.4451 88.6286C58.1036 84.0114 53.8488 81.0035 49.445 82.327L49.4856 82.2668Z" fill="#AAC6AF"/>
<path d="M54.2689 93.0051C58.3611 92.8397 62.4397 92.3133 66.5455 92.3434C70.6512 92.3735 74.4859 93.3059 78.3071 95.1107C80.028 95.9228 81.7353 96.75 83.5104 97.4268C85.2855 98.1036 87.0064 98.63 88.5918 99.6677C91.7625 101.743 94.0525 105.172 96.207 108.406C97.7518 110.707 101.275 108.466 99.7165 106.135C97.3859 102.646 95.0011 99.1563 91.7761 96.6147C88.5511 94.073 84.1202 93.0202 80.3667 91.2305C76.383 89.3355 72.4805 88.0721 68.1037 87.8766C63.4831 87.6661 58.876 88.3128 54.2689 88.4933C51.6537 88.5985 51.6537 93.1104 54.2689 93.0051Z" fill="#AAC6AF"/>
<path d="M32.1277 103.548C35.0546 108.06 39.0384 111.113 43.8487 112.677C49.1876 114.406 54.838 115.354 60.3394 116.256C65.8408 117.159 71.4778 117.926 77.074 118.286C82.6703 118.647 87.5891 117.956 92.2368 114.857C94.4726 113.369 92.4401 109.458 90.1907 110.962C85.9359 113.79 81.2882 114.09 76.4372 113.729C71.5862 113.369 66.41 112.737 61.437 111.91C56.4641 111.083 51.5995 110.15 46.762 108.857C42.304 107.669 38.388 105.473 35.6508 101.262C34.1332 98.9305 30.6101 101.171 32.1413 103.533L32.1277 103.548Z" fill="#AAC6AF"/>
<path d="M54.6754 111.594C45.6238 109.955 36.4503 109.293 27.3038 110.316C24.3227 110.647 21.7753 111.083 19.0517 112.466C16.9107 113.549 15.1899 115.309 13.6045 117.219C10.786 120.633 7.3307 123.099 5.18975 127.19C0.149046 136.846 3.30626 149.434 10.9215 156.172C18.6994 163.045 28.2252 164.519 37.9001 165.045C46.6536 165.526 55.4478 165.09 64.2148 164.864C68.9574 164.744 73.6322 164.594 78.3206 163.691C82.4399 162.894 86.4914 161.601 90.543 160.458C92.8872 159.796 95.2314 159.225 97.3994 157.961C100.353 156.232 102.332 153.374 103.456 149.96C105.299 144.381 103.619 137.974 99.5675 134.184C92.6297 127.702 84.0795 123.084 75.6919 119.4C71.7352 117.655 67.6837 115.986 63.5779 114.737C58.3204 113.128 53.3475 113.188 48.0222 114.271C43.6455 115.159 39.2958 116.196 34.9462 117.174C31.0979 118.031 27.0193 118.557 23.32 120.046C18.1709 122.107 13.8484 125.746 12.1275 131.732C10.6912 136.695 11.6261 142.365 13.9839 146.802C19.1194 156.487 29.1196 158.247 38.2931 159.315C47.1143 160.338 55.9627 160.909 64.8245 160.999C69.3639 161.044 73.9168 160.969 78.4561 160.774C80.448 160.683 82.4399 160.578 84.4318 160.443C87.5077 160.232 90.7056 160.187 93.4969 158.533C96.2883 156.878 98.0769 154.216 98.8087 150.878C99.8114 146.291 97.9821 141.989 95.272 138.635C92.562 135.282 88.6866 132.469 84.9196 130.394C77.2095 126.137 68.9303 122.633 60.4343 120.904C51.3962 119.069 42.182 118.888 33.2117 121.31C31.3553 121.806 29.5261 122.438 27.751 123.19C25.5152 124.137 23.1303 125.085 21.1791 126.679C18.049 129.251 15.8267 132.77 15.8132 137.282C15.8132 141.222 17.5205 144.651 19.7292 147.584C25.3797 155.089 34.6345 156.593 42.8324 157.751C51.5859 158.984 60.4343 159.195 69.2284 158.367C74.2555 157.901 79.1878 157.39 83.7001 154.713C85.9359 153.389 87.2503 150.817 87.5755 148.125C87.9413 145.102 87.0335 142.846 85.3397 140.545C83.4562 137.989 80.8274 136.575 78.158 135.312C75.7732 134.199 73.3612 133.281 70.8409 132.604C65.8002 131.266 60.5698 130.679 55.4071 130.228C45.285 129.356 35.1359 129.01 24.9867 128.649C21.572 128.529 17.9135 131.522 17.1411 135.267C16.4094 138.846 17.5341 143.839 20.881 145.463C33.9841 151.78 47.6428 155.54 61.9248 156.457C65.1227 156.668 68.1715 154.021 69.3503 150.908C70.7054 147.343 69.7975 143.944 67.6701 141.057C64.6755 136.981 60.0955 135.176 55.8678 133.236C51.7214 131.326 47.575 129.431 43.4286 127.521L41.2606 145.253C44.4314 144.907 47.6292 144.787 50.8136 144.952C52.3041 145.027 53.7811 145.193 55.258 145.358C56.193 145.493 56.0982 145.478 54.987 145.313C55.4071 145.388 55.8272 145.463 56.2472 145.539C57.0873 145.689 57.9139 145.884 58.754 146.065C62.914 147.012 67.7379 144.726 68.7541 139.763C69.7027 135.116 67.494 129.852 63.0766 128.664C59.8787 127.792 56.6808 126.935 53.483 126.062L51.3149 143.794C50.3257 143.689 50.1767 143.538 51.2336 143.854C51.6943 143.989 52.9816 144.636 51.2743 143.764C53.3204 144.802 55.2987 145.358 57.5345 144.666C59.418 144.095 61.4641 142.47 62.399 140.515C64.2825 136.545 63.6186 130.258 59.4857 128.168C56.7215 126.769 54.3502 126.047 51.3149 125.731C47.304 125.31 43.8216 129.491 43.3338 133.552C42.8189 137.838 45.2037 142.38 49.1604 143.448C52.3583 144.32 55.5562 145.178 58.754 146.05C60.1904 140.245 61.6402 134.454 63.0766 128.649C55.8949 127.01 48.5507 126.378 41.2471 127.19C37.182 127.641 33.835 130.288 33.2659 135.011C32.6968 139.733 35.2849 143.162 39.0926 144.907C42.9002 146.651 46.5588 148.336 50.2851 150.05C51.1117 150.426 51.9382 150.817 52.7783 151.193C54.4315 151.945 51.5859 150.562 52.5344 151.088C52.8461 151.269 53.1713 151.419 53.4965 151.584C53.9437 151.825 55.0548 152.848 55.5426 152.878C55.0548 152.848 54.2418 151.585 55.2987 152.728C55.6104 153.058 55.8949 153.419 56.1659 153.795C58.0765 148.667 60.0006 143.523 61.9112 138.395C60.2445 138.289 58.5779 138.154 56.9247 137.959C56.3014 137.883 55.6781 137.808 55.0548 137.733C54.1334 137.598 54.2282 137.628 55.3529 137.793C54.9328 137.733 54.5263 137.658 54.1198 137.598C51.1252 137.101 48.1577 136.455 45.2173 135.688C42.2769 134.921 39.3636 133.988 36.4909 132.935C35.1088 132.424 33.7266 131.883 32.3581 131.311C31.5721 130.98 30.7998 130.649 30.0274 130.303C29.6345 130.123 29.2551 129.958 28.8756 129.777C29.8513 130.243 29.9326 130.273 29.0924 129.867C27.7239 135.477 26.3553 141.072 24.9867 146.682C34.4855 147.012 43.9978 147.343 53.4694 148.095C55.6375 148.261 57.8055 148.456 59.96 148.712C60.4614 148.772 60.9763 148.847 61.4776 148.907C63.5644 149.178 59.6754 148.562 61.7351 148.953C62.7378 149.148 63.7405 149.314 64.7297 149.539C66.9113 150.035 69.0658 150.667 71.1525 151.494C71.3829 151.585 73.0225 152.231 71.8842 151.765C70.746 151.299 72.2501 151.96 72.4805 152.081C72.6837 152.201 73.7 153.013 73.9168 153.013L73.1173 152.367C73.3883 152.637 73.6322 152.938 73.849 153.269C74.391 148.546 74.9466 143.824 75.4886 139.102C74.1607 139.884 75.7325 138.951 75.8951 138.981C75.7325 138.951 75.0415 139.297 74.8247 139.372C74.0929 139.613 73.3477 139.748 72.6024 139.914C70.7325 140.335 74.0116 139.763 72.7921 139.884C72.3721 139.929 71.952 139.989 71.5184 140.034C70.5292 140.154 69.54 140.245 68.5509 140.335C64.811 140.666 61.0711 140.816 57.3177 140.771C53.5778 140.726 49.8244 140.5 46.0981 140.079C45.2173 139.974 44.3501 139.869 43.4693 139.748C41.911 139.553 43.388 139.748 43.659 139.793C43.2254 139.748 42.7782 139.658 42.3446 139.583C40.7999 139.327 39.2687 139.041 37.7511 138.635C37.1007 138.455 36.4503 138.274 35.7998 138.049C35.3391 137.898 34.35 137.252 33.9028 137.327C34.6481 137.207 35.3933 138.094 34.4855 137.583C34.2009 137.417 33.9028 137.267 33.6182 137.086C33.2659 136.876 32.9136 136.635 32.5749 136.394C31.4366 135.567 32.5613 136.169 32.873 136.695C32.751 136.485 31.6535 135.206 31.5044 135.206L32.1684 136.184L31.8838 135.733L31.5721 135.176L31.9109 136.124C32.331 137.929 31.4637 141.192 29.7158 141.914C30.4746 141.598 31.1656 140.651 32.0058 140.56C30.7727 140.696 31.0572 140.982 31.7348 140.696C32.1142 140.545 32.48 140.38 32.8594 140.23C33.6182 139.929 34.3771 139.643 35.1494 139.387C36.8839 138.816 38.6454 138.35 40.4205 138.004C40.705 137.944 41.3013 137.748 41.6129 137.793C40.0953 137.643 40.5966 137.929 41.2471 137.853C42.0465 137.763 42.846 137.673 43.659 137.613C45.4747 137.477 47.2905 137.447 49.1062 137.507C50.7323 137.568 52.3312 137.718 53.9437 137.898C55.6375 138.094 53.6591 137.929 53.6185 137.838C53.6456 137.898 54.6618 138.019 54.838 138.049C55.8543 138.229 56.857 138.44 57.8733 138.68C61.3015 139.478 64.6619 140.575 67.9682 141.869C69.4994 142.47 71.1254 143.042 72.5889 143.839C70.7867 142.862 72.9954 144.05 73.4832 144.29C74.3775 144.741 75.2718 145.193 76.139 145.659C77.4941 146.396 78.8491 147.178 80.1364 148.065C80.5835 148.366 81.776 148.953 82.0063 149.464C81.6675 148.697 80.9765 148.501 81.6947 149.208C82.1147 149.629 82.5348 150.02 82.9413 150.472C83.0903 150.637 83.5917 151.344 83.7136 151.374C83.4426 151.314 82.7787 149.554 83.3478 150.938C81.9521 147.599 83.4968 143.373 86.7354 142.185C85.5023 142.636 87.2909 142.125 87.4942 142.14C87.1419 142.11 86.7218 142.2 86.3695 142.23C85.2584 142.32 84.1608 142.395 83.0497 142.455C79.2827 142.681 75.5293 142.831 71.7623 142.907C64.2283 143.027 56.6944 142.816 49.174 142.275C45.4205 142.004 41.6671 141.643 37.9137 141.207C37.1142 141.117 36.3012 141.012 35.5017 140.906C34.2958 140.756 35.7727 141.192 36.0166 140.997C35.9353 141.057 34.9191 140.801 34.9191 140.801C33.2795 140.5 31.7077 140.049 30.1358 139.478C28.9298 139.041 30.5694 139.703 30.5694 139.703C30.5288 139.748 29.5532 139.132 29.6074 139.162C29.2957 138.966 28.984 138.756 28.6724 138.545C27.7374 137.944 28.8756 138.169 29.0653 138.951C28.9976 138.696 27.9949 137.688 27.7645 137.507C27.9136 137.628 28.8485 139.327 28.2117 138.094C28.0355 137.748 27.7645 137.041 27.5342 136.755C27.6697 136.921 28.1304 138.861 27.8323 137.492C27.7645 137.177 27.6697 136.846 27.5884 136.515C27.3309 135.492 28.0084 136.244 27.6697 137.447C27.7239 137.267 27.6697 136.605 27.6426 136.47C27.5884 135.417 28.2117 136.379 27.5071 137.432C27.5613 137.357 27.7374 136.485 27.7374 136.5C27.7374 136.545 26.8838 138.68 27.48 137.327C28.1033 135.898 26.3282 138.816 27.3987 137.507C28.1439 136.59 27.4393 138.109 26.8838 137.929C26.9244 137.944 27.751 137.357 27.7103 137.372C28.5504 136.816 27.9813 137.733 27.1141 137.598C27.2632 137.628 27.9678 137.252 28.0491 137.222C29.5396 136.68 31.0843 136.349 32.6155 136.003C36.247 135.191 39.8649 134.394 43.4964 133.582C45.3663 133.161 47.2363 132.755 49.1062 132.334C49.9599 132.138 50.8136 131.943 51.6672 131.762C52.0873 131.672 52.4938 131.597 52.9138 131.507C54.4857 131.176 51.9247 131.552 52.9409 131.492C53.8895 131.431 54.8244 131.326 55.7865 131.371C55.9491 131.371 57.0331 131.431 57.0467 131.477C57.0467 131.552 55.0006 131.025 56.7486 131.477C58.4966 131.928 60.231 132.424 61.9383 133.056C65.3937 134.319 68.7948 135.718 72.1824 137.177C73.2664 137.643 70.8815 136.53 71.952 137.056C72.3314 137.237 72.7108 137.417 73.0767 137.613C73.9168 138.034 74.7569 138.47 75.597 138.921C77.1689 139.763 78.7271 140.666 80.2448 141.613C83.2936 143.508 86.1662 145.644 89.0389 147.84C89.9061 148.501 87.9413 146.621 88.6053 147.509C88.8898 147.885 89.3099 148.757 88.7814 147.629C88.673 147.403 87.7652 145.072 87.9955 146.065C88.253 147.178 87.9955 143.583 87.9007 145.283C87.9007 145.208 88.3478 142.877 88.0091 144.275C87.86 144.922 87.4264 145.508 88.3614 143.418C88.0633 144.065 87.5348 144.185 88.8898 142.711L89.8926 141.899C89.2557 142.29 89.2422 142.335 89.8519 142.019C90.6785 141.327 89.8926 141.959 89.4725 142.094C89.0931 142.215 88.7137 142.32 88.3343 142.425C87.5077 142.651 86.6947 142.892 85.8681 143.117C84.0253 143.629 82.1825 144.155 80.3396 144.666C78.7271 145.117 77.1147 145.569 75.4886 145.945C74.5943 146.155 73.6458 146.426 72.7244 146.486C72.9683 146.471 74.5537 146.291 73.036 146.411C72.5211 146.456 72.0062 146.501 71.4913 146.546C64.1335 147.073 56.7079 147.058 49.3366 147.163C45.6238 147.223 41.8975 147.208 38.1847 147.012C36.4503 146.922 34.7158 146.802 32.9814 146.621C32.5749 146.576 32.1684 146.531 31.7754 146.486C31.4773 146.456 30.1629 146.291 31.3418 146.441C32.5207 146.591 31.2063 146.411 30.9217 146.366C30.3255 146.26 29.7293 146.14 29.1331 146.005C27.5342 145.644 26.0301 145.072 24.4718 144.531C23.3607 144.155 25.7862 145.253 24.8377 144.711C24.526 144.531 24.2008 144.381 23.8891 144.2C23.171 143.794 22.5206 143.298 21.8295 142.862C20.3119 141.899 22.8322 143.869 21.9921 143.042C21.7346 142.786 21.4501 142.546 21.1926 142.275C20.6777 141.749 20.217 141.162 19.7428 140.591C19.0246 139.733 20.5829 142.049 20.068 141.027C19.9054 140.681 19.6886 140.38 19.5124 140.034L19.3769 139.778C19.0652 139.072 19.0517 139.087 19.3362 139.793C19.5937 140.515 19.5937 140.515 19.3498 139.793L19.1872 139.237C19.0923 138.861 19.0246 138.47 18.9297 138.094C18.4419 136.229 18.9297 139.688 18.9704 138.455C18.9704 138.124 18.8755 135.447 18.9297 137.041C18.9704 138.335 18.9297 137.297 19.0381 136.816L19.1059 136.53C19.3362 135.793 19.3227 135.793 19.0517 136.53L18.8349 137.071C18.9433 136.801 19.0652 136.545 19.2007 136.304C19.9054 134.966 19.5666 136.154 19.011 136.425C19.5531 136.154 20.2712 134.936 20.7048 134.484C21.2468 133.928 21.7888 133.402 22.3444 132.875C23.4962 131.762 24.5531 130.589 25.5829 129.341C25.8133 129.07 26.0707 128.799 26.2875 128.514C27.2767 127.235 25.9352 129.01 25.8133 128.83L26.2604 128.529C26.8838 128.183 26.8838 128.168 26.2469 128.514L25.7591 128.754C26.0165 128.664 26.2604 128.589 26.5179 128.514C26.8567 128.423 27.209 128.363 27.5613 128.288C28.6453 128.032 25.881 128.454 26.9922 128.378C27.9407 128.318 28.8892 128.183 29.8377 128.108C33.5098 127.822 37.182 127.777 40.8541 127.957C42.6834 128.047 44.5262 128.198 46.3555 128.408C46.7891 128.454 47.2092 128.514 47.6428 128.559C47.9138 128.589 49.3095 128.769 48.1712 128.619C47.033 128.469 48.4152 128.664 48.6997 128.709C49.2282 128.799 49.7702 128.89 50.2986 128.995C52.5209 129.401 54.5534 129.401 56.5589 128.093C58.2391 126.995 59.8516 124.844 60.2988 122.693C61.1931 118.347 59.1063 112.406 54.6212 111.594H54.6754Z" fill="#AAC6AF"/>
<path d="M40.5018 82.3269C38.2389 83.2443 36.518 80.9432 35.7863 78.8527C35.5424 78.1609 35.4069 77.4992 35.7457 76.8073C35.976 76.3261 36.3283 75.905 36.7077 75.544C37.4123 74.8522 38.266 74.3559 39.0926 73.8897C40.4883 73.1076 42.0601 72.2654 42.8731 70.7012C43.51 69.453 43.5642 67.8136 42.6699 66.7157C42.5886 66.6105 42.4395 66.7609 42.5208 66.8812C43.3203 67.8588 43.2932 69.2725 42.7918 70.4005C42.3176 71.4532 41.4368 72.2052 40.5425 72.7918C38.9842 73.8145 37.1413 74.4762 35.9625 76.0854C35.5018 76.7171 35.2172 77.4089 35.3798 78.2211C35.5695 79.1686 36.0302 80.1612 36.5451 80.9432C37.4665 82.3269 39.0248 83.1992 40.556 82.5826C40.678 82.5374 40.6238 82.3118 40.5018 82.372V82.3269Z" fill="#EEEBE7"/>
<path d="M38.5506 74.0551C40.9354 73.1677 43.5506 73.1377 45.9084 74.1303C47.6699 74.8672 49.3501 76.7321 51.3691 76.4313C52.1144 76.3261 52.6428 75.92 53.1036 75.2733C53.754 74.3258 54.296 73.3482 55.109 72.5511C56.9518 70.7313 59.3502 69.7688 61.8164 69.8891C61.9519 69.8891 61.9519 69.6635 61.8164 69.6635C59.9058 69.5733 58.0223 70.1147 56.3963 71.2276C55.5968 71.769 54.8515 72.4458 54.2282 73.2279C53.4288 74.2205 52.9003 75.8297 51.6401 76.1757C50.2445 76.5667 48.9301 75.6192 47.7783 74.8823C46.8569 74.2957 45.9084 73.8295 44.8785 73.5437C42.7647 72.9572 40.5831 73.0775 38.5235 73.8445C38.4015 73.8896 38.4557 74.1152 38.5777 74.0551H38.5506Z" fill="#EEEBE7"/>
<path d="M50.1767 76.3412C49.6753 77.018 49.0791 77.8602 49.2688 78.7927C49.4179 79.5597 50.0547 79.9959 50.6916 80.1914C51.5859 80.4621 52.5073 80.2215 53.4152 80.3719C53.903 80.4471 54.4179 80.6576 54.7025 81.1389C54.9464 81.56 54.9057 82.1616 54.4857 82.4172C54.3773 82.4924 54.4857 82.688 54.5941 82.6128C55.2174 82.2368 55.1632 81.3043 54.716 80.793C54.0927 80.0861 53.09 80.0861 52.2634 80.1011C51.4368 80.1162 50.4748 80.1162 49.8379 79.4394C48.9842 78.522 49.7431 77.2887 50.3393 76.4916C50.4206 76.3864 50.2851 76.2209 50.1902 76.3262L50.1767 76.3412Z" fill="#EEEBE7"/>
<path d="M58.3475 70.3857C60.2852 71.5738 62.0603 72.9574 63.7405 74.5516C64.9194 75.6646 66.1389 76.1158 67.6295 75.4239C69.269 74.672 70.2447 73.0176 71.2203 71.4535C72.4805 69.4382 74.4588 66.9416 76.925 68.0545C77.0469 68.1147 77.1011 67.8891 76.9792 67.844C73.2528 66.1896 71.3422 71.5287 69.3503 73.8147C68.6457 74.6118 67.7514 75.2735 66.7487 75.4841C65.3395 75.7849 64.4045 74.8675 63.4018 73.92C61.8706 72.4912 60.2039 71.2429 58.4559 70.1751C58.3475 70.0999 58.2391 70.2954 58.3475 70.3706V70.3857Z" fill="#EEEBE7"/>
<path d="M77.5212 100.074C77.3044 99.352 77.196 98.5097 77.3721 97.7728C77.6702 96.5245 78.8356 97.4118 79.2014 98.0586C79.5266 98.6301 79.6079 99.2617 79.8112 99.8934C79.9196 100.224 80.1093 100.45 80.448 100.39C80.9088 100.314 81.3288 99.7881 81.6947 99.4873C82.1825 99.0813 82.7245 98.6451 83.3207 98.4797C84.2692 98.224 84.8519 99.1264 84.5944 100.104C84.4047 100.841 83.795 101.382 83.1175 101.473C83.0091 101.473 82.982 101.608 83.0633 101.683C84.0931 102.525 85.3939 104.526 84.6486 105.999C84.1608 106.962 83.1988 106.721 82.6161 106.03C82.196 105.518 81.925 104.887 81.4914 104.375C81.4508 104.315 81.3695 104.345 81.3288 104.405C80.6784 105.488 80.6513 107.127 79.5537 107.819C78.8085 108.286 78.009 107.714 77.8057 106.857C77.616 106.075 77.9277 105.278 78.2665 104.616C78.3071 104.526 78.2394 104.42 78.1581 104.45C77.2773 104.691 75.4615 104.977 75.3531 103.473C75.2718 102.33 76.4643 101.322 77.2366 100.781C77.345 100.706 77.2366 100.51 77.1282 100.585C76.261 101.187 74.8247 102.42 75.177 103.744C75.5564 105.187 77.2095 104.932 78.1987 104.661L78.0903 104.496C77.7244 105.217 77.3992 106.075 77.6025 106.917C77.7515 107.549 78.2123 108.135 78.8085 108.21C80.57 108.451 80.8139 105.639 81.4914 104.511L81.3288 104.541C81.9115 105.247 82.2502 106.255 83.0497 106.706C83.6595 107.052 84.337 106.887 84.7299 106.255C85.7056 104.676 84.2692 102.435 83.1446 101.503L83.0904 101.713C84.2286 101.578 85.2584 100.164 84.6893 98.9008C83.9576 97.3066 82.0876 98.8707 81.3017 99.5324C81.1391 99.6678 80.963 99.8483 80.7868 99.9686C80.5835 100.164 80.3261 100.179 80.0415 100.014C79.9873 99.8934 79.9467 99.7731 79.9331 99.6528C79.8247 99.2467 79.7299 98.8256 79.5808 98.4345C79.3369 97.8179 78.944 97.2013 78.3478 97.0058C76.7353 96.4644 77.0469 99.2467 77.3179 100.164C77.3586 100.299 77.5483 100.239 77.5076 100.104L77.5212 100.074Z" fill="#EEEBE7"/>
<path d="M77.4534 100.615C77.5889 100.615 77.5889 100.39 77.4534 100.39C77.3179 100.39 77.3179 100.615 77.4534 100.615Z" fill="#EEEBE7"/>
<path d="M59.8245 90.6588C59.6077 89.9369 59.4993 89.0947 59.6755 88.3578C59.9736 87.1095 61.1389 87.9968 61.5048 88.6435C61.83 89.215 61.9113 89.8467 62.1145 90.4783C62.2229 90.8092 62.4126 91.0348 62.7514 90.9747C63.2121 90.8995 63.6322 90.3731 63.998 90.0723C64.4858 89.6662 65.0278 89.2301 65.6241 89.0646C66.5726 88.809 67.1552 89.7113 66.8978 90.6889C66.7081 91.4258 66.0983 91.9673 65.4208 92.0575C65.3124 92.0575 65.2853 92.1929 65.3666 92.2681C66.3964 93.1103 67.6972 95.1106 66.952 96.5844C66.4642 97.547 65.5021 97.3063 64.9194 96.6145C64.4994 96.1032 64.2284 95.4715 63.7948 94.9602C63.7541 94.9 63.6728 94.9301 63.6322 94.9902C62.9817 96.0731 62.9547 97.7124 61.8571 98.4042C61.1118 98.8705 60.3123 98.299 60.1091 97.4417C59.9194 96.6596 60.231 95.8625 60.5698 95.2008C60.6105 95.1106 60.5427 95.0053 60.4614 95.0354C59.5806 95.276 57.7649 95.5617 57.6565 94.0578C57.5752 92.9148 58.7676 91.9071 59.54 91.3657C59.6484 91.2905 59.54 91.095 59.4316 91.1702C58.5644 91.7718 57.128 93.005 57.4803 94.3285C57.8597 95.7723 59.5129 95.5166 60.502 95.2459L60.3936 95.0805C60.0278 95.8024 59.7026 96.6596 59.9058 97.5019C60.0549 98.1335 60.5156 98.7201 61.1118 98.7953C62.8733 99.0359 63.1173 96.2235 63.7948 95.0955L63.6322 95.1256C64.2148 95.8325 64.5536 96.8401 65.353 97.2913C65.9628 97.6372 66.6403 97.4718 67.0333 96.8401C68.0089 95.2609 66.5726 93.02 65.4479 92.0876L65.3937 92.2981C66.5319 92.1628 67.5617 90.7491 66.9926 89.4857C66.2609 87.8915 64.391 89.4557 63.6051 90.1174C63.4425 90.2528 63.2663 90.4332 63.0902 90.5535C62.8869 90.7491 62.6294 90.7641 62.3449 90.5987C62.2907 90.4784 62.25 90.358 62.2365 90.2377C62.1281 89.8316 62.0332 89.4105 61.8842 89.0195C61.6403 88.4029 61.2473 87.7863 60.6511 87.5907C59.0386 87.0493 59.3503 89.8316 59.6213 90.7491C59.6619 90.8844 59.8516 90.8243 59.811 90.6889L59.8245 90.6588Z" fill="#EEEBE7"/>
<path d="M59.2283 108.36C59.0115 107.639 58.9031 106.796 59.0792 106.059C59.3773 104.811 60.5427 105.698 60.9085 106.345C61.2337 106.917 61.315 107.548 61.5183 108.18C61.6267 108.511 61.8164 108.736 62.1551 108.676C62.6158 108.601 63.0359 108.075 63.4018 107.774C63.8896 107.368 64.4316 106.932 65.0278 106.766C65.9763 106.511 66.559 107.413 66.3015 108.391C66.1118 109.128 65.5021 109.669 64.8245 109.759C64.7161 109.759 64.689 109.895 64.7703 109.97C65.8002 110.812 67.101 112.812 66.3557 114.286C65.8679 115.249 64.9058 115.008 64.3232 114.316C63.9031 113.805 63.6321 113.173 63.1985 112.662C63.1579 112.602 63.0766 112.632 63.0359 112.692C62.3855 113.775 62.3584 115.414 61.2608 116.106C60.5156 116.572 59.7161 116.001 59.5128 115.143C59.3231 114.361 59.6348 113.564 59.9735 112.902C60.0142 112.812 59.9464 112.707 59.8651 112.737C58.9844 112.978 57.1686 113.263 57.0602 111.759C56.9789 110.616 58.1714 109.609 58.9437 109.067C59.0521 108.992 58.9437 108.797 58.8353 108.872C57.9681 109.473 56.5318 110.707 56.8841 112.03C57.2635 113.474 58.9166 113.218 59.9058 112.948L59.7974 112.782C59.4315 113.504 59.1063 114.361 59.3096 115.204C59.4586 115.835 59.9193 116.422 60.5156 116.497C62.2771 116.738 62.521 113.925 63.1985 112.797L63.0359 112.827C63.6186 113.534 63.9573 114.542 64.7568 114.993C65.3666 115.339 66.0441 115.173 66.437 114.542C67.4126 112.963 65.9763 110.722 64.8516 109.789L64.7974 110C65.9357 109.864 66.9655 108.451 66.3964 107.187C65.6647 105.593 63.7947 107.157 63.0088 107.819C62.8462 107.954 62.67 108.135 62.4939 108.255C62.2906 108.451 62.0332 108.466 61.7486 108.3C61.6944 108.18 61.6538 108.06 61.6402 107.939C61.5318 107.533 61.437 107.112 61.2879 106.721C61.044 106.105 60.6511 105.488 60.0548 105.292C58.4424 104.751 58.754 107.533 59.025 108.451C59.0657 108.586 59.2554 108.526 59.2147 108.391L59.2283 108.36Z" fill="#EEEBE7"/>
<path d="M36.2606 96.9452C36.4909 96.2685 36.8568 95.5766 37.3717 95.1255C38.2931 94.3284 38.7809 95.6218 38.7132 96.464C38.6725 96.8701 38.5641 97.2761 38.4286 97.6521C38.3202 97.9379 38.144 98.2387 38.0898 98.5545C38.0356 98.8854 38.144 99.141 38.415 99.2764C38.8351 99.487 39.4178 99.3967 39.8649 99.4117C40.5153 99.4418 41.2742 99.4719 41.8433 99.878C42.6698 100.465 42.304 101.592 41.5587 102.029C40.9896 102.36 40.3121 102.314 39.7836 101.938C39.7023 101.878 39.6075 101.968 39.6346 102.059C39.9462 103.412 39.8514 105.668 38.5776 106.435C37.7646 106.932 37.0058 106.345 36.8568 105.428C36.7213 104.646 36.9381 103.848 36.8974 103.066C36.8974 102.991 36.8297 102.931 36.7755 102.961C35.6643 103.352 34.7294 104.57 33.4963 104.39C32.6291 104.255 32.3039 103.292 32.6291 102.45C32.9272 101.698 33.6047 101.292 34.2551 101.006C34.3229 100.976 34.3635 100.841 34.2822 100.795C33.4556 100.359 31.8838 99.3516 32.6426 98.0732C33.2253 97.0956 34.77 97.1708 35.6643 97.2912C35.7998 97.3062 35.7863 97.0806 35.6643 97.0656C34.6752 96.9302 32.9001 96.8851 32.3852 98.1183C31.8025 99.517 33.2524 100.495 34.1738 100.991L34.2009 100.78C33.5369 101.066 32.8594 101.472 32.5071 102.179C32.2226 102.766 32.1955 103.563 32.5884 104.089C33.7673 105.638 35.6643 103.563 36.8297 103.157L36.7077 103.051C36.7619 104.014 36.4367 105.037 36.8161 105.969C37.1007 106.661 37.724 106.992 38.3879 106.781C40.0275 106.225 40.1901 103.503 39.8514 101.999L39.7023 102.119C40.6508 102.796 42.1685 102.435 42.5072 101.141C42.9679 99.3967 40.6779 99.2162 39.6752 99.1711C39.079 99.1561 38.0627 99.2914 38.4828 98.1183C38.6454 97.6521 38.8351 97.2009 38.9029 96.6896C38.9842 96.103 38.9435 95.4563 38.5912 94.9901C37.602 93.6967 36.369 96.0278 36.0708 96.8701C36.0302 97.0054 36.2199 97.0656 36.2606 96.9302V96.9452Z" fill="#EEEBE7"/>
<path d="M125.855 90.3884L128.877 94.5995L144.378 116.287L240.341 28.3198L239.298 26.3346L244.393 21.3565L228.092 1.7749L223.661 5.41449L220.531 3.09839L125.855 90.3884Z" fill="#AAC6AF"/>
<path d="M96.5458 132.695L104.513 142.606L108.944 137.643L125.855 132.695L143.172 114.602L127.657 92.8999L108.416 110.602L99.0255 129.311L96.5458 132.695Z" fill="#AAC6AF"/>
<path d="M102.63 140.259C102.63 140.259 96.7355 146.501 92.3317 143.568C87.9278 140.635 97.6976 134.138 97.6976 134.138L102.616 140.274L102.63 140.259Z" fill="#EEEBE7"/>
<path d="M142.956 86.2823L148.592 95.9979L217.55 37.1629L210.084 26.6953L142.956 86.2823Z" fill="#EEEBE7"/>
<path d="M39.621 97.3362C39.7294 97.3362 39.7294 97.1558 39.621 97.1558C39.5126 97.1558 39.5126 97.3362 39.621 97.3362Z" fill="white"/>
<path d="M47.4802 74.1753C47.2227 73.7843 47.2634 73.2579 47.2905 72.7917C47.3176 72.3255 47.4124 71.8893 47.5344 71.4531C47.6563 71.017 47.8054 70.5809 47.9951 70.1748C48.0764 69.9793 48.1713 69.7838 48.2797 69.6033C48.361 69.4529 48.5371 68.9716 48.6862 69.2724C48.8894 69.6935 48.9572 70.2349 49.0114 70.7162C49.0656 71.1975 49.052 71.6336 49.0114 72.0848C48.9707 72.5059 48.8759 72.927 48.6997 73.303C48.5236 73.679 48.1848 74.2355 47.7376 74.2505C47.6292 74.2505 47.6292 74.431 47.7376 74.431C48.3881 74.416 48.8217 73.5587 48.9978 72.9571C49.2417 72.145 49.2553 71.2426 49.1469 70.4004C49.1062 70.1297 48.8081 68.37 48.3745 69.122C47.9409 69.874 47.5886 70.7012 47.3718 71.5584C47.2498 72.0247 47.1685 72.5059 47.155 73.0022C47.1279 73.4384 47.1279 73.9196 47.3718 74.2806C47.426 74.3708 47.575 74.2806 47.5073 74.1904L47.4802 74.1753Z" fill="#EEEBE7"/>
<path d="M55.3665 72.1302C54.987 72.1302 54.7838 71.7693 54.6347 71.4234C54.4857 71.0624 54.3502 70.7015 54.2282 70.3255C53.9979 69.6036 53.8488 68.8516 53.7675 68.0846L53.6862 68.1748C53.8759 68.1447 54.0792 68.4155 54.2147 68.5508C54.3366 68.6711 54.445 68.7914 54.5399 68.9268C54.7838 69.2577 54.9328 69.6337 55.0277 70.0548C55.2174 70.912 55.2852 71.7994 55.2445 72.6717C55.2445 72.792 55.4071 72.792 55.4071 72.6717C55.4478 71.6941 55.38 70.6263 55.0954 69.6788C54.9735 69.2878 54.7702 68.9268 54.5128 68.626C54.3773 68.4756 54.2418 68.3252 54.0927 68.1899C53.9708 68.0846 53.8488 67.9643 53.6862 67.9793C53.6456 67.9793 53.6049 68.0244 53.6049 68.0695C53.6998 68.9569 53.8895 69.8292 54.174 70.6714C54.3773 71.273 54.6483 72.2806 55.3665 72.2957C55.4749 72.2957 55.4749 72.1152 55.3665 72.1152V72.1302Z" fill="#EEEBE7"/>
<path d="M63.605 73.5135C63.3882 72.7164 63.5102 71.8741 63.8083 71.1071C63.9438 70.7612 64.1199 70.4303 64.3096 70.1145C64.4045 69.9491 64.5129 69.7987 64.6348 69.6633C64.689 69.6032 64.7839 69.4828 64.8516 69.4678C65.0007 69.4377 64.9871 69.558 64.9871 69.6784C65.0142 70.4604 64.9871 71.2575 64.811 72.0245C64.6619 72.7013 64.3909 73.5887 63.7541 73.8744C63.6592 73.9195 63.6999 74.085 63.7947 74.0549C64.3232 73.8143 64.6213 73.2427 64.811 72.6562C65.0549 71.9493 65.1226 71.1823 65.1497 70.4153C65.1497 70.2198 65.1497 70.0243 65.1497 69.8438C65.1497 69.7084 65.1633 69.543 65.1091 69.4076C65.0142 69.152 64.8245 69.2422 64.6755 69.3776C64.1877 69.7836 63.8625 70.5055 63.6321 71.1071C63.334 71.8892 63.2256 72.7464 63.4424 73.5586C63.4695 73.6639 63.6321 73.6187 63.605 73.5135Z" fill="#EEEBE7"/>
<path d="M71.6539 70.9268C70.5835 71.002 70.1634 69.4229 70.0008 68.5054C69.8111 67.4376 69.7027 66.3698 69.4588 65.317L69.3368 65.4223C71.0713 66.7308 71.139 69.2725 71.3287 71.363C71.3287 71.4833 71.5049 71.4833 71.4913 71.363C71.3016 69.1973 71.2203 66.6104 69.4181 65.2719C69.3504 65.2268 69.2826 65.302 69.2962 65.3772C69.4452 66.0089 69.5536 66.6405 69.6485 67.2872C69.7298 67.8738 69.7975 68.4754 69.9466 69.0619C70.1634 69.9492 70.6648 71.1975 71.6539 71.1223C71.7623 71.1223 71.7623 70.9268 71.6539 70.9419V70.9268Z" fill="#EEEBE7"/>
<path d="M76.0035 67.9939C75.7461 69.2271 76.1932 70.5356 77.1418 71.2425C77.3586 71.4079 77.6025 71.5282 77.8464 71.6184C77.9954 71.6786 78.2529 71.7989 78.2935 71.5583C78.3206 71.3929 78.2935 71.2124 78.28 71.0469C78.2664 70.8665 78.2393 70.686 78.1987 70.5055C78.1309 70.1446 78.0496 69.7836 77.9548 69.4227C77.7786 68.7609 77.467 68.0841 76.8843 67.7984C76.7895 67.7533 76.7082 67.9037 76.803 67.9488C77.2773 68.1894 77.5618 68.6857 77.7244 69.2121C77.9141 69.7836 78.0496 70.4002 78.1174 71.0018C78.1309 71.1522 78.1174 71.3026 78.1445 71.453C78.1445 71.453 78.1445 71.5432 78.1445 71.5132C78.1445 71.4981 78.1309 71.5132 78.1038 71.4981C78.0496 71.4831 77.9819 71.468 77.9277 71.453C77.6973 71.3778 77.4805 71.2575 77.2773 71.1221C76.8843 70.8364 76.5456 70.4454 76.3423 69.9791C76.0713 69.3775 76.0171 68.6857 76.1526 68.039C76.1797 67.9187 76.0171 67.8736 75.99 67.9939H76.0035Z" fill="#EEEBE7"/>
<path d="M54.1876 80.1913C54.0792 79.4845 54.1063 78.7475 54.2689 78.0557C54.3502 77.7098 54.4586 77.3639 54.5941 77.033C54.6619 76.8826 54.7296 76.7322 54.7974 76.5969C54.838 76.5217 54.8787 76.4014 54.96 76.3713C55.0142 76.3262 55.0413 76.3412 55.0277 76.4314C55.0277 76.4916 55.0548 76.5367 55.0684 76.5969C55.2174 77.3789 55.2581 78.2061 55.1497 79.0032C55.0548 79.695 54.7703 80.4621 54.0928 80.6275C53.9843 80.6576 54.0386 80.823 54.1334 80.808C55.4071 80.4921 55.4342 78.552 55.3394 77.4241C55.3123 77.0631 55.2581 76.6871 55.1768 76.3412C55.1226 76.1306 54.9871 76.0103 54.838 76.2058C54.6483 76.4314 54.5264 76.7773 54.4044 77.0481C54.2825 77.3489 54.1741 77.6797 54.1063 78.0106C53.9437 78.7475 53.9166 79.4995 54.025 80.2515C54.0386 80.3718 54.2012 80.3117 54.1876 80.2064V80.1913Z" fill="#EEEBE7"/>
<path d="M37.182 74.7018C36.0031 73.8896 34.5668 73.6039 33.2118 73.9348C32.9001 74.01 32.5342 74.1002 32.2497 74.2807C32.06 74.401 32.1006 74.5815 32.2768 74.7018C32.8866 75.0778 33.6725 75.2432 34.3635 75.3184C35.2172 75.4086 36.0844 75.2883 36.8974 75.0026C36.9923 74.9725 36.9516 74.792 36.8568 74.8221C36.0844 75.1078 35.2579 75.2131 34.4448 75.153C34.0248 75.1229 33.6183 75.0327 33.2118 74.9123C33.0221 74.8522 32.8324 74.777 32.6427 74.7018C32.5884 74.6717 32.2632 74.5965 32.331 74.4611C32.3581 74.416 32.5884 74.3408 32.6427 74.3258C34.1061 73.7543 35.7863 73.9648 37.1007 74.8823C37.1955 74.9424 37.2768 74.792 37.182 74.7319V74.7018Z" fill="#EEEBE7"/>
<path d="M36.9652 81.4695C36.1928 82.4019 36.0302 83.8307 36.5315 84.9587C36.5586 85.0038 36.6264 85.0188 36.6535 84.9737C37.3175 84.1465 37.7375 83.1088 37.8324 82.0109C37.8324 81.8906 37.6833 81.8906 37.6698 82.0109C37.5749 83.0637 37.182 84.0563 36.5451 84.8534H36.6671C36.1928 83.8156 36.3554 82.4771 37.0736 81.5898C37.1413 81.4995 37.0329 81.3792 36.9652 81.4695Z" fill="#EEEBE7"/>
</svg>
