<svg width="211" height="185" viewBox="0 0 211 185" fill="none" xmlns="http://www.w3.org/2000/svg">
<path d="M70.973 112.365C91.5102 112.365 108.159 97.3384 108.159 78.8021C108.159 60.2659 91.5102 45.2393 70.973 45.2393C50.4358 45.2393 33.7871 60.2659 33.7871 78.8021C33.7871 97.3384 50.4358 112.365 70.973 112.365Z" fill="#AAC6AF"/>
<path d="M152.519 109.528C170.618 109.528 185.29 95.9066 185.29 79.1037C185.29 62.3007 170.618 48.6792 152.519 48.6792C134.419 48.6792 119.747 62.3007 119.747 79.1037C119.747 95.9066 134.419 109.528 152.519 109.528Z" fill="#AAC6AF"/>
<path d="M10.9112 180.82H131.624C131.624 180.82 133.23 124.028 73.1678 122.959C73.1678 122.959 8.56594 119.711 10.9112 180.82Z" fill="#AAC6AF"/>
<path d="M115.069 125.864C115.069 125.864 141.218 144.722 142.385 171.241H208.278C208.278 171.241 215.477 130.113 171.093 115.682C171.093 115.682 137.506 106.924 115.069 125.864Z" fill="#AAC6AF"/>
<path d="M101.675 4.18018H61.4664C60.3928 4.18018 59.5225 5.13123 59.5225 6.30441V31.9185C59.5225 33.0917 60.3928 34.0428 61.4664 34.0428H101.675C102.748 34.0428 103.619 33.0917 103.619 31.9185V6.30441C103.619 5.13123 102.748 4.18018 101.675 4.18018Z" fill="#AAC6AF"/>
<path d="M148.405 15.4043H114.843C113.77 15.4043 112.9 16.3553 112.9 17.5285V36.9481C112.9 38.1213 113.77 39.0723 114.843 39.0723H148.405C149.478 39.0723 150.349 38.1213 150.349 36.9481V17.5285C150.349 16.3553 149.478 15.4043 148.405 15.4043Z" fill="#AAC6AF"/>
<path d="M71.2364 33.0283L64.4764 40.2918L83.2638 33.0283H71.2364Z" fill="#AAC6AF"/>
<path d="M131.624 39.0861L140.002 45.2395L138.56 38.4146L131.624 39.0861Z" fill="#AAC6AF"/>
<path d="M68.101 12.1011L94.7644 12.1285" stroke="#EEEBE7" stroke-miterlimit="10"/>
<path d="M68.0884 19.8442L86.0856 19.8579" stroke="#EEEBE7" stroke-miterlimit="10"/>
<path d="M145.483 21.7632L121.478 21.7358" stroke="#EEEBE7" stroke-width="0.5" stroke-miterlimit="10"/>
<path d="M145.495 28.4649L129.304 28.4512" stroke="#EEEBE7" stroke-width="0.5" stroke-miterlimit="10"/>
</svg>
