<svg width="264" height="202" viewBox="0 0 264 202" fill="none" xmlns="http://www.w3.org/2000/svg">
<path d="M88.8003 122.691C114.496 122.691 135.327 106.283 135.327 86.0435C135.327 65.8039 114.496 49.3965 88.8003 49.3965C63.1045 49.3965 42.2739 65.8039 42.2739 86.0435C42.2739 106.283 63.1045 122.691 88.8003 122.691Z" fill="#AAC6AF"/>
<path d="M190.829 119.593C213.474 119.593 231.832 104.72 231.832 86.3726C231.832 68.0256 213.474 53.1523 190.829 53.1523C168.184 53.1523 149.826 68.0256 149.826 86.3726C149.826 104.72 168.184 119.593 190.829 119.593Z" fill="#AAC6AF"/>
<path d="M13.652 197.436H164.686C164.686 197.436 166.695 135.425 91.5464 134.258C91.5464 134.258 10.7176 130.711 13.652 197.436Z" fill="#AAC6AF"/>
<path d="M143.973 137.43C143.973 137.43 176.69 158.021 178.15 186.976H260.595C260.595 186.976 269.602 142.069 214.068 126.312C214.068 126.312 172.046 116.75 143.973 137.43Z" fill="#AAC6AF"/>
<path d="M127.214 4.56396H76.9059C75.5626 4.56396 74.4736 5.60241 74.4736 6.8834V34.8512C74.4736 36.1322 75.5626 37.1707 76.9059 37.1707H127.214C128.557 37.1707 129.646 36.1322 129.646 34.8512V6.8834C129.646 5.60241 128.557 4.56396 127.214 4.56396Z" fill="#AAC6AF"/>
<path d="M185.682 16.8198H143.69C142.347 16.8198 141.258 17.8583 141.258 19.1393V40.3433C141.258 41.6243 142.347 42.6628 143.69 42.6628H185.682C187.025 42.6628 188.114 41.6243 188.114 40.3433V19.1393C188.114 17.8583 187.025 16.8198 185.682 16.8198Z" fill="#AAC6AF"/>
<path d="M89.1298 36.0635L80.6719 43.9944L104.178 36.0635H89.1298Z" fill="#AAC6AF"/>
<path d="M164.686 42.6776L175.168 49.3964L173.364 41.9443L164.686 42.6776Z" fill="#AAC6AF"/>
<path d="M85.2068 13.2134L118.568 13.2433" stroke="#EEEBE7" stroke-miterlimit="10"/>
<path d="M85.1912 21.668L107.709 21.6829" stroke="#EEEBE7" stroke-miterlimit="10"/>
<path d="M182.026 23.7628L151.991 23.7329" stroke="#EEEBE7" stroke-width="0.5" stroke-miterlimit="10"/>
<path d="M182.041 31.0804L161.783 31.0654" stroke="#EEEBE7" stroke-width="0.5" stroke-miterlimit="10"/>
</svg>
