<svg width="265" height="194" viewBox="0 0 265 194" fill="none" xmlns="http://www.w3.org/2000/svg">
<path d="M41.5135 98.6624C41.5135 98.6624 55.7343 95.0372 57.2996 108.335L58.4153 163.976C58.4153 163.976 56.8667 172.189 42.8623 171.978C28.858 171.768 32.638 145.85 32.638 145.85L32.1718 98.1961C32.1718 98.1961 40.4145 59.4622 56.2006 44.7208C56.2006 44.7208 91.0865 12.1995 130.652 12.4853C168.418 12.756 220.872 17.7501 237.108 97.3988V162.396C237.108 162.396 235.11 173.046 224.436 170.925C213.762 168.819 212.213 168.398 212.663 158.079C213.112 147.76 211.547 108.335 211.547 108.335C211.547 108.335 210.431 98.4518 228.216 98.4518C228.216 98.4518 220.423 30.4006 134.648 27.6629C134.648 27.6629 52.8702 30.8218 41.5468 98.6624H41.5135Z" fill="#AAC6AF"/>
<path d="M136.796 88.5542H132.034C131.261 88.5542 130.635 89.1199 130.635 89.8177V178.943C130.635 179.641 131.261 180.207 132.034 180.207H136.796C137.569 180.207 138.195 179.641 138.195 178.943V89.8177C138.195 89.1199 137.569 88.5542 136.796 88.5542Z" fill="#AAC6AF"/>
<path d="M149.602 111.93H146.538C145.728 111.93 145.072 112.522 145.072 113.253V155.898C145.072 156.629 145.728 157.222 146.538 157.222H149.602C150.411 157.222 151.067 156.629 151.067 155.898V113.253C151.067 112.522 150.411 111.93 149.602 111.93Z" fill="#AAC6AF"/>
<path d="M123.142 112.712H120.078C119.268 112.712 118.612 113.305 118.612 114.036V156.68C118.612 157.412 119.268 158.004 120.078 158.004H123.142C123.951 158.004 124.607 157.412 124.607 156.68V114.036C124.607 113.305 123.951 112.712 123.142 112.712Z" fill="#AAC6AF"/>
<path d="M162.274 102.182H159.21C158.401 102.182 157.745 102.775 157.745 103.506V164.758C157.745 165.489 158.401 166.082 159.21 166.082H162.274C163.083 166.082 163.739 165.489 163.739 164.758V103.506C163.739 102.775 163.083 102.182 162.274 102.182Z" fill="#AAC6AF"/>
<path d="M110.486 103.416H107.422C106.613 103.416 105.957 104.008 105.957 104.739V165.991C105.957 166.722 106.613 167.315 107.422 167.315H110.486C111.295 167.315 111.952 166.722 111.952 165.991V104.739C111.952 104.008 111.295 103.416 110.486 103.416Z" fill="#AAC6AF"/>
<path d="M97.381 119.857H94.3171C93.5078 119.857 92.8517 120.45 92.8517 121.181V149.535C92.8517 150.266 93.5078 150.859 94.3171 150.859H97.381C98.1903 150.859 98.8464 150.266 98.8464 149.535V121.181C98.8464 120.45 98.1903 119.857 97.381 119.857Z" fill="#AAC6AF"/>
<path d="M175.379 118.879H172.315C171.506 118.879 170.85 119.472 170.85 120.203V148.558C170.85 149.289 171.506 149.881 172.315 149.881H175.379C176.188 149.881 176.844 149.289 176.844 148.558V120.203C176.844 119.472 176.188 118.879 175.379 118.879Z" fill="#AAC6AF"/>
<path d="M26.6266 108.74V162.171C26.6266 162.171 13.0719 164.397 11.3068 154.92V115.103C11.3068 115.103 13.5048 106.379 26.6266 108.74Z" fill="#AAC6AF"/>
<path d="M243.536 161.99V108.56C243.536 108.56 257.09 106.334 258.855 115.81V155.627C258.855 155.627 256.657 164.352 243.536 161.99Z" fill="#AAC6AF"/>
<path d="M40.0314 89.6673C42.4293 75.8886 48.5739 62.862 58.4985 52.1218C68.0901 41.7427 80.5624 33.8605 94.0339 28.1294C110.786 21.0144 129.553 18.3971 147.953 20.0216C157.145 20.8339 166.204 22.7142 174.896 25.5271C183.588 28.34 192.98 32.2961 200.34 37.8618C208.45 43.984 213.862 52.3324 218.691 60.6959C223.487 69.0143 227.25 77.6335 229.914 86.6889C230.197 87.6667 231.896 87.2605 231.596 86.2678C229.215 78.1299 225.968 70.2778 221.805 62.7417C217.525 54.9648 212.813 47.1579 206.235 40.7348C199.658 34.3118 191.431 30.13 182.822 26.7004C174.113 23.2256 164.938 20.7286 155.546 19.3297C137.096 16.577 117.863 17.9609 100.345 23.9928C85.608 29.062 71.6536 37.0194 60.8131 47.3986C48.7071 58.9661 41.0805 73.542 38.3496 89.2311C38.1831 90.2239 39.8649 90.6601 40.0314 89.6523V89.6673Z" fill="#EEEBE7"/>
<path d="M168.835 96.4507C169.001 96.4507 169.001 96.2251 168.835 96.2251C168.668 96.2251 168.668 96.4507 168.835 96.4507Z" fill="#EEEBE7"/>
</svg>
