<svg width="232" height="182" viewBox="0 0 232 182" fill="none" xmlns="http://www.w3.org/2000/svg">
<path d="M36.3439 92.5593C36.3439 92.5593 48.7938 89.1583 50.1641 101.633L51.1409 153.833C51.1409 153.833 49.7851 161.538 37.5247 161.34C25.2643 161.143 28.5736 136.828 28.5736 136.828L28.1654 92.1218C28.1654 92.1218 35.3817 55.7839 49.202 41.9543C49.202 41.9543 79.7436 11.4446 114.382 11.7127C147.446 11.9667 193.367 16.6518 207.581 91.3739V152.351C207.581 152.351 205.832 162.342 196.487 160.352C187.142 158.377 185.787 157.982 186.18 148.301C186.574 138.62 185.203 101.633 185.203 101.633C185.203 101.633 184.227 92.3617 199.796 92.3617C199.796 92.3617 192.974 28.5199 117.881 25.9515C117.881 25.9515 46.2863 28.915 36.373 92.5593H36.3439Z" fill="#AAC6AF"/>
<path d="M119.761 83.0762H115.592C114.915 83.0762 114.367 83.6069 114.367 84.2616V167.874C114.367 168.529 114.915 169.059 115.592 169.059H119.761C120.438 169.059 120.986 168.529 120.986 167.874V84.2616C120.986 83.6069 120.438 83.0762 119.761 83.0762Z" fill="#AAC6AF"/>
<path d="M130.972 105.006H128.289C127.581 105.006 127.007 105.562 127.007 106.248V146.255C127.007 146.941 127.581 147.497 128.289 147.497H130.972C131.68 147.497 132.255 146.941 132.255 146.255V106.248C132.255 105.562 131.68 105.006 130.972 105.006Z" fill="#AAC6AF"/>
<path d="M107.807 105.74H105.125C104.416 105.74 103.842 106.296 103.842 106.982V146.989C103.842 147.674 104.416 148.23 105.125 148.23H107.807C108.516 148.23 109.09 147.674 109.09 146.989V106.982C109.09 106.296 108.516 105.74 107.807 105.74Z" fill="#AAC6AF"/>
<path d="M142.066 95.8613H139.384C138.675 95.8613 138.101 96.4173 138.101 97.1032V154.566C138.101 155.252 138.675 155.808 139.384 155.808H142.066C142.775 155.808 143.349 155.252 143.349 154.566V97.1032C143.349 96.4173 142.775 95.8613 142.066 95.8613Z" fill="#AAC6AF"/>
<path d="M96.7274 97.0186H94.045C93.3365 97.0186 92.7621 97.5745 92.7621 98.2604V155.724C92.7621 156.41 93.3365 156.966 94.045 156.966H96.7274C97.4359 156.966 98.0103 156.41 98.0103 155.724V98.2604C98.0103 97.5745 97.4359 97.0186 96.7274 97.0186Z" fill="#AAC6AF"/>
<path d="M85.2543 112.443H82.5718C81.8633 112.443 81.2889 112.999 81.2889 113.685V140.285C81.2889 140.971 81.8633 141.527 82.5718 141.527H85.2543C85.9628 141.527 86.5372 140.971 86.5372 140.285V113.685C86.5372 112.999 85.9628 112.443 85.2543 112.443Z" fill="#AAC6AF"/>
<path d="M153.539 111.525H150.857C150.148 111.525 149.574 112.081 149.574 112.767V139.368C149.574 140.054 150.148 140.61 150.857 140.61H153.539C154.248 140.61 154.822 140.054 154.822 139.368V112.767C154.822 112.081 154.248 111.525 153.539 111.525Z" fill="#AAC6AF"/>
<path d="M23.3108 102.014V152.139C23.3108 152.139 11.444 154.228 9.89868 145.337V107.984C9.89868 107.984 11.823 99.7987 23.3108 102.014Z" fill="#AAC6AF"/>
<path d="M213.208 151.97V101.845C213.208 101.845 225.075 99.7562 226.621 108.647V146.001C226.621 146.001 224.696 154.185 213.208 151.97Z" fill="#AAC6AF"/>
<path d="M35.0464 84.1204C37.1457 71.1939 42.5251 58.9731 51.2138 48.8973C59.6109 39.1601 70.5301 31.7656 82.324 26.389C96.9898 19.7141 113.42 17.2586 129.529 18.7827C137.576 19.5447 145.507 21.3087 153.117 23.9476C160.726 26.5865 168.949 30.2979 175.392 35.5193C182.492 41.2628 187.23 49.0949 191.458 56.941C195.656 64.7449 198.951 72.8309 201.283 81.3262C201.531 82.2435 203.018 81.8625 202.756 80.9311C200.671 73.2966 197.828 65.9302 194.184 58.8602C190.437 51.5644 186.311 44.2404 180.553 38.2147C174.795 32.1889 167.593 28.2658 160.056 25.0483C152.431 21.7885 144.399 19.4459 136.176 18.1335C120.024 15.5511 103.186 16.8494 87.8492 22.5082C74.9474 27.2639 62.7307 34.729 53.2402 44.4662C42.6417 55.3182 35.9648 68.9925 33.574 83.7111C33.4282 84.6425 34.9006 85.0517 35.0464 84.1062V84.1204Z" fill="#EEEBE7"/>
<path d="M147.81 90.4851C147.956 90.4851 147.956 90.2734 147.81 90.2734C147.664 90.2734 147.664 90.4851 147.81 90.4851Z" fill="#EEEBE7"/>
</svg>
