<svg width="208" height="223" viewBox="0 0 208 223" fill="none" xmlns="http://www.w3.org/2000/svg">
<path d="M71.88 90H92.28L91.88 92.32C90.8133 92.8 89.6667 93.2 88.44 93.52C87.2133 93.84 86.0667 94.1067 85 94.32L75.56 139.12C74.76 142.8 73.6667 145.84 72.28 148.24C70.9467 150.64 69.48 152.56 67.88 154C66.3333 155.493 64.76 156.587 63.16 157.28C61.6133 158.027 60.2267 158.533 59 158.8L58.44 157.6C59.5067 156.747 60.4667 155.867 61.32 154.96C62.2267 154.107 63.0533 153.013 63.8 151.68C64.5467 150.4 65.24 148.827 65.88 146.96C66.52 145.093 67.1333 142.773 67.72 140L77.32 94.32C75.0267 93.7867 73.0533 93.12 71.4 92.32L71.88 90ZM101.004 141.76C103.351 142.187 105.458 142.827 107.324 143.68L106.924 146H85.8844L86.2844 143.68C87.5644 143.147 88.7644 142.747 89.8844 142.48C91.0577 142.213 92.2044 141.973 93.3244 141.76L103.324 94.32C102.044 94 100.871 93.68 99.8044 93.36C98.791 93.04 97.911 92.6933 97.1644 92.32L97.7244 90H104.764C106.898 90 109.244 89.8933 111.804 89.68C114.418 89.4667 116.898 89.36 119.244 89.36C124.524 89.36 128.444 90.5067 131.004 92.8C133.618 95.04 134.924 98.24 134.924 102.4C134.924 104.48 134.551 106.48 133.804 108.4C133.111 110.32 132.098 112.053 130.764 113.6C129.484 115.147 127.884 116.507 125.964 117.68C124.098 118.8 121.964 119.653 119.564 120.24C121.111 123.867 122.791 127.467 124.604 131.04C126.471 134.613 128.391 138.16 130.364 141.68L134.124 144L133.724 146H124.604L121.884 143.76C120.764 141.893 119.751 140.053 118.844 138.24C117.991 136.427 117.191 134.613 116.444 132.8C115.751 130.987 115.111 129.12 114.524 127.2C113.991 125.28 113.484 123.28 113.004 121.2H105.324L101.004 141.76ZM116.604 93.52C115.378 93.52 114.311 93.5733 113.404 93.68C112.551 93.7333 111.751 93.8133 111.004 93.92L106.044 117.76H111.724C114.551 117.813 116.924 117.387 118.844 116.48C120.818 115.573 122.391 114.373 123.564 112.88C124.791 111.333 125.671 109.6 126.204 107.68C126.791 105.76 127.084 103.787 127.084 101.76C127.138 98.88 126.311 96.8 124.604 95.52C122.951 94.1867 120.284 93.52 116.604 93.52Z" fill="#665F5F"/>
<path d="M113.587 213.693C82.5367 210.381 51.1972 202.291 29.4271 177.92C8.73795 154.759 -2.15719 117.879 3.03434 87.0291C9.1802 50.5079 39.4469 28.426 75.323 25.87C122.191 22.5307 168.801 47.1318 187.466 91.6929C201.261 124.628 189.775 159.998 170.083 186.876C145.457 220.488 102.889 232.609 66.8433 208.446C15.1417 173.789 13.9749 96.53 35.4688 43.8891C44.9722 20.6144 61.7346 4.28943 86.8234 1.91509C103.192 0.366018 119.236 5.34445 133.938 12.0906C167.07 27.2931 198.33 54.846 204.425 92.5408C208.484 117.643 203.498 144.255 192.447 166.949C187.579 176.947 181.874 186.649 174.958 195.356" stroke="#665F5F" stroke-width="3" stroke-linecap="round"/>
</svg>
