<svg width="225" height="184" viewBox="0 0 225 184" fill="none" xmlns="http://www.w3.org/2000/svg">
<path d="M79.0564 86.1479C79.0564 86.1479 67.3962 75.19 77.3392 67.3724C87.2822 59.5548 88.7874 51.7152 88.7874 51.7152C88.7874 51.7152 107.783 26.0004 120.312 25.3196C120.312 25.3196 126.143 24.8805 127.436 44.5563C128.729 64.2322 151.837 69.3707 159.385 66.4721C159.385 66.4721 174.077 116.342 173.843 125.06C173.843 125.06 219.403 119.461 208.824 179.411C208.824 179.411 148.594 176.951 145.774 172.471C142.976 167.992 80.7948 94.8659 79.0564 86.1479Z" fill="#AAC6AF"/>
<path d="M77.5391 112.897L23.6384 109.551C21.1372 109.396 18.9881 111.37 18.8382 113.961C18.6883 116.552 20.5943 118.778 23.0955 118.933L76.9962 122.279C79.4974 122.435 81.6465 120.46 81.7964 117.87C81.9463 115.279 80.0403 113.053 77.5391 112.897Z" fill="#AAC6AF"/>
<path d="M94.6143 131.38L38.7878 127.914C36.2866 127.759 34.1375 129.733 33.9876 132.324C33.8377 134.915 35.7438 137.141 38.2449 137.296L94.0714 140.762C96.5726 140.917 98.7217 138.943 98.8716 136.352C99.0215 133.761 97.1155 131.535 94.6143 131.38Z" fill="#AAC6AF"/>
<path d="M106.333 149.817L50.5064 146.351C48.0053 146.196 45.8561 148.17 45.7062 150.761C45.5563 153.352 47.4624 155.578 49.9635 155.733L105.79 159.199C108.291 159.354 110.44 157.38 110.59 154.789C110.74 152.198 108.834 149.972 106.333 149.817Z" fill="#AAC6AF"/>
<path d="M94.7659 94.8218L110.454 114.08L128.241 104.462L121.521 94.8218H94.7659Z" fill="#E8EFE9"/>
<path d="M113.74 118.67L123.514 130.616L134.58 124.643L130.404 118.67H113.74Z" fill="#E8EFE9"/>
<path d="M105.557 108.063L117.323 123.084L130.637 115.574L125.591 108.063H105.557Z" fill="#E8EFE9"/>
<path d="M161.295 84.8534L161.108 83.7726C161.007 83.1876 160.467 82.7982 159.903 82.9028L145.607 85.5511C145.042 85.6557 144.667 86.2147 144.768 86.7997L144.954 87.8806C145.055 88.4656 145.595 88.855 146.16 88.7503L160.455 86.1021C161.02 85.9975 161.396 85.4384 161.295 84.8534Z" fill="#F9F9F9"/>
<path d="M163.934 92.6054L163.748 91.5245C163.647 90.9396 163.107 90.5501 162.542 90.6548L148.247 93.303C147.682 93.4077 147.306 93.9667 147.407 94.5517L147.594 95.6325C147.695 96.2175 148.234 96.6069 148.799 96.5023L163.095 93.854C163.659 93.7494 164.035 93.1904 163.934 92.6054Z" fill="#F9F9F9"/>
<path d="M165.614 100.308L165.427 99.2272C165.326 98.6422 164.787 98.2528 164.222 98.3574L149.926 101.006C149.362 101.11 148.986 101.669 149.087 102.254L149.273 103.335C149.374 103.92 149.914 104.31 150.479 104.205L164.774 101.557C165.339 101.452 165.715 100.893 165.614 100.308Z" fill="#F9F9F9"/>
</svg>
