<svg width="50" height="50" viewBox="0 0 50 50" fill="none" xmlns="http://www.w3.org/2000/svg">
<path d="M15.992 18.6H21.602L21.492 19.238C21.1987 19.37 20.8833 19.48 20.546 19.568C20.2087 19.656 19.8933 19.7293 19.6 19.788L17.004 32.108C16.784 33.12 16.4833 33.956 16.102 34.616C15.7353 35.276 15.332 35.804 14.892 36.2C14.4667 36.6107 14.034 36.9113 13.594 37.102C13.1687 37.3073 12.7873 37.4467 12.45 37.52L12.296 37.19C12.5893 36.9553 12.8533 36.7133 13.088 36.464C13.3373 36.2293 13.5647 35.9287 13.77 35.562C13.9753 35.21 14.166 34.7773 14.342 34.264C14.518 33.7507 14.6867 33.1127 14.848 32.35L17.488 19.788C16.8573 19.6413 16.3147 19.458 15.86 19.238L15.992 18.6ZM24.0012 32.834C24.6465 32.9513 25.2259 33.1273 25.7392 33.362L25.6292 34H19.8432L19.9532 33.362C20.3052 33.2153 20.6352 33.1053 20.9432 33.032C21.2659 32.9587 21.5812 32.8927 21.8892 32.834L24.6392 19.788C24.2872 19.7 23.9645 19.612 23.6712 19.524C23.3925 19.436 23.1505 19.3407 22.9452 19.238L23.0992 18.6H25.0352C25.6219 18.6 26.2672 18.5707 26.9712 18.512C27.6899 18.4533 28.3719 18.424 29.0172 18.424C30.4692 18.424 31.5472 18.7393 32.2512 19.37C32.9699 19.986 33.3292 20.866 33.3292 22.01C33.3292 22.582 33.2265 23.132 33.0212 23.66C32.8305 24.188 32.5519 24.6647 32.1852 25.09C31.8332 25.5153 31.3932 25.8893 30.8652 26.212C30.3519 26.52 29.7652 26.7547 29.1052 26.916C29.5305 27.9133 29.9925 28.9033 30.4912 29.886C31.0045 30.8687 31.5325 31.844 32.0752 32.812L33.1092 33.45L32.9992 34H30.4912L29.7432 33.384C29.4352 32.8707 29.1565 32.3647 28.9072 31.866C28.6725 31.3673 28.4525 30.8687 28.2472 30.37C28.0565 29.8713 27.8805 29.358 27.7192 28.83C27.5725 28.302 27.4332 27.752 27.3012 27.18H25.1892L24.0012 32.834ZM28.2912 19.568C27.9539 19.568 27.6605 19.5827 27.4112 19.612C27.1765 19.6267 26.9565 19.6487 26.7512 19.678L25.3872 26.234H26.9492C27.7265 26.2487 28.3792 26.1313 28.9072 25.882C29.4499 25.6327 29.8825 25.3027 30.2052 24.892C30.5425 24.4667 30.7845 23.99 30.9312 23.462C31.0925 22.934 31.1732 22.3913 31.1732 21.834C31.1879 21.042 30.9605 20.47 30.4912 20.118C30.0365 19.7513 29.3032 19.568 28.2912 19.568Z" fill="#665F5F"/>
<path d="M27.0547 47.0056C19.7515 46.2813 12.3803 44.5122 7.25982 39.1826C2.39361 34.1176 -0.168993 26.0526 1.05209 19.3061C2.49763 11.3195 9.61653 6.49055 18.0548 5.93158C29.0785 5.20134 40.0414 10.5812 44.4314 20.326C47.676 27.5284 44.9746 35.2633 40.3428 41.1412C34.5508 48.4915 24.5384 51.1422 16.0603 45.8582C3.8998 38.2793 3.62536 21.3838 8.68086 9.87209C10.9161 4.78226 14.8587 1.21225 20.7598 0.693016C24.6097 0.354258 28.3833 1.44297 31.8414 2.91825C39.6343 6.2428 46.9868 12.2682 48.4203 20.5115C49.3749 26.001 48.2023 31.8206 45.6031 36.7835C44.4581 38.9697 43.1163 41.0915 41.4896 42.9956" stroke="#665F5F" stroke-linecap="round"/>
</svg>
