<svg width="52" height="52" viewBox="0 0 52 52" fill="none" xmlns="http://www.w3.org/2000/svg">
<path d="M22.7397 46.766C16.0145 47.2648 11.8962 44.4673 8.58529 39.8624C1.99693 30.6994 2.90796 18.9193 8.58529 9.60634C11.2641 5.21209 15.7684 1.94414 21.8931 1.14741C27.1517 0.463335 32.7281 2.25292 36.9999 4.59916C42.3435 7.53405 45.8713 12.0718 47.6091 17.0425C50.245 24.5818 48.5244 31.9752 43.9449 38.7545C41.0238 43.0786 36.9769 47.9508 31.1397 49.994C23.7472 52.5816 15.6998 49.8467 10.2388 45.5515C0.80159 38.1287 -0.791227 27.781 2.69864 17.8841C5.05968 11.1885 9.55832 5.22434 18.6653 4.25825C32.5079 2.78982 45.7176 10.6331 49.8183 21.1655C51.8899 26.4864 51.2026 32.4708 48.0324 37.4228C44.2213 43.3758 37.5912 46.1389 30.8355 49.4507" stroke="#292929" stroke-width="1.2" stroke-linecap="round"/>
<path d="M10.875 33.125V31.25H9V29.375H12.75V31.25H18.375V20H22.125V31.25H20.25V33.125H10.875ZM24 33.125V20H35.25V21.875H37.125V27.5H33.375V29.375H35.25V31.25H37.125V33.125H31.5V31.25H29.625V29.375H27.75V33.125H24ZM27.75 27.5H31.5V25.625H33.375V21.875H27.75V27.5Z" fill="black"/>
</svg>
